<?xml version="1.0" standalone="no"?>
<!DOCTYPE svg PUBLIC "-//W3C//DTD SVG 20010904//EN"
 "http://www.w3.org/TR/2001/REC-SVG-20010904/DTD/svg10.dtd">
<svg version="1.0" xmlns="http://www.w3.org/2000/svg"
 width="1362.000000pt" height="681.000000pt" viewBox="0 0 1362.000000 681.000000"
 preserveAspectRatio="xMidYMid meet">

<g transform="translate(0.000000,681.000000) scale(0.100000,-0.100000)"
fill="#000000" stroke="none">
<path d="M3240 6330 l0 -180 35 0 35 0 0 180 0 180 -35 0 -35 0 0 -180z"/>
<path d="M3540 6439 l0 -70 -22 15 c-28 20 -61 20 -96 2 -39 -20 -57 -60 -56
-124 0 -49 4 -58 32 -83 36 -32 77 -37 108 -14 25 19 34 19 34 0 0 -10 11 -15
35 -15 l35 0 0 180 0 180 -35 0 -35 0 0 -71z m-10 -118 c38 -72 -24 -148 -77
-95 -20 20 -24 32 -19 56 3 17 11 37 17 45 17 20 67 16 79 -6z"/>
<path d="M690 6468 c-64 -33 -90 -76 -90 -152 0 -102 45 -153 142 -163 74 -7
108 8 108 47 0 28 -2 30 -27 23 -77 -21 -138 11 -149 78 -14 87 65 147 154
116 20 -8 22 -5 22 26 0 27 -5 36 -22 41 -45 12 -94 6 -138 -16z"/>
<path d="M2265 6467 c4 -13 23 -88 44 -168 l38 -144 43 0 44 0 31 120 32 120
12 -45 c7 -25 16 -61 21 -80 32 -130 27 -121 72 -118 l41 3 38 144 c21 80 40
156 44 169 5 22 3 23 -32 20 l-37 -3 -23 -115 c-13 -63 -25 -119 -26 -125 -2
-5 -17 46 -34 115 l-30 125 -40 3 -40 3 -33 -123 c-17 -68 -33 -124 -35 -126
-2 -2 -9 23 -15 55 -6 32 -18 88 -27 126 l-15 67 -39 0 c-36 0 -39 -2 -34 -23z"/>
<path d="M1723 6458 c-26 -7 -33 -14 -33 -33 0 -18 -5 -25 -20 -25 -15 0 -20
-7 -20 -25 0 -18 5 -25 20 -25 18 0 20 -7 20 -75 0 -68 3 -79 25 -101 20 -20
34 -25 63 -22 33 3 37 6 40 32 3 23 0 27 -12 23 -29 -11 -46 21 -46 84 0 59 0
59 30 59 25 0 30 4 30 25 0 21 -5 25 -29 25 -26 0 -30 4 -33 33 -3 32 -4 33
-35 25z"/>
<path d="M12616 6430 c-55 -66 -39 -146 37 -183 45 -22 85 -16 127 20 34 29
41 58 11 48 -28 -8 -86 19 -106 49 -9 14 -17 41 -18 61 -1 43 -17 45 -51 5z"/>
<path d="M910 6275 l0 -125 35 0 35 0 0 78 c0 85 14 112 58 112 18 0 22 6 22
30 0 23 -4 30 -20 30 -11 0 -29 -9 -40 -20 l-20 -20 0 20 c0 16 -7 20 -35 20
l-35 0 0 -125z"/>
<path d="M1090 6395 c0 -3 21 -57 47 -121 37 -94 44 -121 37 -143 -7 -20 -17
-27 -42 -29 -29 -3 -33 -6 -30 -30 2 -22 9 -28 35 -30 56 -5 87 35 142 183 71
191 68 175 28 175 l-34 0 -28 -92 -28 -93 -25 93 -25 92 -38 0 c-22 0 -39 -2
-39 -5z"/>
<path d="M1380 6220 l0 -180 35 0 35 0 0 71 0 70 22 -15 c37 -26 76 -20 114
18 31 31 34 39 34 96 0 55 -3 65 -29 91 -35 35 -77 38 -115 8 l-26 -20 0 20
c0 17 -6 21 -35 21 l-35 0 0 -180z m158 108 c16 -16 15 -80 0 -100 -37 -45
-88 -19 -88 46 0 48 13 66 50 66 14 0 31 -5 38 -12z"/>
<path d="M1915 6386 c-37 -16 -53 -35 -65 -77 -22 -75 26 -148 103 -156 84
-10 147 45 147 127 0 91 -94 146 -185 106z m107 -71 c8 -17 8 -37 2 -63 -8
-32 -13 -37 -42 -40 -45 -5 -62 12 -62 62 0 51 13 66 57 66 26 0 36 -6 45 -25z"/>
<path d="M2803 6385 c-60 -26 -82 -118 -43 -182 37 -62 146 -69 202 -13 24 24
28 36 28 82 0 32 -6 62 -16 76 -34 49 -107 65 -171 37z m105 -58 c15 -12 16
-89 0 -105 -20 -20 -76 -15 -88 7 -12 23 -13 71 -2 87 20 30 59 35 90 11z"/>
<path d="M3050 6275 l0 -125 35 0 35 0 0 78 c0 85 14 112 58 112 18 0 22 6 22
30 0 23 -4 30 -20 30 -11 0 -29 -9 -40 -20 l-20 -20 0 20 c0 16 -7 20 -35 20
l-35 0 0 -125z"/>
<path d="M11044 5241 c-48 -12 -134 -63 -153 -90 -77 -109 -87 -206 -31 -309
35 -65 54 -83 130 -122 86 -44 191 -30 291 41 14 10 41 46 59 81 29 53 34 73
34 128 0 141 -108 259 -250 274 -27 3 -63 1 -80 -3z m6 -89 c0 -11 -17 -29
-37 -43 -43 -27 -83 -97 -83 -144 1 -51 35 -111 79 -140 38 -23 50 -43 35 -58
-9 -9 -75 27 -101 55 -89 95 -65 269 45 328 47 24 62 25 62 2z m171 -11 c83
-52 116 -178 70 -268 -19 -39 -82 -103 -101 -103 -4 0 -15 -3 -24 -6 -12 -4
-16 0 -16 15 0 13 14 30 41 46 44 29 78 89 79 140 0 47 -40 117 -82 144 -37
24 -52 61 -25 61 7 0 33 -13 58 -29z m-101 -45 c0 -7 11 -21 25 -30 31 -20 34
-56 5 -56 -11 0 -20 4 -20 9 0 16 -40 23 -56 10 -14 -12 -14 -14 2 -26 10 -7
27 -13 39 -13 35 0 65 -28 65 -61 0 -28 -30 -69 -50 -69 -5 0 -10 -9 -10 -20
0 -13 -7 -20 -20 -20 -12 0 -20 7 -20 18 0 9 -14 25 -30 34 -34 20 -42 58 -11
58 10 0 21 -7 25 -15 9 -25 76 -16 76 11 0 8 -16 16 -42 20 -78 13 -104 74
-48 116 17 12 30 28 30 35 0 7 9 13 20 13 11 0 20 -6 20 -14z"/>
<path d="M3660 5144 l0 -99 -78 -34 c-42 -19 -80 -37 -84 -40 -8 -7 144 -101
162 -101 6 0 46 21 90 46 79 46 79 46 66 73 -18 34 -144 242 -151 249 -3 3 -5
-39 -5 -94z"/>
<path d="M2216 5155 c-17 -13 -17 -15 -3 -15 12 0 17 -12 20 -52 3 -50 3 -49
5 15 1 37 1 67 0 67 -2 0 -12 -7 -22 -15z"/>
<path d="M2326 5161 c-4 -5 3 -7 14 -4 14 4 22 -1 29 -18 9 -23 10 -23 10 -3
1 28 -40 47 -53 25z"/>
<path d="M2424 5158 c-4 -6 -3 -8 4 -5 13 9 42 -2 42 -14 0 -5 -10 -13 -22
-18 l-23 -8 23 -7 c12 -4 22 -15 22 -26 0 -20 -25 -34 -43 -24 -9 5 -9 4 -1
-6 15 -15 50 -5 58 17 4 9 -1 24 -10 34 -10 11 -12 19 -6 19 18 0 14 37 -4 44
-23 9 -32 7 -40 -6z"/>
<path d="M2526 5162 c-3 -6 2 -9 12 -8 11 1 17 -6 17 -19 0 -13 -6 -19 -19
-18 -13 1 -15 -2 -7 -10 18 -18 49 18 35 40 -13 21 -30 27 -38 15z"/>
<path d="M4696 5155 c-17 -13 -17 -15 -3 -15 12 0 17 -12 20 -52 3 -50 3 -49
5 15 1 37 1 67 0 67 -2 0 -12 -7 -22 -15z"/>
<path d="M4810 5156 c0 -8 -3 -21 -6 -29 -3 -10 3 -17 20 -21 16 -4 26 -13 26
-25 0 -20 -25 -35 -42 -24 -7 3 -8 1 -4 -5 10 -17 32 -15 50 4 23 22 20 43 -9
56 -30 13 -33 38 -5 38 11 0 20 5 20 10 0 6 -11 10 -25 10 -15 0 -25 -6 -25
-14z"/>
<path d="M4913 5163 c-18 -7 -16 -60 2 -67 8 -3 22 -3 30 0 8 4 15 1 15 -4 0
-18 -32 -43 -47 -38 -8 3 -11 1 -8 -4 3 -6 12 -10 19 -10 42 0 65 99 27 120
-11 5 -21 10 -23 9 -2 0 -9 -3 -15 -6z m37 -18 c10 -12 10 -18 0 -29 -14 -18
-40 -10 -40 13 0 32 20 40 40 16z"/>
<path d="M5006 5162 c-3 -6 2 -9 12 -8 11 1 17 -6 17 -19 0 -13 -6 -19 -19
-18 -13 1 -15 -2 -7 -10 18 -18 49 18 35 40 -13 21 -30 27 -38 15z"/>
<path d="M7146 5154 c-30 -29 -12 -114 24 -114 19 0 40 34 40 65 0 31 -21 65
-40 65 -5 0 -16 -7 -24 -16z m46 -19 c14 -31 0 -80 -22 -80 -22 0 -36 49 -22
80 6 14 16 25 22 25 6 0 16 -11 22 -25z"/>
<path d="M7292 5158 c-7 -7 -12 -31 -12 -54 0 -82 62 -86 68 -5 4 59 -25 90
-56 59z m48 -53 c0 -38 -20 -61 -38 -43 -29 29 -5 111 25 87 7 -7 13 -26 13
-44z"/>
<path d="M7390 5160 c-12 -8 -10 -10 10 -8 36 4 40 -35 6 -58 -14 -9 -26 -25
-26 -35 0 -15 7 -19 36 -19 21 0 33 4 29 10 -3 6 -18 10 -32 10 l-27 0 27 28
c30 31 35 67 11 76 -19 7 -16 8 -34 -4z"/>
<path d="M7486 5162 c-3 -6 2 -9 12 -8 11 1 17 -6 17 -19 0 -13 -6 -19 -19
-18 -13 1 -15 -2 -7 -10 18 -18 49 18 35 40 -13 21 -30 27 -38 15z"/>
<path d="M9656 5155 c-17 -13 -17 -15 -3 -15 12 0 17 -12 20 -52 3 -50 3 -49
5 15 1 37 1 67 0 67 -2 0 -12 -7 -22 -15z"/>
<path d="M9766 5161 c-4 -5 3 -7 14 -4 14 4 22 -1 29 -18 9 -23 10 -23 10 -3
1 28 -40 47 -53 25z"/>
<path d="M9870 5156 c0 -8 -3 -21 -6 -29 -3 -10 3 -17 20 -21 16 -4 26 -13 26
-25 0 -20 -25 -35 -42 -24 -7 3 -8 1 -4 -5 10 -17 32 -15 50 4 23 22 20 43 -9
56 -30 13 -33 38 -5 38 11 0 20 5 20 10 0 6 -11 10 -25 10 -15 0 -25 -6 -25
-14z"/>
<path d="M9966 5162 c-3 -6 2 -9 12 -8 11 1 17 -6 17 -19 0 -13 -6 -19 -19
-18 -13 1 -15 -2 -7 -10 18 -18 49 18 35 40 -13 21 -30 27 -38 15z"/>
<path d="M12136 5154 c-30 -30 -12 -114 24 -114 5 0 17 11 26 25 26 39 6 105
-31 105 -2 0 -11 -7 -19 -16z m42 -44 c4 -49 -9 -70 -33 -50 -17 14 -20 53 -4
81 16 31 34 17 37 -31z"/>
<path d="M12279 5154 c-18 -22 -16 -81 3 -100 12 -13 20 -14 37 -5 16 9 21 21
21 54 0 61 -31 87 -61 51z m51 -49 c0 -34 -22 -61 -40 -50 -15 9 -13 92 3 98
20 7 37 -14 37 -48z"/>
<path d="M12376 5155 c-17 -13 -17 -15 -3 -15 12 0 17 -12 20 -52 3 -50 3 -49
5 15 1 37 1 67 0 67 -2 0 -12 -7 -22 -15z"/>
<path d="M12446 5162 c-3 -6 2 -9 12 -8 11 1 17 -6 17 -19 0 -13 -6 -19 -19
-18 -13 1 -15 -2 -7 -10 18 -18 49 18 35 40 -13 21 -30 27 -38 15z"/>
<path d="M2348 5108 c30 -15 27 -53 -5 -52 -12 0 -20 -3 -17 -8 12 -19 64 7
64 32 0 15 -31 40 -48 39 -13 0 -11 -3 6 -11z"/>
<path d="M9788 5108 c30 -15 27 -53 -5 -52 -12 0 -20 -3 -17 -8 12 -19 64 7
64 32 0 15 -31 40 -48 39 -13 0 -11 -3 6 -11z"/>
<path d="M2594 5096 c-8 -21 -1 -49 14 -52 7 -1 8 0 2 3 -5 2 -10 16 -10 29 0
32 27 31 33 -1 4 -23 4 -23 3 2 -1 31 -32 45 -42 19z"/>
<path d="M5074 5096 c-8 -21 -1 -49 14 -52 7 -1 8 0 2 3 -5 2 -10 16 -10 29 0
32 27 31 33 -1 4 -23 4 -23 3 2 -1 31 -32 45 -42 19z"/>
<path d="M7554 5096 c-8 -21 -1 -49 14 -52 7 -1 8 0 2 3 -5 2 -10 16 -10 29 0
32 27 31 33 -1 4 -23 4 -23 3 2 -1 31 -32 45 -42 19z"/>
<path d="M10034 5096 c-8 -21 -1 -49 14 -52 7 -1 8 0 2 3 -5 2 -10 16 -10 29
0 32 27 31 33 -1 4 -23 4 -23 3 2 -1 31 -32 45 -42 19z"/>
<path d="M12514 5096 c-8 -21 -1 -49 14 -52 7 -1 8 0 2 3 -5 2 -10 16 -10 29
0 32 27 31 33 -1 4 -23 4 -23 3 2 -1 31 -32 45 -42 19z"/>
<path d="M2138 5093 c6 -2 18 -2 25 0 6 3 1 5 -13 5 -14 0 -19 -2 -12 -5z"/>
<path d="M4618 5093 c6 -2 18 -2 25 0 6 3 1 5 -13 5 -14 0 -19 -2 -12 -5z"/>
<path d="M7068 5093 c6 -2 18 -2 25 0 6 3 1 5 -13 5 -14 0 -19 -2 -12 -5z"/>
<path d="M9578 5093 c6 -2 18 -2 25 0 6 3 1 5 -13 5 -14 0 -19 -2 -12 -5z"/>
<path d="M12058 5093 c6 -2 18 -2 25 0 6 3 1 5 -13 5 -14 0 -19 -2 -12 -5z"/>
<path d="M12220 5050 c0 -5 5 -10 10 -10 6 0 10 5 10 10 0 6 -4 10 -10 10 -5
0 -10 -4 -10 -10z"/>
<path d="M3737 4875 l-77 -45 0 -67 c0 -37 4 -63 8 -57 5 5 37 50 72 99 35 50
68 96 73 103 14 18 8 16 -76 -33z"/>
<path d="M3570 4225 c0 -43 4 -75 10 -75 6 0 10 18 10 40 0 33 3 40 20 40 17
0 20 -7 20 -40 0 -22 5 -40 11 -40 6 0 9 19 7 48 -3 44 -5 47 -30 47 -24 -1
-28 3 -28 27 0 15 -4 28 -10 28 -6 0 -10 -32 -10 -75z"/>
<path d="M6140 4225 c0 -77 16 -105 22 -37 2 29 7 37 23 37 16 0 21 -8 23 -37
4 -50 22 -49 22 1 0 44 -19 66 -50 56 -17 -5 -20 -2 -20 24 0 17 -4 31 -10 31
-6 0 -10 -32 -10 -75z"/>
<path d="M910 4220 l0 -70 34 0 c32 0 66 20 66 39 0 5 -7 14 -15 21 -11 9 -12
16 -3 30 17 26 -6 50 -48 50 l-34 0 0 -70z m65 30 c0 -8 -10 -16 -22 -18 -18
-3 -23 2 -23 18 0 16 5 21 23 18 12 -2 22 -10 22 -18z m5 -60 c0 -15 -7 -20
-25 -20 -18 0 -25 5 -25 20 0 15 7 20 25 20 18 0 25 -5 25 -20z"/>
<path d="M1030 4280 c0 -5 5 -10 10 -10 6 0 10 5 10 10 0 6 -4 10 -10 10 -5 0
-10 -4 -10 -10z"/>
<path d="M1370 4280 c0 -5 5 -10 10 -10 6 0 10 5 10 10 0 6 -4 10 -10 10 -5 0
-10 -4 -10 -10z"/>
<path d="M3390 4220 l0 -70 40 0 c22 0 40 5 40 10 0 6 -13 10 -30 10 -23 0
-30 4 -30 20 0 15 7 20 25 20 14 0 25 5 25 10 0 6 -11 10 -25 10 -18 0 -25 5
-25 20 0 16 7 20 30 20 17 0 30 5 30 10 0 6 -18 10 -40 10 l-40 0 0 -70z"/>
<path d="M5860 4280 c0 -5 9 -10 20 -10 18 0 20 -7 20 -60 0 -33 4 -60 10 -60
6 0 10 27 10 60 0 53 2 60 20 60 11 0 20 5 20 10 0 6 -22 10 -50 10 -27 0 -50
-4 -50 -10z"/>
<path d="M8350 4220 l0 -70 34 0 c32 0 66 20 66 39 0 5 -7 14 -15 21 -11 9
-12 16 -3 30 17 26 -6 50 -48 50 l-34 0 0 -70z m65 30 c0 -8 -10 -16 -22 -18
-18 -3 -23 2 -23 18 0 16 5 21 23 18 12 -2 22 -10 22 -18z m5 -60 c0 -15 -7
-20 -25 -20 -18 0 -25 5 -25 20 0 15 7 20 25 20 18 0 25 -5 25 -20z"/>
<path d="M8470 4220 c0 -40 4 -70 10 -70 6 0 10 23 10 50 0 28 4 50 8 50 4 0
21 -22 37 -50 42 -70 55 -65 55 20 0 81 -18 95 -22 18 l-3 -53 -34 53 c-47 73
-61 69 -61 -18z"/>
<path d="M8630 4220 l0 -70 34 0 c63 0 77 57 18 75 -36 10 -46 45 -12 45 13 0
20 -7 20 -20 0 -11 5 -20 10 -20 6 0 10 11 10 24 0 25 -16 36 -56 36 -23 0
-24 -3 -24 -70z m65 -30 c0 -8 -10 -16 -22 -18 -18 -3 -23 2 -23 18 0 16 5 21
23 18 12 -2 22 -10 22 -18z"/>
<path d="M10830 4237 c0 -58 19 -87 57 -87 34 0 53 32 53 88 0 29 -4 52 -10
52 -5 0 -10 -20 -10 -44 0 -56 -8 -76 -29 -76 -29 0 -41 22 -41 72 0 26 -4 48
-10 48 -5 0 -10 -24 -10 -53z"/>
<path d="M10982 4278 c-21 -21 -13 -47 18 -63 40 -21 39 -43 -2 -47 -26 -3
-29 -6 -15 -12 9 -5 28 -5 42 -2 37 9 34 51 -6 71 -36 19 -33 40 5 40 14 -1
25 4 23 10 -5 15 -50 18 -65 3z"/>
<path d="M11080 4220 l0 -70 34 0 c46 0 86 33 86 71 0 42 -31 69 -80 69 l-40
0 0 -70z m90 31 c22 -41 -1 -81 -46 -81 -22 0 -24 4 -24 50 0 49 1 50 30 50
19 0 33 -7 40 -19z"/>
<path d="M11299 4272 c-28 -23 -30 -73 -4 -102 19 -21 69 -27 80 -10 4 6 -6
10 -22 10 -36 0 -53 16 -53 50 0 34 17 50 53 50 16 0 26 4 22 10 -10 16 -51
12 -76 -8z"/>
<path d="M11525 4280 c4 -6 11 -8 16 -5 14 9 11 15 -7 15 -8 0 -12 -5 -9 -10z"/>
<path d="M1094 4265 c-15 -27 -6 -105 13 -112 8 -3 19 -1 26 6 8 8 7 11 -6 11
-23 0 -23 48 1 66 16 12 16 13 0 14 -9 0 -18 8 -20 18 -4 15 -5 15 -14 -3z"/>
<path d="M3504 4265 c-15 -27 -6 -105 13 -112 8 -3 19 -1 26 6 8 8 7 11 -6 11
-23 0 -23 48 1 66 16 12 16 13 0 14 -9 0 -18 8 -20 18 -4 15 -5 15 -14 -3z"/>
<path d="M6080 4266 c0 -8 -6 -17 -12 -20 -10 -5 -10 -7 0 -12 6 -3 12 -21 12
-40 0 -34 22 -56 38 -39 4 4 1 10 -5 12 -7 3 -13 17 -13 33 0 16 6 31 13 34
10 5 10 7 0 12 -7 3 -13 12 -13 20 0 8 -4 14 -10 14 -5 0 -10 -6 -10 -14z"/>
<path d="M1030 4200 c0 -27 5 -50 10 -50 6 0 10 23 10 50 0 28 -4 50 -10 50
-5 0 -10 -22 -10 -50z"/>
<path d="M1166 4234 c-34 -33 -10 -84 38 -84 25 0 19 18 -6 22 -17 2 -23 10
-23 28 0 18 6 26 23 28 12 2 22 8 22 13 0 15 -37 10 -54 -7z"/>
<path d="M1254 4225 c-15 -23 -15 -27 0 -50 27 -42 86 -26 86 23 0 55 -56 72
-86 27z m66 -25 c0 -25 -4 -30 -24 -30 -13 0 -26 7 -30 15 -9 25 4 45 30 45
20 0 24 -5 24 -30z"/>
<path d="M1370 4200 c0 -27 5 -50 10 -50 6 0 10 23 10 50 0 28 -4 50 -10 50
-5 0 -10 -22 -10 -50z"/>
<path d="M1420 4198 c0 -56 17 -65 22 -10 2 29 7 37 23 37 16 0 21 -8 23 -37
4 -50 22 -49 22 1 0 45 -13 58 -57 58 -33 0 -33 -1 -33 -49z"/>
<path d="M3698 4239 c-21 -12 -24 -59 -6 -77 14 -14 54 -16 63 -3 3 5 -7 11
-22 13 -42 5 -41 28 1 28 39 0 45 10 20 34 -18 18 -32 20 -56 5z m47 -19 c4
-6 -5 -10 -19 -10 -14 0 -26 5 -26 10 0 6 9 10 19 10 11 0 23 -4 26 -10z"/>
<path d="M3790 4198 c0 -26 5 -48 10 -48 6 0 10 16 10 36 0 27 5 37 20 41 30
8 24 20 -10 20 -29 0 -30 -2 -30 -49z"/>
<path d="M3872 4238 c-7 -7 -12 -24 -12 -38 0 -14 5 -31 12 -38 15 -15 54 -16
63 -2 4 6 -7 10 -24 10 -21 0 -31 5 -31 15 0 10 10 15 30 15 18 0 30 5 30 13
0 18 -21 37 -40 37 -9 0 -21 -5 -28 -12z m48 -18 c0 -5 -9 -10 -20 -10 -11 0
-20 5 -20 10 0 6 9 10 20 10 11 0 20 -4 20 -10z"/>
<path d="M3972 4203 l3 -48 38 0 37 -1 -1 51 c-1 27 -3 41 -6 30 -2 -11 -6
-30 -9 -42 -3 -15 -12 -23 -24 -23 -17 0 -20 7 -20 40 0 22 -5 40 -11 40 -6 0
-9 -19 -7 -47z"/>
<path d="M4090 4198 c0 -26 5 -48 10 -48 6 0 10 18 10 41 0 33 3 40 18 37 12
-2 18 -14 20 -41 2 -20 7 -37 12 -37 5 0 10 17 12 37 2 27 8 39 21 41 14 3 17
-4 17 -37 0 -23 5 -41 10 -41 6 0 10 20 10 45 0 50 -18 67 -51 47 -10 -7 -20
-8 -24 -2 -3 5 -19 8 -35 8 -29 -1 -30 -3 -30 -50z"/>
<path d="M5972 4238 c-7 -7 -12 -24 -12 -38 0 -14 5 -31 12 -38 15 -15 54 -16
63 -2 4 6 -7 10 -24 10 -21 0 -31 5 -31 15 0 10 10 15 30 15 18 0 30 5 30 13
0 18 -21 37 -40 37 -9 0 -21 -5 -28 -12z m48 -18 c0 -5 -9 -10 -20 -10 -11 0
-20 5 -20 10 0 6 9 10 20 10 11 0 20 -4 20 -10z"/>
<path d="M6266 4234 c-31 -30 -9 -84 34 -84 29 0 33 18 5 22 -37 4 -35 22 3
26 33 3 41 19 20 40 -17 17 -44 15 -62 -4z m54 -14 c0 -5 -12 -10 -26 -10 -14
0 -23 4 -19 10 3 6 15 10 26 10 10 0 19 -4 19 -10z"/>
<path d="M6370 4199 c0 -27 5 -49 10 -49 6 0 10 16 10 35 0 22 6 38 15 41 23
9 18 22 -10 22 -23 0 -25 -4 -25 -49z"/>
<path d="M11416 4237 c-28 -20 -18 -69 16 -81 22 -8 32 -6 48 9 50 45 -9 112
-64 72z m59 -37 c0 -18 -6 -26 -23 -28 -24 -4 -38 18 -28 44 3 9 15 14 28 12
17 -2 23 -10 23 -28z"/>
<path d="M11530 4200 c0 -27 5 -50 10 -50 6 0 10 23 10 50 0 28 -4 50 -10 50
-5 0 -10 -22 -10 -50z"/>
<path d="M11580 4199 c0 -27 5 -49 10 -49 6 0 10 18 10 40 0 33 3 40 20 40 17
0 20 -7 20 -40 0 -22 5 -40 11 -40 6 0 9 19 7 48 -3 47 -3 47 -40 49 l-38 1 0
-49z"/>
<path d="M927 4004 c-21 -28 -21 -38 -2 -54 8 -7 15 -23 15 -36 0 -18 -4 -22
-17 -17 -16 5 -15 3 2 -13 18 -19 20 -19 37 -2 22 22 23 41 3 58 -16 14 -20
56 -6 62 5 2 4 8 -3 14 -9 8 -16 5 -29 -12z m13 -30 c0 -8 -5 -12 -10 -9 -6 4
-8 11 -5 16 9 14 15 11 15 -7z m30 -65 c0 -5 -4 -9 -10 -9 -5 0 -10 7 -10 16
0 8 5 12 10 9 6 -3 10 -10 10 -16z"/>
<path d="M3407 4004 c-21 -28 -21 -38 -2 -54 8 -7 15 -23 15 -36 0 -18 -4 -22
-17 -17 -16 5 -15 3 2 -13 18 -19 20 -19 37 -2 22 22 23 41 3 58 -16 14 -20
56 -6 62 5 2 4 8 -3 14 -9 8 -16 5 -29 -12z m13 -30 c0 -8 -5 -12 -10 -9 -6 4
-8 11 -5 16 9 14 15 11 15 -7z m30 -65 c0 -5 -4 -9 -10 -9 -5 0 -10 7 -10 16
0 8 5 12 10 9 6 -3 10 -10 10 -16z"/>
<path d="M5887 4004 c-21 -28 -21 -38 -2 -54 8 -7 15 -23 15 -36 0 -18 -4 -22
-17 -17 -16 5 -15 3 2 -13 18 -19 20 -19 37 -2 22 22 23 41 3 58 -16 14 -20
56 -6 62 5 2 4 8 -3 14 -9 8 -16 5 -29 -12z m13 -30 c0 -8 -5 -12 -10 -9 -6 4
-8 11 -5 16 9 14 15 11 15 -7z m30 -65 c0 -5 -4 -9 -10 -9 -5 0 -10 7 -10 16
0 8 5 12 10 9 6 -3 10 -10 10 -16z"/>
<path d="M8367 4004 c-21 -28 -21 -38 -2 -54 8 -7 15 -23 15 -36 0 -18 -4 -22
-17 -17 -16 5 -15 3 2 -13 18 -19 20 -19 37 -2 22 22 23 41 3 58 -16 14 -20
56 -6 62 5 2 4 8 -3 14 -9 8 -16 5 -29 -12z m13 -30 c0 -8 -5 -12 -10 -9 -6 4
-8 11 -5 16 9 14 15 11 15 -7z m30 -65 c0 -5 -4 -9 -10 -9 -5 0 -10 7 -10 16
0 8 5 12 10 9 6 -3 10 -10 10 -16z"/>
<path d="M10847 4004 c-21 -28 -21 -38 -2 -54 8 -7 15 -23 15 -36 0 -18 -4
-22 -17 -17 -16 5 -15 3 2 -13 18 -19 20 -19 37 -2 22 22 23 41 3 58 -16 14
-20 56 -6 62 5 2 4 8 -3 14 -9 8 -16 5 -29 -12z m13 -30 c0 -8 -5 -12 -10 -9
-6 4 -8 11 -5 16 9 14 15 11 15 -7z m30 -65 c0 -5 -4 -9 -10 -9 -5 0 -10 7
-10 16 0 8 5 12 10 9 6 -3 10 -10 10 -16z"/>
<path d="M1070 4000 c-12 -8 -10 -10 10 -8 35 4 38 -31 5 -62 -35 -33 -32 -50
10 -50 19 0 35 5 35 10 0 6 -11 10 -25 10 -28 0 -34 15 -10 24 25 9 40 53 25
71 -14 17 -29 19 -50 5z"/>
<path d="M1160 4000 c0 -5 11 -10 25 -10 28 0 29 -3 14 -32 -16 -30 -29 -78
-21 -78 6 0 52 109 52 124 0 3 -16 6 -35 6 -19 0 -35 -4 -35 -10z"/>
<path d="M1265 3999 c-4 -6 -1 -10 6 -8 48 6 50 -10 9 -58 -16 -18 -30 -38
-30 -43 0 -6 18 -10 41 -10 24 0 38 4 34 10 -3 6 -18 10 -32 10 l-27 0 27 28
c30 31 35 67 11 76 -22 9 -32 7 -39 -5z"/>
<path d="M1350 4000 c0 -5 13 -10 29 -10 l30 0 -20 -45 c-11 -25 -18 -51 -16
-58 3 -7 7 -4 12 8 3 11 15 39 26 63 10 23 19 45 19 47 0 3 -18 5 -40 5 -22 0
-40 -4 -40 -10z"/>
<path d="M1450 4000 c0 -5 11 -10 25 -10 14 0 25 -1 25 -3 0 -2 -7 -25 -16
-51 -24 -71 -11 -65 18 9 l25 65 -38 0 c-22 0 -39 -4 -39 -10z"/>
<path d="M1590 4000 c0 -5 11 -10 25 -10 14 0 25 -1 25 -3 0 -2 -7 -25 -16
-51 -24 -71 -11 -65 18 9 l25 65 -38 0 c-22 0 -39 -4 -39 -10z"/>
<path d="M3554 3995 c-11 -8 -14 -15 -6 -15 8 0 12 -17 12 -50 0 -27 5 -50 10
-50 6 0 10 28 10 65 0 36 -1 65 -3 65 -2 0 -12 -7 -23 -15z"/>
<path d="M3610 4000 c0 -5 11 -10 25 -10 14 0 25 -1 25 -3 0 -2 -7 -25 -16
-51 -24 -71 -11 -65 18 9 l25 65 -38 0 c-22 0 -39 -4 -39 -10z"/>
<path d="M3719 3994 c-19 -23 -16 -81 4 -101 26 -27 51 -6 55 46 5 62 -28 92
-59 55z m51 -49 c0 -38 -20 -61 -38 -43 -29 29 -5 111 25 87 7 -7 13 -26 13
-44z"/>
<path d="M3820 3998 c0 -7 -3 -24 -7 -37 -4 -16 -3 -22 5 -18 16 11 42 -3 42
-23 0 -19 -25 -34 -41 -24 -5 3 -9 0 -9 -5 0 -15 33 -14 54 2 23 17 17 49 -12
62 -27 12 -29 35 -2 35 11 0 20 5 20 10 0 6 -11 10 -25 10 -14 0 -25 -6 -25
-12z"/>
<path d="M3966 3994 c-19 -18 -21 -85 -4 -102 42 -42 90 39 58 99 -13 23 -33
24 -54 3z m44 -49 c0 -48 -22 -68 -40 -35 -20 37 -3 94 25 84 10 -4 15 -20 15
-49z"/>
<path d="M4050 4000 c0 -5 11 -10 25 -10 14 0 25 -1 25 -3 0 -2 -7 -25 -16
-51 -24 -71 -11 -65 18 9 l25 65 -38 0 c-22 0 -39 -4 -39 -10z"/>
<path d="M6034 3995 c-11 -8 -14 -15 -6 -15 8 0 12 -17 12 -50 0 -27 5 -50 10
-50 6 0 10 28 10 65 0 36 -1 65 -3 65 -2 0 -12 -7 -23 -15z"/>
<path d="M6146 3994 c-30 -29 -12 -114 24 -114 19 0 40 33 40 61 0 60 -31 86
-64 53z m54 -49 c0 -28 -24 -60 -38 -51 -16 10 -15 93 1 99 16 6 37 -21 37
-48z"/>
<path d="M6246 3994 c-30 -29 -12 -114 24 -114 19 0 40 33 40 61 0 60 -31 86
-64 53z m54 -49 c0 -28 -24 -60 -38 -51 -16 10 -15 93 1 99 16 6 37 -21 37
-48z"/>
<path d="M6346 3994 c-30 -29 -12 -114 24 -114 19 0 40 33 40 61 0 60 -31 86
-64 53z m54 -49 c0 -28 -24 -60 -38 -51 -16 10 -15 93 1 99 16 6 37 -21 37
-48z"/>
<path d="M6448 3996 c-22 -16 -23 -27 -4 -20 12 4 16 -6 19 -48 3 -51 3 -50 5
15 1 37 1 67 0 67 -2 0 -11 -7 -20 -14z"/>
<path d="M6523 3998 c-25 -12 -32 -31 -8 -22 12 5 15 -4 15 -45 0 -28 5 -51
10 -51 6 0 10 28 10 65 0 36 -1 65 -2 64 -2 0 -13 -5 -25 -11z"/>
<path d="M8510 4000 c-12 -8 -10 -10 10 -8 35 4 38 -31 5 -62 -35 -33 -32 -50
10 -50 19 0 35 5 35 10 0 6 -11 10 -25 10 -28 0 -34 15 -10 24 25 9 40 53 25
71 -14 17 -29 19 -50 5z"/>
<path d="M8610 4000 c-12 -8 -10 -10 10 -8 35 4 38 -31 5 -62 -35 -33 -32 -50
10 -50 19 0 35 5 35 10 0 6 -11 10 -25 10 -28 0 -34 15 -10 24 25 9 40 53 25
71 -14 17 -29 19 -50 5z"/>
<path d="M8705 4000 c-4 -6 -1 -11 6 -9 43 5 54 -16 17 -30 l-23 -8 23 -7 c12
-4 22 -15 22 -26 0 -20 -25 -34 -43 -24 -8 5 -8 3 0 -6 10 -11 18 -11 38 -2
24 11 33 40 18 56 -4 4 -7 19 -8 34 0 20 -6 28 -22 30 -11 2 -24 -2 -28 -8z"/>
<path d="M8868 3969 c-34 -49 -35 -59 -3 -59 16 0 25 -6 25 -15 0 -8 5 -15 10
-15 6 0 10 6 10 14 0 8 6 17 13 20 10 5 10 7 0 12 -7 3 -13 23 -13 45 0 21 -3
39 -7 39 -5 -1 -20 -19 -35 -41z m22 -14 c0 -19 -5 -25 -20 -25 -20 0 -20 1
-3 25 22 30 23 30 23 0z"/>
<path d="M8954 3999 c-4 -7 -3 -9 4 -6 13 9 42 -2 42 -14 0 -5 -10 -13 -22
-18 l-23 -8 23 -7 c12 -4 22 -15 22 -26 0 -20 -26 -34 -42 -23 -7 3 -8 1 -4
-5 4 -7 13 -12 21 -12 15 0 45 27 45 40 0 5 -7 16 -16 24 -9 10 -11 16 -4 16
6 0 10 10 8 23 -3 25 -41 36 -54 16z"/>
<path d="M9063 3998 c-25 -12 -32 -31 -8 -22 12 5 15 -4 15 -45 0 -28 5 -51
10 -51 6 0 10 28 10 65 0 36 -1 65 -2 64 -2 0 -13 -5 -25 -11z"/>
<path d="M10994 3995 c-11 -8 -14 -15 -6 -15 8 0 12 -17 12 -50 0 -27 5 -50
10 -50 6 0 10 28 10 65 0 36 -1 65 -3 65 -2 0 -12 -7 -23 -15z"/>
<path d="M11106 3994 c-30 -29 -12 -114 24 -114 19 0 40 33 40 61 0 60 -31 86
-64 53z m54 -49 c0 -28 -24 -60 -38 -51 -16 10 -15 93 1 99 16 6 37 -21 37
-48z"/>
<path d="M11206 3994 c-30 -29 -12 -114 24 -114 19 0 40 33 40 61 0 60 -31 86
-64 53z m54 -49 c0 -28 -24 -60 -38 -51 -16 10 -15 93 1 99 16 6 37 -21 37
-48z"/>
<path d="M11306 3994 c-30 -29 -12 -114 24 -114 19 0 40 33 40 61 0 60 -31 86
-64 53z m54 -49 c0 -28 -24 -60 -38 -51 -16 10 -15 93 1 99 16 6 37 -21 37
-48z"/>
<path d="M11406 3994 c-30 -29 -12 -114 24 -114 19 0 40 33 40 61 0 60 -31 86
-64 53z m54 -49 c0 -28 -24 -60 -38 -51 -16 10 -15 93 1 99 16 6 37 -21 37
-48z"/>
<path d="M11511 4001 c-8 -5 -12 -18 -8 -30 3 -12 1 -24 -4 -27 -18 -11 -9
-45 16 -56 19 -8 28 -8 40 2 17 14 20 46 5 55 -8 5 -7 11 1 21 9 11 9 17 -1
29 -14 17 -29 19 -49 6z m37 -24 c2 -10 -3 -17 -12 -17 -18 0 -29 16 -21 31 9
14 29 6 33 -14z m2 -43 c11 -12 11 -18 -2 -31 -19 -18 -38 -10 -38 16 0 33 20
40 40 15z"/>
<path d="M1550 3890 c0 -5 5 -10 10 -10 6 0 10 5 10 10 0 6 -4 10 -10 10 -5 0
-10 -4 -10 -10z"/>
<path d="M6090 3890 c0 -5 5 -10 10 -10 6 0 10 5 10 10 0 6 -4 10 -10 10 -5 0
-10 -4 -10 -10z"/>
<path d="M8800 3890 c0 -5 5 -10 10 -10 6 0 10 5 10 10 0 6 -4 10 -10 10 -5 0
-10 -4 -10 -10z"/>
<path d="M11050 3890 c0 -5 5 -10 10 -10 6 0 10 5 10 10 0 6 -4 10 -10 10 -5
0 -10 -4 -10 -10z"/>
<path d="M913 3374 c-4 -10 0 -20 10 -26 22 -12 22 -25 0 -31 -17 -4 -17 -5 0
-6 24 -1 34 29 14 41 -22 12 -22 25 1 31 16 4 16 5 -1 6 -10 0 -20 -6 -24 -15z"/>
<path d="M986 3382 c-3 -6 2 -8 13 -5 10 3 22 0 25 -6 5 -7 -4 -11 -23 -11
-34 0 -38 -7 -18 -34 8 -11 21 -16 33 -13 17 4 17 5 -2 6 -12 0 -24 8 -28 16
-4 11 2 15 25 15 24 0 30 4 27 18 -4 19 -42 29 -52 14z"/>
<path d="M1071 3376 c-21 -25 -10 -61 19 -63 25 -3 25 -3 3 7 -31 13 -29 30 3
30 19 0 25 5 22 17 -4 23 -31 28 -47 9z m39 -6 c0 -5 -9 -10 -21 -10 -11 0
-17 5 -14 10 3 6 13 10 21 10 8 0 14 -4 14 -10z"/>
<path d="M1191 3346 l2 -41 6 35 c4 22 12 35 21 35 9 0 17 -13 21 -35 l6 -35
4 35 c2 23 9 35 19 35 9 0 18 -13 22 -35 l6 -35 -1 40 -2 40 -52 1 -53 1 1
-41z"/>
<path d="M1330 3371 c-25 -47 36 -83 64 -38 8 12 8 22 0 35 -16 25 -51 27 -64
3z m55 -21 c0 -18 -6 -26 -21 -28 -23 -3 -37 18 -27 44 10 25 48 13 48 -16z"/>
<path d="M1421 3345 c2 -33 3 -35 6 -10 2 17 11 35 20 42 13 10 13 12 -6 10
-18 -1 -21 -7 -20 -42z"/>
<path d="M1486 3382 c-3 -6 2 -8 13 -5 10 3 22 0 25 -6 5 -7 -4 -11 -23 -11
-34 0 -38 -7 -18 -34 8 -11 21 -16 33 -13 17 4 17 5 -2 6 -12 0 -24 8 -28 16
-4 11 2 15 25 15 24 0 30 4 27 18 -4 19 -42 29 -52 14z"/>
<path d="M3393 3374 c-4 -10 0 -20 10 -26 22 -12 22 -25 0 -31 -17 -4 -17 -5
0 -6 24 -1 34 29 14 41 -22 12 -22 25 1 31 16 4 16 5 -1 6 -10 0 -20 -6 -24
-15z"/>
<path d="M3466 3382 c-3 -6 2 -8 13 -5 10 3 22 0 25 -6 5 -7 -4 -11 -23 -11
-34 0 -38 -7 -18 -34 8 -11 21 -16 33 -13 17 4 17 5 -2 6 -12 0 -24 8 -28 16
-4 11 2 15 25 15 24 0 30 4 27 18 -4 19 -42 29 -52 14z"/>
<path d="M3551 3376 c-21 -25 -10 -61 19 -63 25 -3 25 -3 3 7 -31 13 -29 30 3
30 19 0 25 5 22 17 -4 23 -31 28 -47 9z m39 -6 c0 -5 -9 -10 -21 -10 -11 0
-17 5 -14 10 3 6 13 10 21 10 8 0 14 -4 14 -10z"/>
<path d="M3671 3346 l2 -41 6 35 c4 22 12 35 21 35 9 0 17 -13 21 -35 l6 -35
4 35 c2 23 9 35 19 35 9 0 18 -13 22 -35 l6 -35 -1 40 -2 40 -52 1 -53 1 1
-41z"/>
<path d="M3810 3371 c-25 -47 36 -83 64 -38 8 12 8 22 0 35 -16 25 -51 27 -64
3z m55 -21 c0 -18 -6 -26 -21 -28 -23 -3 -37 18 -27 44 10 25 48 13 48 -16z"/>
<path d="M3901 3345 c2 -33 3 -35 6 -10 2 17 11 35 20 42 13 10 13 12 -6 10
-18 -1 -21 -7 -20 -42z"/>
<path d="M3966 3382 c-3 -6 2 -8 13 -5 10 3 22 0 25 -6 5 -7 -4 -11 -23 -11
-34 0 -38 -7 -18 -34 8 -11 21 -16 33 -13 17 4 17 5 -2 6 -12 0 -24 8 -28 16
-4 11 2 15 25 15 24 0 30 4 27 18 -4 19 -42 29 -52 14z"/>
<path d="M5873 3374 c-4 -10 0 -20 10 -26 22 -12 22 -25 0 -31 -17 -4 -17 -5
0 -6 24 -1 34 29 14 41 -22 12 -22 25 1 31 16 4 16 5 -1 6 -10 0 -20 -6 -24
-15z"/>
<path d="M5946 3382 c-3 -6 2 -8 13 -5 10 3 22 0 25 -6 5 -7 -4 -11 -23 -11
-34 0 -38 -7 -18 -34 8 -11 21 -16 33 -13 17 4 17 5 -2 6 -12 0 -24 8 -28 16
-4 11 2 15 25 15 24 0 30 4 27 18 -4 19 -42 29 -52 14z"/>
<path d="M6031 3376 c-21 -25 -10 -61 19 -63 25 -3 25 -3 3 7 -31 13 -29 30 3
30 19 0 25 5 22 17 -4 23 -31 28 -47 9z m39 -6 c0 -5 -9 -10 -21 -10 -11 0
-17 5 -14 10 3 6 13 10 21 10 8 0 14 -4 14 -10z"/>
<path d="M6151 3346 l2 -41 6 35 c4 22 12 35 21 35 9 0 17 -13 21 -35 l6 -35
4 35 c2 23 9 35 19 35 9 0 18 -13 22 -35 l6 -35 -1 40 -2 40 -52 1 -53 1 1
-41z"/>
<path d="M6290 3371 c-25 -47 36 -83 64 -38 8 12 8 22 0 35 -16 25 -51 27 -64
3z m55 -21 c0 -29 -38 -41 -48 -16 -10 26 4 47 27 44 15 -2 21 -10 21 -28z"/>
<path d="M6381 3345 c2 -33 3 -35 6 -10 2 17 11 35 20 42 13 10 13 12 -6 10
-18 -1 -21 -7 -20 -42z"/>
<path d="M6446 3382 c-3 -6 2 -8 13 -5 10 3 22 0 25 -6 5 -7 -4 -11 -23 -11
-34 0 -38 -7 -18 -34 8 -11 21 -16 33 -13 17 4 17 5 -2 6 -12 0 -24 8 -28 16
-4 11 2 15 25 15 24 0 30 4 27 18 -4 19 -42 29 -52 14z"/>
<path d="M8353 3374 c-4 -10 0 -20 10 -26 22 -12 22 -25 0 -31 -17 -4 -17 -5
0 -6 24 -1 34 29 14 41 -22 12 -22 25 1 31 16 4 16 5 -1 6 -10 0 -20 -6 -24
-15z"/>
<path d="M8426 3382 c-3 -6 2 -8 13 -5 10 3 22 0 25 -6 5 -7 -4 -11 -23 -11
-34 0 -38 -7 -18 -34 8 -11 21 -16 33 -13 17 4 17 5 -2 6 -12 0 -24 8 -28 16
-4 11 2 15 25 15 24 0 30 4 27 18 -4 19 -42 29 -52 14z"/>
<path d="M8511 3376 c-21 -25 -10 -61 19 -63 25 -3 25 -3 3 7 -31 13 -29 30 3
30 19 0 25 5 22 17 -4 23 -31 28 -47 9z m39 -6 c0 -5 -9 -10 -21 -10 -11 0
-17 5 -14 10 3 6 13 10 21 10 8 0 14 -4 14 -10z"/>
<path d="M8631 3346 l2 -41 6 35 c4 22 12 35 21 35 9 0 17 -13 21 -35 l6 -35
4 35 c2 23 9 35 19 35 9 0 18 -13 22 -35 l6 -35 -1 40 -2 40 -52 1 -53 1 1
-41z"/>
<path d="M8770 3371 c-25 -47 36 -83 64 -38 8 12 8 22 0 35 -16 25 -51 27 -64
3z m55 -21 c0 -29 -38 -41 -48 -16 -10 26 4 47 27 44 15 -2 21 -10 21 -28z"/>
<path d="M8861 3345 c2 -33 3 -35 6 -10 2 17 11 35 20 42 13 10 13 12 -6 10
-18 -1 -21 -7 -20 -42z"/>
<path d="M8926 3382 c-3 -6 2 -8 13 -5 10 3 22 0 25 -6 5 -7 -4 -11 -23 -11
-34 0 -38 -7 -18 -34 8 -11 21 -16 33 -13 17 4 17 5 -2 6 -12 0 -24 8 -28 16
-4 11 2 15 25 15 24 0 30 4 27 18 -4 19 -42 29 -52 14z"/>
<path d="M10833 3374 c-4 -10 0 -20 10 -26 22 -12 22 -25 0 -31 -17 -4 -17 -5
0 -6 24 -1 34 29 14 41 -22 12 -22 25 1 31 16 4 16 5 -1 6 -10 0 -20 -6 -24
-15z"/>
<path d="M10906 3382 c-3 -6 2 -8 13 -5 10 3 22 0 25 -6 5 -7 -4 -11 -23 -11
-34 0 -38 -7 -18 -34 8 -11 21 -16 33 -13 17 4 17 5 -2 6 -12 0 -24 8 -28 16
-4 11 2 15 25 15 24 0 30 4 27 18 -4 19 -42 29 -52 14z"/>
<path d="M10991 3376 c-21 -25 -10 -61 19 -63 25 -3 25 -3 3 7 -31 13 -29 30
3 30 19 0 25 5 22 17 -4 23 -31 28 -47 9z m39 -6 c0 -5 -9 -10 -21 -10 -11 0
-17 5 -14 10 3 6 13 10 21 10 8 0 14 -4 14 -10z"/>
<path d="M11111 3346 l2 -41 6 35 c4 22 12 35 21 35 9 0 17 -13 21 -35 l6 -35
4 35 c2 23 9 35 19 35 9 0 18 -13 22 -35 l6 -35 -1 40 -2 40 -52 1 -53 1 1
-41z"/>
<path d="M11250 3371 c-25 -47 36 -83 64 -38 8 12 8 22 0 35 -16 25 -51 27
-64 3z m55 -21 c0 -18 -6 -26 -21 -28 -23 -3 -37 18 -27 44 10 25 48 13 48
-16z"/>
<path d="M11341 3345 c2 -33 3 -35 6 -10 2 17 11 35 20 42 13 10 13 12 -6 10
-18 -1 -21 -7 -20 -42z"/>
<path d="M11406 3382 c-3 -6 2 -8 13 -5 10 3 22 0 25 -6 5 -7 -4 -11 -23 -11
-34 0 -38 -7 -18 -34 8 -11 21 -16 33 -13 17 4 17 5 -2 6 -12 0 -24 8 -28 16
-4 11 2 15 25 15 24 0 30 4 27 18 -4 19 -42 29 -52 14z"/>
<path d="M1058 3293 c89 -2 235 -2 325 0 89 1 16 3 -163 3 -179 0 -252 -2
-162 -3z"/>
<path d="M3538 3293 c89 -2 235 -2 325 0 89 1 16 3 -163 3 -179 0 -252 -2
-162 -3z"/>
<path d="M6018 3293 c89 -2 235 -2 325 0 89 1 16 3 -163 3 -179 0 -252 -2
-162 -3z"/>
<path d="M8498 3293 c89 -2 235 -2 325 0 89 1 16 3 -163 3 -179 0 -252 -2
-162 -3z"/>
<path d="M10978 3293 c89 -2 235 -2 325 0 89 1 16 3 -163 3 -179 0 -252 -2
-162 -3z"/>
<path d="M1086 2434 c-70 -22 -149 -103 -170 -174 -9 -30 -16 -70 -16 -90 0
-150 130 -280 280 -280 150 0 280 130 280 280 0 152 -132 282 -284 279 -23 0
-63 -7 -90 -15z m15 -159 c33 -32 67 -55 79 -55 12 0 46 23 79 55 37 35 66 55
82 55 21 0 15 -9 -48 -71 -65 -66 -74 -72 -113 -72 -39 0 -48 6 -113 72 -63
62 -69 71 -48 71 16 0 45 -20 82 -55z m194 -195 c61 -61 67 -70 46 -70 -16 0
-45 20 -82 55 -33 32 -67 55 -79 55 -12 0 -46 -23 -79 -55 -37 -35 -66 -55
-82 -55 -21 0 -16 8 41 66 36 36 74 70 85 75 41 18 78 0 150 -71z"/>
<path d="M3605 2441 c-219 -57 -293 -317 -133 -467 56 -54 115 -78 188 -78
105 0 195 58 248 159 67 129 6 293 -134 363 -47 24 -125 34 -169 23z m67 -86
c0 -5 -5 -11 -11 -13 -6 -2 -11 4 -11 13 0 9 5 15 11 13 6 -2 11 -8 11 -13z
m-102 -10 c0 -8 -4 -15 -10 -15 -5 0 -10 7 -10 15 0 8 5 15 10 15 6 0 10 -7
10 -15z m201 -8 c-13 -13 -26 -3 -16 12 3 6 11 8 17 5 6 -4 6 -10 -1 -17z
m-161 -37 c0 -5 -5 -12 -11 -16 -14 -8 -33 11 -25 25 7 11 36 4 36 -9z m140
-6 c0 -8 -7 -14 -15 -14 -15 0 -21 21 -9 33 10 9 24 -2 24 -19z m-72 -11 c-2
-10 -10 -18 -18 -18 -8 0 -16 8 -18 18 -2 12 3 17 18 17 15 0 20 -5 18 -17z
m-160 -21 c2 -7 -3 -12 -12 -12 -9 0 -16 7 -16 16 0 17 22 14 28 -4z m314 3
c0 -5 -5 -11 -11 -13 -6 -2 -11 4 -11 13 0 9 5 15 11 13 6 -2 11 -8 11 -13z
m-182 -20 c14 -17 7 -45 -13 -45 -22 0 -18 -58 5 -63 22 -6 24 -30 3 -47 -23
-19 -48 -4 -43 25 4 19 1 25 -12 25 -10 0 -21 7 -24 16 -7 19 10 44 30 44 8 0
11 6 8 15 -15 37 21 60 46 30z m68 -2 c5 -10 7 -23 5 -29 -2 -6 5 -14 17 -17
27 -7 27 -47 -1 -54 -11 -3 -18 -11 -15 -18 7 -20 -19 -49 -38 -42 -22 9 -22
57 2 57 12 0 17 8 17 30 0 22 -5 30 -17 30 -12 0 -18 8 -18 23 0 40 32 52 48
20z m-140 -16 c2 -10 -3 -17 -12 -17 -18 0 -29 16 -21 31 9 14 29 6 33 -14z
m200 0 c2 -12 -3 -17 -17 -17 -12 0 -21 6 -21 13 0 31 32 34 38 4z m-250 -54
c-4 -22 -22 -20 -26 1 -2 10 3 16 13 16 10 0 15 -7 13 -17z m298 6 c10 -17
-13 -36 -27 -22 -12 12 -4 33 11 33 5 0 12 -5 16 -11z m-356 -9 c0 -5 -4 -10
-10 -10 -5 0 -10 5 -10 10 0 6 5 10 10 10 6 0 10 -4 10 -10z m400 0 c0 -5 -4
-10 -10 -10 -5 0 -10 5 -10 10 0 6 5 10 10 10 6 0 10 -4 10 -10z m-290 -54 c0
-8 -5 -18 -11 -22 -14 -8 -33 11 -25 25 10 16 36 13 36 -3z m198 -3 c-2 -10
-10 -18 -18 -18 -8 0 -16 8 -18 18 -2 12 3 17 18 17 15 0 20 -5 18 -17z m-260
-35 c-6 -18 -28 -21 -28 -4 0 9 7 16 16 16 9 0 14 -5 12 -12z m314 -3 c0 -5
-5 -11 -11 -13 -6 -2 -11 4 -11 13 0 9 5 15 11 13 6 -2 11 -8 11 -13z m-154
-18 c2 -12 -3 -17 -17 -17 -12 0 -21 6 -21 13 0 31 32 34 38 4z m-72 -8 c8
-14 -18 -31 -30 -19 -9 9 0 30 14 30 5 0 12 -5 16 -11z m142 -6 c-4 -22 -22
-20 -26 1 -2 10 3 16 13 16 10 0 15 -7 13 -17z m-178 -48 c0 -8 -4 -15 -10
-15 -5 0 -10 7 -10 15 0 8 5 15 10 15 6 0 10 -7 10 -15z m201 2 c-1 -12 -15
-9 -19 4 -3 6 1 10 8 8 6 -3 11 -8 11 -12z m-99 -12 c0 -5 -5 -11 -11 -13 -6
-2 -11 4 -11 13 0 9 5 15 11 13 6 -2 11 -8 11 -13z"/>
<path d="M10840 2437 c0 -18 33 -104 106 -277 31 -74 68 -166 82 -204 l26 -70
42 50 c125 146 264 320 264 330 0 6 -24 33 -52 61 -49 45 -59 50 -128 62 -112
19 -292 52 -317 58 -16 4 -23 1 -23 -10z m238 -61 c68 -14 126 -26 128 -29 3
-2 -20 -25 -50 -51 l-55 -47 -85 68 c-47 37 -85 71 -85 76 -1 11 13 9 147 -17z
m-82 -73 c79 -66 92 -82 89 -103 -2 -14 -9 -69 -16 -123 -6 -54 -13 -96 -14
-95 -8 8 -163 398 -158 398 3 0 47 -35 99 -77z m291 3 c15 -13 26 -26 23 -29
-9 -9 -161 -34 -158 -27 5 12 89 80 98 80 5 0 22 -11 37 -24z m13 -72 c0 -3
-44 -59 -97 -123 -54 -64 -99 -118 -100 -120 -2 -2 -6 -2 -9 1 -5 6 16 209 22
217 5 5 130 28 162 30 12 0 22 -2 22 -5z"/>
<path d="M6093 2433 c9 -2 23 -2 30 0 6 3 -1 5 -18 5 -16 0 -22 -2 -12 -5z"/>
<path d="M6163 2433 c9 -2 23 -2 30 0 6 3 -1 5 -18 5 -16 0 -22 -2 -12 -5z"/>
<path d="M5944 2358 l-29 -33 33 29 c17 17 32 31 32 33 0 8 -8 1 -36 -29z"/>
<path d="M6300 2387 c0 -2 15 -16 33 -33 l32 -29 -29 33 c-28 30 -36 37 -36
29z"/>
<path d="M6261 2370 c-1 -8 -10 -21 -21 -28 -18 -11 -19 -14 -6 -27 30 -30 49
-5 35 45 -4 14 -7 18 -8 10z"/>
<path d="M2185 2360 c-3 -5 0 -7 8 -4 8 3 20 -2 27 -11 11 -14 9 -21 -18 -48
-41 -43 -41 -57 3 -57 19 0 35 5 35 10 0 6 -12 10 -27 10 l-27 0 27 28 c15 15
27 35 27 43 0 30 -41 52 -55 29z"/>
<path d="M2338 2329 c-35 -50 -35 -59 2 -59 22 0 30 -5 30 -17 0 -13 4 -11 13
7 7 14 9 27 5 28 -4 2 -8 21 -8 43 0 21 -3 39 -7 39 -5 -1 -20 -19 -35 -41z
m32 -14 c0 -20 -5 -25 -25 -25 -26 0 -26 0 -8 25 23 31 33 31 33 0z"/>
<path d="M2430 2355 c-9 -11 -10 -18 -1 -29 8 -10 9 -16 1 -21 -30 -19 4 -72
40 -60 22 7 28 49 9 61 -8 4 -7 9 2 15 11 6 11 13 3 26 -15 24 -38 27 -54 8z
m50 -15 c0 -14 -20 -22 -37 -16 -12 5 -13 9 -3 21 11 14 40 10 40 -5z m-5 -60
c0 -16 -6 -26 -18 -28 -19 -4 -32 20 -23 44 9 25 41 13 41 -16z"/>
<path d="M2526 2362 c-3 -6 2 -9 12 -8 11 1 17 -6 17 -19 0 -13 -6 -19 -19
-18 -13 1 -15 -2 -7 -10 18 -18 49 18 35 40 -13 21 -30 27 -38 15z"/>
<path d="M4665 2360 c-3 -5 0 -7 8 -4 8 3 20 -2 27 -10 10 -13 9 -17 -11 -24
l-24 -9 23 -7 c25 -8 30 -41 7 -50 -8 -3 -23 -3 -32 1 -14 5 -15 3 -7 -6 28
-30 79 13 57 48 -8 13 -9 21 -1 29 8 8 8 15 -2 27 -14 17 -36 20 -45 5z"/>
<path d="M4817 2352 c-37 -41 -10 -131 31 -105 22 13 28 53 10 64 -21 14 -35
10 -15 -5 20 -16 22 -42 4 -49 -23 -9 -35 7 -35 46 0 30 5 40 27 52 16 9 20
14 10 15 -9 0 -23 -8 -32 -18z"/>
<path d="M4910 2360 c-12 -8 -10 -10 10 -8 35 4 38 -31 5 -62 -35 -33 -32 -50
10 -50 19 0 35 5 35 10 0 6 -15 10 -32 10 l-32 0 32 29 c34 32 39 50 20 69
-14 14 -28 15 -48 2z"/>
<path d="M5006 2362 c-3 -6 2 -9 12 -8 11 1 17 -6 17 -19 0 -13 -6 -19 -19
-18 -13 1 -15 -2 -7 -10 18 -18 49 18 35 40 -13 21 -30 27 -38 15z"/>
<path d="M7280 2360 c0 -5 11 -10 25 -10 29 0 30 -5 9 -55 -8 -20 -13 -42 -11
-48 2 -6 11 11 21 39 32 90 32 84 -8 84 -20 0 -36 -4 -36 -10z"/>
<path d="M7390 2360 c-12 -8 -10 -10 10 -8 36 4 40 -35 6 -58 -14 -9 -26 -25
-26 -35 0 -15 7 -19 36 -19 21 0 33 4 29 10 -3 6 -18 10 -32 10 l-27 0 27 28
c30 31 35 67 11 76 -19 7 -16 8 -34 -4z"/>
<path d="M7486 2362 c-3 -6 2 -9 12 -8 11 1 17 -6 17 -19 0 -13 -6 -19 -19
-18 -13 1 -15 -2 -7 -10 18 -18 49 18 35 40 -13 21 -30 27 -38 15z"/>
<path d="M9633 2327 c-18 -25 -33 -48 -33 -51 0 -3 14 -6 30 -6 22 0 30 -5 31
-17 0 -14 2 -15 6 -3 3 8 11 18 17 23 8 5 8 9 -1 15 -6 4 -13 25 -15 46 l-3
39 -32 -46z m27 -12 c0 -18 -5 -25 -20 -25 -20 0 -20 1 -4 25 9 14 18 25 20
25 2 0 4 -11 4 -25z"/>
<path d="M9777 2352 c-37 -41 -10 -131 31 -105 22 13 28 53 10 64 -21 14 -35
10 -15 -5 20 -16 22 -42 4 -49 -23 -9 -35 7 -35 46 0 30 5 40 27 52 16 9 20
14 10 15 -9 0 -23 -8 -32 -18z"/>
<path d="M9864 2358 c-4 -6 -3 -8 4 -5 13 9 42 -2 42 -14 0 -5 -10 -13 -22
-18 l-23 -8 23 -7 c12 -4 22 -15 22 -26 0 -20 -25 -34 -43 -24 -9 5 -9 4 -1
-6 15 -15 50 -5 58 17 4 9 -1 24 -10 34 -10 11 -12 19 -6 19 18 0 14 37 -4 44
-23 9 -32 7 -40 -6z"/>
<path d="M9966 2362 c-3 -6 2 -9 12 -8 11 1 17 -6 17 -19 0 -13 -6 -19 -19
-18 -13 1 -15 -2 -7 -10 18 -18 49 18 35 40 -13 21 -30 27 -38 15z"/>
<path d="M12166 2355 c-11 -8 -14 -15 -8 -15 8 0 12 -18 12 -50 0 -27 5 -50
10 -50 6 0 10 28 10 65 0 36 -1 65 -2 65 -2 0 -12 -7 -22 -15z"/>
<path d="M12278 2359 c-21 -12 -23 -40 -6 -57 21 -21 32 -13 13 8 -17 19 -17
22 -3 36 23 23 37 9 36 -36 0 -40 -19 -67 -38 -55 -5 3 -10 1 -10 -4 0 -18 29
-12 50 9 24 24 26 72 4 94 -18 19 -23 19 -46 5z"/>
<path d="M12446 2362 c-3 -6 2 -9 12 -8 11 1 17 -6 17 -19 0 -13 -6 -19 -19
-18 -13 1 -15 -2 -7 -10 18 -18 49 18 35 40 -13 21 -30 27 -38 15z"/>
<path d="M7173 2353 c-7 -2 -13 -9 -13 -14 0 -4 7 -6 14 -3 12 4 16 -6 19 -48
l3 -53 2 63 c2 61 0 66 -25 55z"/>
<path d="M12373 2353 c-7 -2 -13 -9 -13 -14 0 -4 7 -6 14 -3 12 4 16 -6 19
-48 l3 -53 2 63 c2 61 0 66 -25 55z"/>
<path d="M2594 2296 c-8 -21 -1 -49 14 -52 7 -1 8 0 2 3 -5 2 -10 16 -10 29 0
32 27 31 33 -1 4 -23 4 -23 3 2 -1 31 -32 45 -42 19z"/>
<path d="M5074 2296 c-8 -21 -1 -49 14 -52 7 -1 8 0 2 3 -5 2 -10 16 -10 29 0
32 27 31 33 -1 4 -23 4 -23 3 2 -1 31 -32 45 -42 19z"/>
<path d="M7554 2296 c-8 -21 -1 -49 14 -52 7 -1 8 0 2 3 -5 2 -10 16 -10 29 0
32 27 31 33 -1 4 -23 4 -23 3 2 -1 31 -32 45 -42 19z"/>
<path d="M10034 2296 c-8 -21 -1 -49 14 -52 7 -1 8 0 2 3 -5 2 -10 16 -10 29
0 32 27 31 33 -1 4 -23 4 -23 3 2 -1 31 -32 45 -42 19z"/>
<path d="M12514 2296 c-8 -21 -1 -49 14 -52 7 -1 8 0 2 3 -5 2 -10 16 -10 29
0 32 27 31 33 -1 4 -23 4 -23 3 2 -1 31 -32 45 -42 19z"/>
<path d="M2108 2293 c6 -2 18 -2 25 0 6 3 1 5 -13 5 -14 0 -19 -2 -12 -5z"/>
<path d="M4588 2293 c6 -2 18 -2 25 0 6 3 1 5 -13 5 -14 0 -19 -2 -12 -5z"/>
<path d="M7108 2293 c6 -2 18 -2 25 0 6 3 1 5 -13 5 -14 0 -19 -2 -12 -5z"/>
<path d="M9548 2293 c6 -2 18 -2 25 0 6 3 1 5 -13 5 -14 0 -19 -2 -12 -5z"/>
<path d="M12088 2293 c6 -2 18 -2 25 0 6 3 1 5 -13 5 -14 0 -19 -2 -12 -5z"/>
<path d="M2270 2250 c0 -5 5 -10 10 -10 6 0 10 5 10 10 0 6 -4 10 -10 10 -5 0
-10 -4 -10 -10z"/>
<path d="M12220 2250 c0 -5 5 -10 10 -10 6 0 10 5 10 10 0 6 -4 10 -10 10 -5
0 -10 -4 -10 -10z"/>
<path d="M6137 2243 c-12 -11 -8 -23 8 -23 8 0 15 7 15 15 0 16 -12 20 -23 8z"/>
<path d="M5872 2205 c0 -16 2 -22 5 -12 2 9 2 23 0 30 -3 6 -5 -1 -5 -18z"/>
<path d="M6402 2205 c0 -16 2 -22 5 -12 2 9 2 23 0 30 -3 6 -5 -1 -5 -18z"/>
<path d="M8392 2170 c37 -43 48 -50 78 -49 85 2 85 11 -3 57 -112 58 -130 56
-75 -8z"/>
<path d="M5997 2204 c-12 -13 -8 -59 8 -80 13 -16 16 -17 25 -4 15 22 8 84
-10 88 -9 1 -19 0 -23 -4z"/>
<path d="M5872 2135 c0 -16 2 -22 5 -12 2 9 2 23 0 30 -3 6 -5 -1 -5 -18z"/>
<path d="M6402 2135 c0 -16 2 -22 5 -12 2 9 2 23 0 30 -3 6 -5 -1 -5 -18z"/>
<path d="M8395 2010 c-27 -27 -46 -52 -42 -56 3 -4 109 -3 234 2 190 8 228 11
230 24 2 10 -18 25 -54 42 -51 24 -74 28 -188 32 l-131 6 -49 -50z"/>
<path d="M5920 2006 c0 -2 8 -10 18 -17 15 -13 16 -12 3 4 -13 16 -21 21 -21
13z"/>
<path d="M6329 1983 l-24 -28 28 24 c15 14 27 26 27 28 0 8 -8 1 -31 -24z"/>
<path d="M3760 1469 c0 -26 -3 -29 -20 -24 -12 4 -27 1 -35 -5 -15 -13 -21
-79 -7 -81 4 -1 24 -3 45 -4 l37 -2 0 73 c0 43 -4 74 -10 74 -5 0 -10 -14 -10
-31z m-5 -69 c0 -16 -6 -26 -19 -28 -23 -5 -35 13 -28 40 7 30 47 20 47 -12z"/>
<path d="M8580 1425 c0 -43 4 -75 10 -75 6 0 10 32 10 75 0 43 -4 75 -10 75
-6 0 -10 -32 -10 -75z"/>
<path d="M910 1484 c0 -3 7 -19 17 -34 15 -27 15 -30 -5 -64 -15 -25 -17 -36
-8 -36 7 0 18 11 24 25 6 14 15 25 20 25 5 0 14 -11 20 -25 6 -14 16 -25 22
-25 15 0 13 8 -11 41 l-20 29 20 29 c24 33 26 41 11 41 -6 0 -16 -11 -22 -25
-6 -14 -14 -25 -18 -25 -4 0 -12 11 -18 25 -10 22 -32 35 -32 19z"/>
<path d="M1040 1421 c0 -41 4 -71 10 -71 6 0 10 14 10 30 0 18 5 30 13 30 7 0
21 -13 30 -30 10 -16 22 -30 28 -30 14 0 11 12 -11 40 -17 23 -18 26 -2 43 23
26 4 51 -42 55 l-36 3 0 -70z m65 29 c0 -8 -10 -16 -22 -18 -18 -3 -23 2 -23
18 0 16 5 21 23 18 12 -2 22 -10 22 -18z"/>
<path d="M1160 1420 c0 -40 4 -70 10 -70 6 0 10 10 10 23 0 17 8 25 33 32 60
18 45 85 -19 85 l-34 0 0 -70z m65 25 c0 -13 -8 -21 -22 -23 -19 -3 -23 1 -23
23 0 22 4 26 23 23 14 -2 22 -10 22 -23z"/>
<path d="M3413 1475 c-33 -23 -32 -88 1 -111 27 -17 67 -16 73 2 2 7 -6 10
-22 7 -33 -7 -55 12 -55 47 0 35 22 54 55 47 16 -3 24 0 22 7 -6 18 -50 18
-74 1z"/>
<path d="M5870 1420 l0 -70 34 0 c46 0 86 33 86 71 0 42 -31 69 -80 69 l-40 0
0 -70z m90 31 c22 -41 -1 -81 -46 -81 -22 0 -24 4 -24 50 0 49 1 50 30 50 19
0 33 -7 40 -19z"/>
<path d="M6575 1480 c4 -6 11 -8 16 -5 14 9 11 15 -7 15 -8 0 -12 -5 -9 -10z"/>
<path d="M8362 1478 c-21 -21 -13 -47 18 -63 40 -21 39 -43 -2 -47 -26 -3 -29
-6 -15 -12 9 -5 28 -5 42 -2 37 9 34 51 -6 71 -36 19 -33 40 5 40 14 -1 25 4
23 10 -5 15 -50 18 -65 3z"/>
<path d="M10820 1480 c0 -5 9 -10 20 -10 18 0 20 -7 20 -60 0 -33 4 -60 10
-60 6 0 10 27 10 60 0 53 2 60 20 60 11 0 20 5 20 10 0 6 -22 10 -50 10 -27 0
-50 -4 -50 -10z"/>
<path d="M10940 1420 c0 -40 4 -70 10 -70 6 0 10 14 10 30 0 40 25 40 48 0 9
-16 22 -30 29 -30 8 0 5 12 -8 34 -13 22 -16 37 -9 41 16 10 12 52 -6 59 -9 3
-29 6 -45 6 l-29 0 0 -70z m70 30 c0 -15 -7 -20 -25 -20 -18 0 -25 5 -25 20 0
15 7 20 25 20 18 0 25 -5 25 -20z"/>
<path d="M11080 1470 c-41 -41 -12 -120 45 -120 14 0 34 9 45 20 41 41 12 120
-45 120 -14 0 -34 -9 -45 -20z m82 -25 c8 -19 8 -31 0 -50 -19 -42 -82 -28
-82 18 0 56 60 80 82 32z"/>
<path d="M11220 1420 c0 -81 18 -95 22 -18 l3 53 34 -53 c47 -73 61 -69 61 18
0 40 -4 70 -10 70 -5 0 -10 -22 -10 -50 0 -27 -3 -50 -7 -50 -5 0 -21 23 -38
50 -41 71 -55 66 -55 -20z"/>
<path d="M3525 1440 c-4 -6 5 -10 19 -10 35 0 33 -13 -5 -27 -45 -17 -36 -48
14 -49 l37 -1 0 42 c0 30 -5 45 -16 49 -23 9 -42 7 -49 -4z m45 -55 c0 -8 -9
-15 -20 -15 -25 0 -26 17 -2 23 9 3 18 5 20 6 1 0 2 -6 2 -14z"/>
<path d="M3620 1398 c0 -26 5 -48 10 -48 6 0 10 16 10 36 0 27 5 37 20 41 30
8 24 20 -10 20 -29 0 -30 -2 -30 -49z"/>
<path d="M3825 1440 c-4 -6 5 -10 19 -10 36 0 33 -17 -5 -25 -24 -5 -29 -11
-27 -28 2 -18 10 -22 41 -23 36 -1 37 0 37 35 0 21 -5 42 -12 49 -15 15 -45
16 -53 2z m45 -61 c0 -5 -9 -9 -20 -9 -22 0 -27 16 -7 23 15 5 27 -1 27 -14z"/>
<path d="M3920 1399 c0 -27 5 -49 10 -49 6 0 10 18 10 40 0 33 3 40 20 40 17
0 20 -7 20 -40 0 -22 5 -40 11 -40 6 0 9 19 7 48 -3 47 -3 47 -40 49 l-38 1 0
-49z"/>
<path d="M4046 1437 c-28 -20 -18 -69 16 -81 22 -8 32 -6 48 9 50 45 -9 112
-64 72z m59 -37 c0 -18 -6 -26 -23 -28 -24 -4 -38 18 -28 44 3 9 15 14 28 12
17 -2 23 -10 23 -28z"/>
<path d="M6026 1437 c-28 -20 -18 -69 16 -81 22 -8 32 -6 48 9 50 45 -9 112
-64 72z m59 -37 c0 -18 -6 -26 -23 -28 -13 -2 -25 3 -28 12 -10 26 4 48 28 44
17 -2 23 -10 23 -28z"/>
<path d="M6142 1438 c-17 -17 -15 -63 3 -78 8 -6 23 -9 35 -5 18 6 21 3 18
-12 -2 -11 -13 -19 -31 -21 -31 -4 -37 -22 -6 -22 47 0 59 17 59 84 l0 63 -33
1 c-19 1 -39 -4 -45 -10z m58 -38 c0 -23 -4 -30 -20 -30 -11 0 -23 7 -26 15
-9 23 3 45 26 45 16 0 20 -7 20 -30z"/>
<path d="M6268 1439 c-21 -12 -24 -59 -6 -77 14 -14 54 -16 63 -3 3 5 -7 11
-22 13 -42 5 -41 28 1 28 39 0 45 10 20 34 -18 18 -32 20 -56 5z m47 -19 c4
-6 -5 -10 -19 -10 -14 0 -26 5 -26 10 0 6 9 10 19 10 11 0 23 -4 26 -10z"/>
<path d="M6376 1437 c-12 -9 -17 -23 -14 -41 4 -35 28 -52 54 -41 17 8 17 9
-6 13 -14 2 -28 9 -32 15 -10 17 10 47 32 47 11 0 20 5 20 10 0 14 -33 12 -54
-3z"/>
<path d="M6466 1437 c-28 -20 -18 -69 16 -81 22 -8 32 -6 48 9 50 45 -9 112
-64 72z m59 -37 c0 -18 -6 -26 -23 -28 -13 -2 -25 3 -28 12 -10 26 4 48 28 44
17 -2 23 -10 23 -28z"/>
<path d="M6580 1400 c0 -27 5 -50 10 -50 6 0 10 23 10 50 0 28 -4 50 -10 50
-5 0 -10 -22 -10 -50z"/>
<path d="M6630 1399 c0 -27 5 -49 10 -49 6 0 10 18 10 40 0 33 3 40 20 40 17
0 20 -7 20 -40 0 -22 5 -40 11 -40 6 0 9 19 7 48 -3 47 -3 47 -40 49 l-38 1 0
-49z"/>
<path d="M8472 1438 c-7 -7 -12 -24 -12 -38 0 -31 17 -50 45 -50 28 0 45 19
45 50 0 31 -17 50 -45 50 -12 0 -26 -5 -33 -12z m62 -23 c9 -24 -4 -45 -29
-45 -25 0 -34 15 -27 43 5 21 48 23 56 2z"/>
<path d="M8640 1440 c-12 -8 -9 -10 12 -10 39 0 44 -17 8 -25 -25 -5 -30 -11
-28 -28 2 -18 10 -22 41 -23 35 -1 37 1 37 28 0 57 -31 83 -70 58z m45 -61
c-4 -5 -16 -9 -28 -9 -21 1 -21 1 -3 15 20 15 41 11 31 -6z"/>
<path d="M8740 1399 c0 -27 5 -49 10 -49 6 0 10 18 10 40 0 33 3 40 20 40 17
0 20 -7 20 -40 0 -22 5 -40 11 -40 6 0 9 19 7 48 -3 47 -3 47 -40 49 l-38 1 0
-49z"/>
<path d="M8865 1440 c-4 -6 5 -10 19 -10 36 0 33 -17 -5 -25 -24 -5 -29 -11
-27 -28 2 -18 10 -22 41 -23 36 -1 37 0 37 35 0 21 -5 42 -12 49 -15 15 -45
16 -53 2z m45 -61 c0 -5 -9 -9 -20 -9 -22 0 -27 16 -7 23 15 5 27 -1 27 -14z"/>
<path d="M927 1204 c-21 -28 -21 -38 -2 -54 8 -7 15 -23 15 -36 0 -18 -4 -22
-17 -17 -16 5 -15 3 2 -13 18 -19 20 -19 37 -2 22 22 23 41 3 58 -16 14 -20
56 -6 62 5 2 4 8 -3 14 -9 8 -16 5 -29 -12z m13 -30 c0 -8 -5 -12 -10 -9 -6 4
-8 11 -5 16 9 14 15 11 15 -7z m30 -65 c0 -5 -4 -9 -10 -9 -5 0 -10 7 -10 16
0 8 5 12 10 9 6 -3 10 -10 10 -16z"/>
<path d="M3407 1204 c-21 -28 -21 -38 -2 -54 8 -7 15 -23 15 -36 0 -18 -4 -22
-17 -17 -16 5 -15 3 2 -13 18 -19 20 -19 37 -2 22 22 23 41 3 58 -16 14 -20
56 -6 62 5 2 4 8 -3 14 -9 8 -16 5 -29 -12z m13 -30 c0 -8 -5 -12 -10 -9 -6 4
-8 11 -5 16 9 14 15 11 15 -7z m30 -65 c0 -5 -4 -9 -10 -9 -5 0 -10 7 -10 16
0 8 5 12 10 9 6 -3 10 -10 10 -16z"/>
<path d="M5887 1204 c-21 -28 -21 -38 -2 -54 8 -7 15 -23 15 -36 0 -18 -4 -22
-17 -17 -16 5 -15 3 2 -13 18 -19 20 -19 37 -2 22 22 23 41 3 58 -16 14 -20
56 -6 62 5 2 4 8 -3 14 -9 8 -16 5 -29 -12z m13 -30 c0 -8 -5 -12 -10 -9 -6 4
-8 11 -5 16 9 14 15 11 15 -7z m30 -65 c0 -5 -4 -9 -10 -9 -5 0 -10 7 -10 16
0 8 5 12 10 9 6 -3 10 -10 10 -16z"/>
<path d="M8367 1204 c-21 -28 -21 -38 -2 -54 8 -7 15 -23 15 -36 0 -18 -4 -22
-17 -17 -16 5 -15 3 2 -13 18 -19 20 -19 37 -2 22 22 23 41 3 58 -16 14 -20
56 -6 62 5 2 4 8 -3 14 -9 8 -16 5 -29 -12z m13 -30 c0 -8 -5 -12 -10 -9 -6 4
-8 11 -5 16 9 14 15 11 15 -7z m30 -65 c0 -5 -4 -9 -10 -9 -5 0 -10 7 -10 16
0 8 5 12 10 9 6 -3 10 -10 10 -16z"/>
<path d="M10847 1204 c-21 -28 -21 -38 -2 -54 8 -7 15 -23 15 -36 0 -18 -4
-22 -17 -17 -16 5 -15 3 2 -13 18 -19 20 -19 37 -2 22 22 23 41 3 58 -16 14
-20 56 -6 62 5 2 4 8 -3 14 -9 8 -16 5 -29 -12z m13 -30 c0 -8 -5 -12 -10 -9
-6 4 -8 11 -5 16 9 14 15 11 15 -7z m30 -65 c0 -5 -4 -9 -10 -9 -5 0 -10 7
-10 16 0 8 5 12 10 9 6 -3 10 -10 10 -16z"/>
<path d="M1072 1198 c-18 -18 -15 -93 4 -109 36 -29 76 38 52 88 -15 31 -37
40 -56 21z m48 -53 c0 -38 -20 -61 -38 -43 -29 29 -5 111 25 87 7 -7 13 -26
13 -44z"/>
<path d="M1210 1182 c0 -21 7 -32 25 -40 14 -6 25 -16 25 -21 0 -14 -28 -33
-40 -26 -5 3 -10 1 -10 -4 0 -6 8 -11 18 -11 45 0 60 65 17 76 -14 3 -25 12
-25 20 0 8 10 14 25 14 14 0 25 5 25 10 0 6 -13 10 -30 10 -26 0 -30 -4 -30
-28z"/>
<path d="M1314 1198 c-5 -7 -2 -9 9 -5 8 3 21 -1 28 -9 10 -12 6 -21 -19 -47
-41 -43 -41 -57 3 -57 19 0 35 5 35 10 0 6 -12 10 -27 10 l-27 0 27 28 c30 31
35 67 11 76 -23 9 -32 7 -40 -6z"/>
<path d="M1400 1200 c0 -5 11 -10 25 -10 14 0 25 -1 25 -3 0 -2 -7 -25 -16
-51 -24 -71 -11 -65 18 9 l25 65 -38 0 c-22 0 -39 -4 -39 -10z"/>
<path d="M1517 1192 c-21 -23 -22 -85 -2 -102 8 -6 23 -9 34 -5 44 14 30 82
-15 71 -13 -4 -24 -2 -24 3 0 17 32 42 46 37 8 -3 14 -1 14 4 0 17 -36 11 -53
-8z m43 -72 c0 -24 -25 -33 -40 -14 -10 11 -10 17 0 28 15 19 40 10 40 -14z"/>
<path d="M1610 1200 c-12 -8 -10 -10 10 -8 35 4 38 -31 5 -62 -35 -33 -32 -50
10 -50 19 0 35 5 35 10 0 6 -11 10 -25 10 -28 0 -34 15 -10 24 25 9 40 53 25
71 -14 17 -29 19 -50 5z"/>
<path d="M3552 1198 c-18 -18 -15 -93 4 -109 36 -29 76 38 52 88 -15 31 -37
40 -56 21z m48 -53 c0 -38 -20 -61 -38 -43 -29 29 -5 111 25 87 7 -7 13 -26
13 -44z"/>
<path d="M3694 1198 c-5 -7 -2 -9 9 -5 8 3 21 -1 28 -9 10 -12 6 -21 -19 -47
-41 -43 -41 -57 3 -57 19 0 35 5 35 10 0 6 -12 10 -27 10 l-27 0 27 28 c30 31
35 67 11 76 -23 9 -32 7 -40 -6z"/>
<path d="M3800 1190 c-24 -24 -26 -73 -4 -95 20 -19 43 -16 58 8 15 23 -4 52
-33 51 -11 0 -21 5 -21 12 0 15 34 36 44 27 3 -3 6 -1 6 5 0 19 -28 14 -50 -8z
m36 -55 c4 -8 4 -22 0 -30 -7 -19 -36 -8 -36 14 0 32 26 43 36 16z"/>
<path d="M3890 1182 c0 -21 7 -32 25 -40 14 -6 25 -16 25 -21 0 -14 -28 -33
-40 -26 -5 3 -10 1 -10 -4 0 -6 8 -11 18 -11 45 0 60 65 17 76 -14 3 -25 12
-25 20 0 8 10 14 25 14 14 0 25 5 25 10 0 6 -13 10 -30 10 -26 0 -30 -4 -30
-28z"/>
<path d="M3996 1195 c-17 -13 -17 -15 -3 -15 12 0 17 -12 20 -52 3 -50 3 -49
5 15 1 37 1 67 0 67 -2 0 -12 -7 -22 -15z"/>
<path d="M4078 1169 c-35 -50 -35 -59 2 -59 22 0 30 -5 31 -17 0 -14 2 -15 6
-3 3 8 11 19 17 23 8 6 7 10 -1 14 -8 2 -13 22 -13 44 0 21 -3 39 -7 39 -5 -1
-20 -19 -35 -41z m32 -14 c0 -18 -5 -25 -20 -25 -24 0 -25 8 -3 32 21 23 23
23 23 -7z"/>
<path d="M6032 1198 c-18 -18 -15 -93 4 -109 36 -29 76 38 52 88 -15 31 -37
40 -56 21z m48 -53 c0 -38 -20 -61 -38 -43 -29 29 -5 111 25 87 7 -7 13 -26
13 -44z"/>
<path d="M6176 1194 c-19 -18 -21 -85 -4 -102 42 -42 90 39 58 99 -13 23 -33
24 -54 3z m44 -49 c0 -48 -22 -68 -40 -35 -20 37 -3 94 25 84 10 -4 15 -20 15
-49z"/>
<path d="M6280 1190 c-24 -24 -26 -73 -4 -95 20 -19 43 -16 58 8 15 23 -4 52
-33 51 -11 0 -21 5 -21 12 0 15 34 36 44 27 3 -3 6 -1 6 5 0 19 -28 14 -50 -8z
m36 -55 c4 -8 4 -22 0 -30 -7 -19 -36 -8 -36 14 0 32 26 43 36 16z"/>
<path d="M6370 1182 c0 -21 7 -32 25 -40 14 -6 25 -16 25 -21 0 -14 -28 -33
-40 -26 -5 3 -10 1 -10 -4 0 -6 8 -11 18 -11 45 0 60 65 17 76 -14 3 -25 12
-25 20 0 8 10 14 25 14 14 0 25 5 25 10 0 6 -13 10 -30 10 -26 0 -30 -4 -30
-28z"/>
<path d="M6480 1190 c-24 -24 -26 -73 -4 -95 20 -19 43 -16 58 8 15 23 -4 52
-33 51 -11 0 -21 5 -21 12 0 15 34 36 44 27 3 -3 6 -1 6 5 0 19 -28 14 -50 -8z
m36 -55 c4 -8 4 -22 0 -30 -7 -19 -36 -8 -36 14 0 32 26 43 36 16z"/>
<path d="M6576 1195 c-17 -13 -17 -15 -3 -15 12 0 17 -12 20 -52 3 -50 3 -49
5 15 1 37 1 67 0 67 -2 0 -12 -7 -22 -15z"/>
<path d="M8510 1200 c-12 -8 -10 -10 10 -8 35 4 38 -31 5 -62 -35 -33 -32 -50
10 -50 19 0 35 5 35 10 0 6 -11 10 -25 10 -28 0 -34 15 -10 24 25 9 40 53 25
71 -14 17 -29 19 -50 5z"/>
<path d="M8612 1198 c-18 -18 -15 -93 4 -109 36 -29 76 38 52 88 -15 31 -37
40 -56 21z m48 -53 c0 -38 -20 -61 -38 -43 -29 29 -5 111 25 87 7 -7 13 -26
13 -44z"/>
<path d="M8754 1197 c-3 -8 -4 -21 -3 -28 1 -8 -2 -22 -6 -33 -11 -25 7 -51
35 -51 28 0 46 26 35 51 -4 11 -8 30 -9 44 -1 29 -42 42 -52 17z m44 -20 c2
-12 -3 -17 -17 -17 -12 0 -21 6 -21 13 0 31 32 34 38 4z m0 -51 c6 -29 -15
-43 -35 -24 -14 14 -14 20 -3 33 16 19 34 15 38 -9z"/>
<path d="M8856 1194 c-19 -18 -21 -85 -4 -102 42 -42 90 39 58 99 -13 23 -33
24 -54 3z m44 -49 c0 -48 -22 -68 -40 -35 -20 37 -3 94 25 84 10 -4 15 -20 15
-49z"/>
<path d="M8960 1190 c-24 -24 -26 -73 -4 -95 20 -19 43 -16 58 8 15 23 -4 52
-33 51 -11 0 -21 5 -21 12 0 15 34 36 44 27 3 -3 6 -1 6 5 0 19 -28 14 -50 -8z
m36 -55 c4 -8 4 -22 0 -30 -7 -19 -36 -8 -36 14 0 32 26 43 36 16z"/>
<path d="M9052 1198 c-26 -26 0 -77 33 -64 22 8 19 -21 -4 -33 -10 -6 -21 -7
-25 -4 -3 3 -6 1 -6 -5 0 -19 28 -14 50 8 24 24 26 72 4 94 -19 19 -36 20 -52
4z m48 -28 c0 -24 -25 -33 -40 -14 -10 11 -10 17 0 28 15 19 40 10 40 -14z"/>
<path d="M10992 1198 c-18 -18 -15 -93 4 -109 36 -29 76 38 52 88 -15 31 -37
40 -56 21z m48 -53 c0 -38 -20 -61 -38 -43 -29 29 -5 111 25 87 7 -7 13 -26
13 -44z"/>
<path d="M11136 1194 c-19 -18 -21 -85 -4 -102 42 -42 90 39 58 99 -13 23 -33
24 -54 3z m44 -49 c0 -48 -22 -68 -40 -35 -20 37 -3 94 25 84 10 -4 15 -20 15
-49z"/>
<path d="M11220 1200 c0 -5 11 -10 25 -10 14 0 25 -1 25 -3 0 -2 -7 -25 -16
-51 -24 -71 -11 -65 18 9 l25 65 -38 0 c-22 0 -39 -4 -39 -10z"/>
<path d="M11330 1182 c0 -21 7 -32 25 -40 14 -6 25 -16 25 -21 0 -14 -32 -29
-49 -23 -8 3 -11 0 -7 -7 10 -16 41 -14 56 4 17 20 9 48 -18 60 -27 12 -29 35
-3 35 11 0 23 5 26 10 4 6 -7 10 -24 10 -27 0 -31 -3 -31 -28z"/>
<path d="M11420 1200 c0 -5 11 -10 25 -10 28 0 29 -3 14 -32 -16 -30 -29 -78
-21 -78 6 0 52 109 52 124 0 3 -16 6 -35 6 -19 0 -35 -4 -35 -10z"/>
<path d="M11510 1200 c0 -5 13 -10 29 -10 l30 0 -20 -45 c-11 -25 -18 -51 -16
-58 3 -7 7 -4 12 8 3 11 15 39 26 63 10 23 19 45 19 47 0 3 -18 5 -40 5 -22 0
-40 -4 -40 -10z"/>
<path d="M1160 1090 c0 -5 5 -10 10 -10 6 0 10 5 10 10 0 6 -4 10 -10 10 -5 0
-10 -4 -10 -10z"/>
<path d="M3640 1090 c0 -5 5 -10 10 -10 6 0 10 5 10 10 0 6 -4 10 -10 10 -5 0
-10 -4 -10 -10z"/>
<path d="M6120 1090 c0 -5 5 -10 10 -10 6 0 10 5 10 10 0 6 -4 10 -10 10 -5 0
-10 -4 -10 -10z"/>
<path d="M8700 1090 c0 -5 5 -10 10 -10 6 0 10 5 10 10 0 6 -4 10 -10 10 -5 0
-10 -4 -10 -10z"/>
<path d="M11080 1090 c0 -5 5 -10 10 -10 6 0 10 5 10 10 0 6 -4 10 -10 10 -5
0 -10 -4 -10 -10z"/>
<path d="M913 574 c-4 -10 0 -20 10 -26 22 -12 22 -25 0 -31 -17 -4 -17 -5 0
-6 24 -1 34 29 14 41 -22 12 -22 25 1 31 16 4 16 5 -1 6 -10 0 -20 -6 -24 -15z"/>
<path d="M986 582 c-3 -6 2 -8 13 -5 10 3 22 0 25 -6 5 -7 -4 -11 -23 -11 -34
0 -38 -7 -18 -34 8 -11 21 -16 33 -13 17 4 17 5 -2 6 -12 0 -24 8 -28 16 -4
11 2 15 25 15 24 0 30 4 27 18 -4 19 -42 29 -52 14z"/>
<path d="M1071 576 c-21 -25 -10 -61 19 -63 25 -3 25 -3 3 7 -31 13 -29 30 3
30 19 0 25 5 22 17 -4 23 -31 28 -47 9z m39 -6 c0 -5 -9 -10 -21 -10 -11 0
-17 5 -14 10 3 6 13 10 21 10 8 0 14 -4 14 -10z"/>
<path d="M1191 546 l2 -41 6 35 c4 22 12 35 21 35 9 0 17 -13 21 -35 l6 -35 4
35 c2 23 9 35 19 35 9 0 18 -13 22 -35 l6 -35 -1 40 -2 40 -52 1 -53 1 1 -41z"/>
<path d="M1330 571 c-25 -47 36 -83 64 -38 8 12 8 22 0 35 -16 25 -51 27 -64
3z m55 -21 c0 -18 -6 -26 -21 -28 -23 -3 -37 18 -27 44 10 25 48 13 48 -16z"/>
<path d="M1421 545 c2 -33 3 -35 6 -10 2 17 11 35 20 42 13 10 13 12 -6 10
-18 -1 -21 -7 -20 -42z"/>
<path d="M1486 582 c-3 -6 2 -8 13 -5 10 3 22 0 25 -6 5 -7 -4 -11 -23 -11
-34 0 -38 -7 -18 -34 8 -11 21 -16 33 -13 17 4 17 5 -2 6 -12 0 -24 8 -28 16
-4 11 2 15 25 15 24 0 30 4 27 18 -4 19 -42 29 -52 14z"/>
<path d="M3393 574 c-4 -10 0 -20 10 -26 22 -12 22 -25 0 -31 -17 -4 -17 -5 0
-6 24 -1 34 29 14 41 -22 12 -22 25 1 31 16 4 16 5 -1 6 -10 0 -20 -6 -24 -15z"/>
<path d="M3466 582 c-3 -6 2 -8 13 -5 10 3 22 0 25 -6 5 -7 -4 -11 -23 -11
-34 0 -38 -7 -18 -34 8 -11 21 -16 33 -13 17 4 17 5 -2 6 -12 0 -24 8 -28 16
-4 11 2 15 25 15 24 0 30 4 27 18 -4 19 -42 29 -52 14z"/>
<path d="M3551 576 c-21 -25 -10 -61 19 -63 25 -3 25 -3 3 7 -31 13 -29 30 3
30 19 0 25 5 22 17 -4 23 -31 28 -47 9z m39 -6 c0 -5 -9 -10 -21 -10 -11 0
-17 5 -14 10 3 6 13 10 21 10 8 0 14 -4 14 -10z"/>
<path d="M3671 546 l2 -41 6 35 c4 22 12 35 21 35 9 0 17 -13 21 -35 l6 -35 4
35 c2 23 9 35 19 35 9 0 18 -13 22 -35 l6 -35 -1 40 -2 40 -52 1 -53 1 1 -41z"/>
<path d="M3810 571 c-25 -47 36 -83 64 -38 8 12 8 22 0 35 -16 25 -51 27 -64
3z m55 -21 c0 -29 -38 -41 -48 -16 -10 26 4 47 27 44 15 -2 21 -10 21 -28z"/>
<path d="M3901 545 c2 -33 3 -35 6 -10 2 17 11 35 20 42 13 10 13 12 -6 10
-18 -1 -21 -7 -20 -42z"/>
<path d="M3966 582 c-3 -6 2 -8 13 -5 10 3 22 0 25 -6 5 -7 -4 -11 -23 -11
-34 0 -38 -7 -18 -34 8 -11 21 -16 33 -13 17 4 17 5 -2 6 -12 0 -24 8 -28 16
-4 11 2 15 25 15 24 0 30 4 27 18 -4 19 -42 29 -52 14z"/>
<path d="M5873 574 c-4 -10 0 -20 10 -26 22 -12 22 -25 0 -31 -17 -4 -17 -5 0
-6 24 -1 34 29 14 41 -22 12 -22 25 1 31 16 4 16 5 -1 6 -10 0 -20 -6 -24 -15z"/>
<path d="M5946 582 c-3 -6 2 -8 13 -5 10 3 22 0 25 -6 5 -7 -4 -11 -23 -11
-34 0 -38 -7 -18 -34 8 -11 21 -16 33 -13 17 4 17 5 -2 6 -12 0 -24 8 -28 16
-4 11 2 15 25 15 24 0 30 4 27 18 -4 19 -42 29 -52 14z"/>
<path d="M6031 576 c-21 -25 -10 -61 19 -63 25 -3 25 -3 3 7 -31 13 -29 30 3
30 19 0 25 5 22 17 -4 23 -31 28 -47 9z m39 -6 c0 -5 -9 -10 -21 -10 -11 0
-17 5 -14 10 3 6 13 10 21 10 8 0 14 -4 14 -10z"/>
<path d="M6151 546 l2 -41 6 35 c4 22 12 35 21 35 9 0 17 -13 21 -35 l6 -35 4
35 c2 23 9 35 19 35 9 0 18 -13 22 -35 l6 -35 -1 40 -2 40 -52 1 -53 1 1 -41z"/>
<path d="M6290 571 c-25 -47 36 -83 64 -38 8 12 8 22 0 35 -16 25 -51 27 -64
3z m55 -21 c0 -29 -38 -41 -48 -16 -10 26 4 47 27 44 15 -2 21 -10 21 -28z"/>
<path d="M6381 545 c2 -33 3 -35 6 -10 2 17 11 35 20 42 13 10 13 12 -6 10
-18 -1 -21 -7 -20 -42z"/>
<path d="M6446 582 c-3 -6 2 -8 13 -5 10 3 22 0 25 -6 5 -7 -4 -11 -23 -11
-34 0 -38 -7 -18 -34 8 -11 21 -16 33 -13 17 4 17 5 -2 6 -12 0 -24 8 -28 16
-4 11 2 15 25 15 24 0 30 4 27 18 -4 19 -42 29 -52 14z"/>
<path d="M8353 574 c-4 -10 0 -20 10 -26 22 -12 22 -25 0 -31 -17 -4 -17 -5 0
-6 24 -1 34 29 14 41 -22 12 -22 25 1 31 16 4 16 5 -1 6 -10 0 -20 -6 -24 -15z"/>
<path d="M8426 582 c-3 -6 2 -8 13 -5 10 3 22 0 25 -6 5 -7 -4 -11 -23 -11
-34 0 -38 -7 -18 -34 8 -11 21 -16 33 -13 17 4 17 5 -2 6 -12 0 -24 8 -28 16
-4 11 2 15 25 15 24 0 30 4 27 18 -4 19 -42 29 -52 14z"/>
<path d="M8511 576 c-21 -25 -10 -61 19 -63 25 -3 25 -3 3 7 -31 13 -29 30 3
30 19 0 25 5 22 17 -4 23 -31 28 -47 9z m39 -6 c0 -5 -9 -10 -21 -10 -11 0
-17 5 -14 10 3 6 13 10 21 10 8 0 14 -4 14 -10z"/>
<path d="M8631 546 l2 -41 6 35 c4 22 12 35 21 35 9 0 17 -13 21 -35 l6 -35 4
35 c2 23 9 35 19 35 9 0 18 -13 22 -35 l6 -35 -1 40 -2 40 -52 1 -53 1 1 -41z"/>
<path d="M8770 571 c-25 -47 36 -83 64 -38 8 12 8 22 0 35 -16 25 -51 27 -64
3z m55 -21 c0 -29 -38 -41 -48 -16 -10 26 4 47 27 44 15 -2 21 -10 21 -28z"/>
<path d="M8861 545 c2 -33 3 -35 6 -10 2 17 11 35 20 42 13 10 13 12 -6 10
-18 -1 -21 -7 -20 -42z"/>
<path d="M8926 582 c-3 -6 2 -8 13 -5 10 3 22 0 25 -6 5 -7 -4 -11 -23 -11
-34 0 -38 -7 -18 -34 8 -11 21 -16 33 -13 17 4 17 5 -2 6 -12 0 -24 8 -28 16
-4 11 2 15 25 15 24 0 30 4 27 18 -4 19 -42 29 -52 14z"/>
<path d="M10833 574 c-4 -10 0 -20 10 -26 22 -12 22 -25 0 -31 -17 -4 -17 -5
0 -6 24 -1 34 29 14 41 -22 12 -22 25 1 31 16 4 16 5 -1 6 -10 0 -20 -6 -24
-15z"/>
<path d="M10906 582 c-3 -6 2 -8 13 -5 10 3 22 0 25 -6 5 -7 -4 -11 -23 -11
-34 0 -38 -7 -18 -34 8 -11 21 -16 33 -13 17 4 17 5 -2 6 -12 0 -24 8 -28 16
-4 11 2 15 25 15 24 0 30 4 27 18 -4 19 -42 29 -52 14z"/>
<path d="M10991 576 c-21 -25 -10 -61 19 -63 25 -3 25 -3 3 7 -31 13 -29 30 3
30 19 0 25 5 22 17 -4 23 -31 28 -47 9z m39 -6 c0 -5 -9 -10 -21 -10 -11 0
-17 5 -14 10 3 6 13 10 21 10 8 0 14 -4 14 -10z"/>
<path d="M11111 546 l2 -41 6 35 c4 22 12 35 21 35 9 0 17 -13 21 -35 l6 -35
4 35 c2 23 9 35 19 35 9 0 18 -13 22 -35 l6 -35 -1 40 -2 40 -52 1 -53 1 1
-41z"/>
<path d="M11250 571 c-25 -47 36 -83 64 -38 8 12 8 22 0 35 -16 25 -51 27 -64
3z m55 -21 c0 -18 -6 -26 -21 -28 -23 -3 -37 18 -27 44 10 25 48 13 48 -16z"/>
<path d="M11341 545 c2 -33 3 -35 6 -10 2 17 11 35 20 42 13 10 13 12 -6 10
-18 -1 -21 -7 -20 -42z"/>
<path d="M11406 582 c-3 -6 2 -8 13 -5 10 3 22 0 25 -6 5 -7 -4 -11 -23 -11
-34 0 -38 -7 -18 -34 8 -11 21 -16 33 -13 17 4 17 5 -2 6 -12 0 -24 8 -28 16
-4 11 2 15 25 15 24 0 30 4 27 18 -4 19 -42 29 -52 14z"/>
<path d="M1058 493 c89 -2 235 -2 325 0 89 1 16 3 -163 3 -179 0 -252 -2 -162
-3z"/>
<path d="M3538 493 c89 -2 235 -2 325 0 89 1 16 3 -163 3 -179 0 -252 -2 -162
-3z"/>
<path d="M6018 493 c89 -2 235 -2 325 0 89 1 16 3 -163 3 -179 0 -252 -2 -162
-3z"/>
<path d="M8498 493 c89 -2 235 -2 325 0 89 1 16 3 -163 3 -179 0 -252 -2 -162
-3z"/>
<path d="M10978 493 c89 -2 235 -2 325 0 89 1 16 3 -163 3 -179 0 -252 -2
-162 -3z"/>
</g>
</svg>
