<?xml version="1.0" standalone="no"?>
<!DOCTYPE svg PUBLIC "-//W3C//DTD SVG 20010904//EN"
 "http://www.w3.org/TR/2001/REC-SVG-20010904/DTD/svg10.dtd">
<svg version="1.0" xmlns="http://www.w3.org/2000/svg"
 width="942.000000pt" height="458.000000pt" viewBox="0 0 942.000000 458.000000"
 preserveAspectRatio="xMidYMid meet">

<g transform="translate(0.000000,458.000000) scale(0.100000,-0.100000)"
fill="#000000" stroke="none">
<path d="M3615 4060 c-82 -25 -124 -130 -93 -232 43 -145 279 -141 319 5 23
86 0 163 -62 209 -29 22 -120 32 -164 18z m109 -86 c22 -21 30 -57 23 -107
-14 -107 -137 -82 -137 28 0 77 69 125 114 79z"/>
<path d="M4490 4048 c-57 -30 -80 -74 -80 -153 0 -39 6 -73 18 -95 56 -107
253 -103 298 6 20 47 18 141 -4 184 -21 43 -89 80 -147 80 -23 0 -60 -10 -85
-22z m136 -79 c25 -28 24 -121 -1 -149 -23 -26 -69 -26 -95 0 -15 15 -20 33
-20 75 0 42 5 60 20 75 26 26 72 26 96 -1z"/>
<path d="M5503 4059 c-40 -12 -63 -44 -63 -87 0 -60 15 -72 135 -114 50 -17
60 -52 21 -69 -20 -10 -30 -9 -51 5 -14 9 -25 23 -25 31 0 16 -35 19 -78 7
-22 -7 -22 -7 -5 -42 32 -62 129 -89 206 -56 45 19 68 48 74 95 5 35 2 44 -24
70 -17 16 -50 34 -74 41 -70 17 -91 29 -87 48 5 27 53 28 71 1 14 -19 21 -21
61 -15 41 6 44 9 37 29 -20 53 -118 81 -198 56z"/>
<path d="M3180 4020 l0 -40 55 0 55 0 0 -125 0 -125 50 0 50 0 0 125 0 125 50
0 50 0 0 40 0 40 -155 0 -155 0 0 -40z"/>
<path d="M4060 3894 l0 -166 108 4 c120 4 149 16 176 73 22 46 21 137 -4 184
-28 56 -68 71 -184 71 l-96 0 0 -166z m182 69 c13 -12 18 -30 18 -69 0 -63
-17 -84 -66 -84 l-34 0 0 85 0 85 32 0 c17 0 40 -7 50 -17z"/>
<path d="M4950 3895 l0 -165 130 0 130 0 0 40 0 40 -80 0 -80 0 0 125 0 125
-50 0 -50 0 0 -165z"/>
<path d="M5270 3895 l0 -165 45 0 45 0 0 165 0 165 -45 0 -45 0 0 -165z"/>
<path d="M5750 4020 l0 -40 55 0 55 0 0 -125 0 -125 45 0 45 0 0 125 0 125 55
0 55 0 0 40 0 40 -155 0 -155 0 0 -40z"/>
<path d="M5942 3445 c-57 -25 -63 -56 -60 -306 l3 -219 28 -27 27 -28 560 0
560 0 27 28 28 27 3 219 c4 252 -2 281 -62 306 -52 22 -1064 21 -1114 0z"/>
<path d="M2533 3253 c-3 -10 -19 -52 -35 -93 -32 -86 -33 -90 -13 -90 8 0 17
11 21 25 5 22 12 25 50 25 38 0 46 -4 56 -25 10 -23 38 -36 38 -17 0 4 -15 48
-34 97 -27 70 -39 91 -55 93 -13 2 -24 -3 -28 -15z m41 -47 c3 -13 9 -31 12
-40 5 -13 -1 -16 -26 -16 -25 0 -31 3 -26 16 3 9 9 27 12 40 3 13 10 24 14 24
4 0 11 -11 14 -24z"/>
<path d="M2780 3235 c0 -32 -2 -35 -19 -25 -28 14 -38 13 -61 -10 -12 -12 -20
-33 -20 -55 0 -22 8 -43 20 -55 23 -23 33 -24 61 -10 13 7 19 7 19 0 0 -5 7
-10 15 -10 12 0 15 18 15 100 0 82 -3 100 -15 100 -11 0 -15 -11 -15 -35z m-5
-90 c0 -38 -2 -40 -30 -40 -26 0 -30 4 -33 28 -5 44 4 59 35 55 25 -3 28 -7
28 -43z"/>
<path d="M2950 3235 c0 -32 -2 -35 -19 -25 -28 14 -38 13 -61 -10 -12 -12 -20
-33 -20 -55 0 -22 8 -43 20 -55 23 -23 33 -24 61 -10 13 7 19 7 19 0 0 -5 7
-10 15 -10 12 0 15 18 15 100 0 82 -3 100 -15 100 -11 0 -15 -11 -15 -35z m-5
-90 c0 -36 -3 -40 -27 -43 -30 -4 -44 23 -34 64 5 20 12 25 34 22 24 -3 27 -7
27 -43z"/>
<path d="M4370 3170 c0 -82 3 -100 15 -100 10 0 15 10 15 29 0 44 17 47 41 7
12 -20 28 -36 36 -36 11 0 9 10 -11 47 l-26 46 20 22 c40 42 12 50 -32 8 l-28
-27 0 52 c0 40 -4 52 -15 52 -12 0 -15 -18 -15 -100z"/>
<path d="M3973 3240 c-3 -11 -9 -20 -14 -20 -5 0 -9 -7 -9 -15 0 -8 5 -15 10
-15 6 0 10 -24 10 -54 0 -46 3 -56 20 -61 21 -7 40 0 40 16 0 5 -7 9 -15 9
-11 0 -15 12 -15 45 0 25 5 45 10 45 6 0 10 7 10 15 0 8 -4 15 -10 15 -5 0
-10 9 -10 20 0 11 -5 20 -11 20 -6 0 -13 -9 -16 -20z"/>
<path d="M3119 3200 l-24 -21 43 6 c33 5 42 4 42 -8 0 -9 -15 -19 -37 -24 -31
-7 -39 -14 -41 -35 -4 -35 28 -54 60 -37 16 9 23 9 26 0 2 -6 9 -11 17 -11 8
0 13 17 13 56 1 85 -46 120 -99 74z m59 -72 c-4 -31 -48 -39 -48 -9 0 17 12
25 43 30 5 0 7 -9 5 -21z"/>
<path d="M3340 3145 c0 -60 3 -75 15 -75 11 0 15 12 15 48 0 51 12 72 42 72
15 0 18 -9 18 -60 0 -54 2 -60 21 -60 20 0 21 4 17 60 -5 76 -24 99 -65 81
-19 -9 -29 -9 -31 -2 -2 6 -10 11 -18 11 -11 0 -14 -17 -14 -75z"/>
<path d="M3525 3195 c-14 -13 -25 -36 -25 -50 0 -30 41 -75 68 -75 10 0 27 7
38 15 21 16 14 19 -37 15 -16 -1 -29 5 -32 14 -5 13 2 16 43 16 44 0 50 3 50
20 0 25 -42 70 -65 70 -9 0 -27 -11 -40 -25z m73 -22 c2 -9 -8 -13 -32 -13
-28 0 -34 3 -29 16 7 18 54 16 61 -3z"/>
<path d="M3654 3203 c4 -9 15 -43 24 -75 22 -76 44 -78 64 -5 l14 52 15 -50
c26 -88 43 -73 85 78 4 11 0 17 -9 17 -10 0 -20 -18 -28 -50 -14 -56 -20 -55
-38 8 -7 24 -18 42 -26 42 -13 0 -35 -56 -35 -88 0 -27 -18 -1 -29 43 -7 30
-17 45 -27 45 -11 0 -14 -5 -10 -17z"/>
<path d="M4069 3200 l-24 -21 43 6 c33 5 42 4 42 -8 0 -9 -15 -19 -37 -24 -31
-7 -39 -14 -41 -35 -4 -35 28 -54 60 -37 16 9 23 9 26 0 2 -6 9 -11 17 -11 8
0 13 17 13 56 1 85 -46 120 -99 74z m59 -72 c-4 -31 -48 -39 -48 -9 0 17 12
25 43 30 5 0 7 -9 5 -21z"/>
<path d="M4220 3200 c-27 -27 -12 -55 35 -66 50 -12 44 -28 -12 -34 l-48 -6
29 -12 c37 -16 83 -7 97 19 14 27 -3 46 -52 59 -51 14 -50 31 1 28 49 -2 62 8
26 22 -39 14 -53 13 -76 -10z"/>
<path d="M6730 2285 c-7 -8 -28 -15 -46 -15 -24 0 -34 -5 -34 -15 0 -13 21
-15 130 -15 109 0 130 2 130 15 0 11 -11 15 -35 15 -22 0 -38 6 -41 15 -4 10
-20 15 -49 15 -26 0 -47 -6 -55 -15z"/>
<path d="M6137 2274 c-4 -4 -7 -62 -7 -130 0 -102 3 -123 16 -128 23 -9 217
-7 232 2 9 7 12 40 10 133 l-3 124 -121 3 c-66 1 -123 -1 -127 -4z m188 -84
c4 -6 -12 -33 -36 -61 l-42 -50 -28 27 c-22 21 -26 30 -17 41 9 11 14 11 28
-2 17 -15 20 -14 47 19 30 38 38 42 48 26z"/>
<path d="M2383 2263 c-7 -2 -13 -13 -13 -24 0 -10 -4 -19 -10 -19 -5 0 -10 -7
-10 -15 0 -8 5 -15 10 -15 6 0 10 -27 10 -60 0 -47 3 -60 15 -60 12 0 15 13
15 60 0 47 3 60 15 60 8 0 15 7 15 15 0 8 -7 15 -15 15 -22 0 -18 17 5 23 11
3 20 10 20 16 0 11 -34 14 -57 4z"/>
<path d="M2460 2255 c0 -8 7 -15 15 -15 8 0 15 7 15 15 0 8 -7 15 -15 15 -8 0
-15 -7 -15 -15z"/>
<path d="M2710 2255 c0 -8 7 -15 15 -15 8 0 15 7 15 15 0 8 -7 15 -15 15 -8 0
-15 -7 -15 -15z"/>
<path d="M2940 2170 c0 -82 3 -100 15 -100 11 0 15 12 15 49 0 51 18 78 45 67
11 -4 15 -21 15 -61 0 -49 2 -55 21 -55 20 0 21 4 17 60 -5 77 -24 100 -68 83
-30 -11 -30 -11 -30 23 0 24 -5 34 -15 34 -12 0 -15 -18 -15 -100z"/>
<path d="M4135 2256 c-17 -12 -20 -24 -17 -81 1 -37 7 -76 13 -86 12 -23 59
-26 59 -4 0 8 -7 15 -15 15 -11 0 -15 12 -15 45 0 33 4 45 15 45 8 0 15 7 15
15 0 8 -6 15 -14 15 -8 0 -16 11 -18 26 -3 23 -4 24 -23 10z"/>
<path d="M4210 2255 c0 -8 9 -15 20 -15 11 0 20 7 20 15 0 8 -9 15 -20 15 -11
0 -20 -7 -20 -15z"/>
<path d="M4313 2263 c-7 -2 -13 -13 -13 -24 0 -10 -4 -19 -10 -19 -5 0 -10 -7
-10 -15 0 -8 5 -15 10 -15 6 0 10 -27 10 -60 0 -47 3 -60 15 -60 12 0 15 13
15 60 0 47 3 60 15 60 8 0 15 7 15 15 0 8 -7 15 -15 15 -22 0 -18 17 5 23 11
3 20 10 20 16 0 11 -34 14 -57 4z"/>
<path d="M4560 2170 c0 -82 3 -100 15 -100 12 0 15 18 15 100 0 82 -3 100 -15
100 -12 0 -15 -18 -15 -100z"/>
<path d="M4630 2255 c0 -8 9 -15 20 -15 11 0 20 7 20 15 0 8 -9 15 -20 15 -11
0 -20 -7 -20 -15z"/>
<path d="M2460 2145 c0 -60 3 -75 15 -75 12 0 15 15 15 75 0 60 -3 75 -15 75
-12 0 -15 -15 -15 -75z"/>
<path d="M2530 2145 c0 -68 2 -75 20 -75 16 0 19 8 22 58 3 50 6 57 26 60 21
3 22 0 22 -57 0 -54 2 -61 20 -61 18 0 20 7 20 59 0 80 -28 109 -81 81 -13 -7
-19 -7 -19 0 0 5 -7 10 -15 10 -12 0 -15 -15 -15 -75z"/>
<path d="M2710 2145 c0 -60 3 -75 15 -75 12 0 15 15 15 75 0 60 -3 75 -15 75
-12 0 -15 -15 -15 -75z"/>
<path d="M2790 2200 c-27 -27 -12 -55 35 -66 45 -11 46 -29 2 -30 -62 -3 -64
-3 -43 -19 28 -21 79 -19 100 4 27 30 16 54 -32 69 -51 17 -55 34 -7 30 39 -2
57 9 35 22 -25 16 -69 11 -90 -10z"/>
<path d="M3180 2145 c0 -68 2 -75 20 -75 16 0 19 8 22 58 3 49 6 57 23 57 17
0 20 -8 23 -57 3 -49 6 -58 22 -58 16 0 19 9 22 58 3 49 6 57 23 57 17 0 20
-8 23 -57 2 -43 7 -58 17 -58 12 0 15 15 15 64 0 74 -14 93 -57 80 -16 -4 -32
-6 -38 -4 -5 2 -34 5 -62 6 l-53 3 0 -74z"/>
<path d="M3420 2214 c0 -3 11 -38 25 -77 27 -73 27 -97 0 -97 -8 0 -15 -7 -15
-15 0 -16 27 -20 47 -7 6 4 25 43 42 87 16 44 32 88 36 98 5 13 2 17 -13 17
-13 0 -22 -9 -26 -25 -3 -13 -11 -37 -17 -52 l-11 -28 -18 50 c-10 29 -24 51
-33 53 -10 2 -17 0 -17 -4z"/>
<path d="M3670 2115 c0 -98 1 -105 20 -105 17 0 20 7 20 41 0 36 2 40 15 29
23 -19 61 -4 75 29 27 66 -19 128 -75 103 -15 -7 -25 -8 -25 -2 0 6 -7 10 -15
10 -12 0 -15 -18 -15 -105z m95 30 c0 -36 -2 -40 -25 -40 -20 0 -26 6 -28 28
-5 42 5 59 30 55 20 -3 23 -9 23 -43z"/>
<path d="M3855 2195 c-14 -13 -25 -36 -25 -50 0 -33 42 -75 75 -75 33 0 75 42
75 75 0 33 -42 75 -75 75 -14 0 -37 -11 -50 -25z m69 -11 c10 -4 16 -18 16
-40 0 -27 -5 -35 -24 -40 -34 -8 -46 2 -46 40 0 45 14 55 54 40z"/>
<path d="M4010 2145 c0 -68 2 -75 20 -75 18 0 20 7 20 55 0 50 2 56 25 65 14
5 25 14 25 20 0 14 -33 13 -48 -2 -9 -9 -12 -9 -12 0 0 7 -7 12 -15 12 -12 0
-15 -15 -15 -75z"/>
<path d="M4210 2145 c0 -68 2 -75 20 -75 18 0 20 7 20 75 0 68 -2 75 -20 75
-18 0 -20 -7 -20 -75z"/>
<path d="M4400 2200 c-22 -22 -26 -69 -10 -100 13 -24 63 -35 92 -19 31 16 38
28 38 64 0 36 -8 48 -37 64 -32 16 -60 14 -83 -9z m80 -24 c28 -35 -11 -93
-47 -70 -36 22 -23 84 17 84 10 0 23 -7 30 -14z"/>
<path d="M4630 2145 c0 -68 2 -75 20 -75 18 0 20 7 20 75 0 68 -2 75 -20 75
-18 0 -20 -7 -20 -75z"/>
<path d="M4725 2195 c-14 -13 -25 -36 -25 -50 0 -33 42 -75 75 -75 33 0 75 42
75 75 0 33 -42 75 -75 75 -14 0 -37 -11 -50 -25z m80 -50 c0 -43 -22 -58 -50
-35 -32 27 -10 84 30 78 16 -2 20 -11 20 -43z"/>
<path d="M6682 2113 l3 -108 95 0 95 0 3 108 3 107 -101 0 -101 0 3 -107z"/>
<path d="M2182 1585 c-60 -26 -63 -47 -60 -405 l3 -320 28 -27 27 -28 2440 0
2440 0 27 28 28 27 3 320 c3 361 0 379 -62 405 -53 22 -4824 22 -4874 0z m218
-325 c0 -38 4 -50 15 -50 8 0 15 4 15 9 0 5 7 17 16 25 28 29 114 14 114 -19
0 -8 8 -15 17 -15 9 0 13 3 10 6 -3 4 -2 15 4 25 7 15 21 19 60 19 44 0 51 -3
59 -25 5 -14 16 -25 25 -25 9 0 15 9 15 25 l0 25 115 0 c114 0 116 0 125 -25
8 -22 15 -25 60 -25 47 0 50 2 50 25 0 23 3 25 50 25 54 0 70 -21 28 -35 -21
-7 -22 -7 -4 -12 13 -4 26 3 39 21 26 36 87 37 115 1 11 -14 26 -25 33 -25 7
0 9 3 6 6 -3 4 -2 15 4 25 7 15 21 19 60 19 44 0 51 -3 59 -25 9 -24 30 -35
30 -16 0 21 34 41 70 41 39 0 75 -23 65 -41 -4 -5 1 -9 9 -9 9 0 16 5 16 10 0
6 -4 10 -10 10 -5 0 -10 7 -10 15 0 8 5 15 10 15 6 0 10 9 10 19 0 17 18 31
41 31 5 0 9 -11 9 -25 0 -16 6 -25 15 -25 8 0 15 -7 15 -15 0 -8 -7 -15 -15
-15 -8 0 -15 -4 -15 -10 0 -5 7 -10 15 -10 8 0 15 -4 15 -10 0 -5 -7 -10 -15
-10 -8 0 -15 -9 -15 -20 0 -11 7 -20 15 -20 8 0 15 -9 15 -20 0 -16 -7 -20
-34 -20 -36 0 -46 12 -46 56 0 23 -3 24 -60 24 -33 0 -60 -2 -60 -4 0 -28 15
-36 56 -30 34 5 44 3 44 -8 0 -24 -22 -38 -61 -38 -54 0 -67 8 -80 47 -13 42
-31 26 -22 -20 l6 -28 -69 3 -69 3 0 38 c0 20 -3 37 -7 37 -5 0 -8 -4 -8 -10
0 -5 -22 -10 -50 -10 -27 0 -50 -4 -50 -10 0 -11 10 -13 58 -10 17 1 32 -2 32
-7 0 -20 -26 -33 -66 -33 -45 0 -74 24 -74 62 0 13 -8 18 -25 18 -22 0 -25 -4
-25 -40 0 -36 -2 -40 -25 -40 -22 0 -25 4 -25 40 l0 40 -50 0 -50 0 0 -40 c0
-36 -2 -40 -25 -40 -22 0 -25 4 -25 40 0 36 -2 40 -25 40 -22 0 -25 -4 -25
-40 0 -36 -2 -40 -25 -40 -23 0 -25 4 -25 41 0 38 -1 40 -27 37 -24 -3 -28 -8
-31 -40 -3 -30 -7 -38 -23 -38 -16 0 -19 7 -19 40 0 28 -4 40 -14 40 -18 0
-25 -20 -19 -54 l6 -27 -69 3 -69 3 0 38 c0 20 -3 37 -7 37 -5 0 -8 -4 -8 -10
0 -5 -23 -10 -52 -10 -41 0 -49 -3 -40 -12 7 -7 28 -11 47 -9 26 2 35 -1 35
-12 0 -19 -21 -27 -70 -27 -41 0 -55 11 -65 53 -10 40 -25 33 -25 -13 0 -33
-3 -40 -20 -40 -17 0 -20 7 -20 39 0 22 -6 42 -12 45 -10 5 -10 7 0 12 7 3 12
25 12 55 0 42 3 49 20 49 17 0 20 -7 20 -50z"/>
<path d="M2841 1244 c0 -7 -11 -15 -23 -19 l-23 -8 23 -4 c29 -6 35 0 29 24
-3 10 -5 13 -6 7z"/>
<path d="M2485 1220 c-4 -6 3 -10 14 -10 25 0 27 6 6 13 -8 4 -17 2 -20 -3z"/>
<path d="M2635 1220 c-4 -6 3 -10 14 -10 25 0 27 6 6 13 -8 4 -17 2 -20 -3z"/>
<path d="M2915 1220 c-3 -5 1 -10 10 -10 9 0 13 5 10 10 -3 6 -8 10 -10 10 -2
0 -7 -4 -10 -10z"/>
<path d="M3260 1220 c-12 -8 -10 -10 8 -10 13 0 20 4 17 10 -7 12 -6 12 -25 0z"/>
<path d="M3415 1220 c-4 -6 3 -10 14 -10 25 0 27 6 6 13 -8 4 -17 2 -20 -3z"/>
<path d="M3575 1220 c-4 -6 3 -10 14 -10 25 0 27 6 6 13 -8 4 -17 2 -20 -3z"/>
<path d="M2637 1173 c-12 -11 -8 -23 7 -23 8 0 16 7 20 15 5 15 -14 21 -27 8z"/>
<path d="M3417 1173 c-12 -11 -8 -23 7 -23 8 0 16 7 20 15 5 15 -14 21 -27 8z"/>
</g>
</svg>
