<?xml version="1.0" standalone="no"?>
<!DOCTYPE svg PUBLIC "-//W3C//DTD SVG 20010904//EN"
 "http://www.w3.org/TR/2001/REC-SVG-20010904/DTD/svg10.dtd">
<svg version="1.0" xmlns="http://www.w3.org/2000/svg"
 width="1167.000000pt" height="506.000000pt" viewBox="0 0 1167.000000 506.000000"
 preserveAspectRatio="xMidYMid meet">

<g transform="translate(0.000000,506.000000) scale(0.100000,-0.100000)"
fill="#000000" stroke="none">
<path d="M0 2530 l0 -2530 5835 0 5835 0 0 2530 0 2530 -5835 0 -5835 0 0
-2530z m10560 2218 c25 -13 55 -38 67 -57 61 -92 31 -209 -67 -258 -41 -21
-58 -23 -220 -23 -162 0 -179 2 -220 23 -25 12 -55 37 -67 56 -61 92 -31 209
67 259 41 20 58 22 220 22 162 0 179 -2 220 -22z m-8670 -69 l0 -70 22 15 c35
24 94 20 123 -8 73 -73 24 -226 -72 -226 -22 0 -45 6 -52 13 -11 10 -14 10
-18 0 -3 -8 -22 -13 -44 -13 l-39 0 0 180 0 180 40 0 40 0 0 -71z m1294 49
c14 -23 -3 -52 -33 -56 -42 -6 -67 38 -39 66 17 17 58 11 72 -10z m-2014 -113
c12 -64 25 -114 27 -112 3 4 23 75 53 185 11 41 11 42 55 42 l43 0 27 -115
c15 -63 28 -115 30 -115 1 0 13 52 26 115 l23 115 42 0 42 0 -14 -47 c-7 -27
-27 -103 -45 -171 l-32 -123 -46 3 -45 3 -25 103 c-14 56 -28 102 -32 102 -4
0 -14 -30 -23 -67 -39 -157 -31 -143 -84 -143 l-47 0 -38 148 c-21 81 -40 157
-43 170 -6 20 -3 22 38 22 l44 0 24 -115z m1239 6 l66 -103 3 106 3 106 39 0
40 0 0 -170 0 -170 -42 0 -43 0 -72 113 -72 112 -1 -112 0 -113 -40 0 -40 0 0
171 0 170 46 -3 47 -3 66 -104z m611 54 c0 -31 3 -35 25 -35 21 0 25 -5 25
-30 0 -25 -4 -30 -25 -30 -24 0 -25 -2 -25 -65 0 -63 1 -65 25 -65 21 0 25 -5
25 -30 0 -29 -2 -30 -44 -30 -70 0 -88 21 -94 113 -3 56 -8 77 -18 77 -9 0
-14 11 -14 30 0 20 5 30 15 30 9 0 15 9 15 24 0 17 8 27 28 34 51 19 62 15 62
-23z m-1285 -57 c26 -23 51 -99 40 -119 -4 -5 -40 -9 -81 -9 -56 0 -75 -3 -72
-12 8 -24 51 -37 91 -29 36 9 37 8 37 -19 0 -34 -14 -40 -86 -40 -44 0 -59 5
-84 28 -58 51 -50 164 14 203 43 27 108 25 141 -3z m1083 2 c74 -45 69 -175
-8 -215 -65 -34 -169 -6 -190 51 -25 63 -2 141 48 168 39 22 111 20 150 -4z
m362 -105 l0 -125 -40 0 -40 0 0 125 0 125 40 0 40 0 0 -125z m248 89 l3 -32
-44 5 c-55 7 -77 -13 -77 -67 0 -48 24 -65 81 -57 37 5 39 4 39 -23 0 -33 -14
-40 -80 -40 -84 0 -139 70 -120 153 10 46 16 55 54 78 23 14 45 19 86 17 54
-3 55 -4 58 -34z m211 21 c30 -15 51 -59 51 -106 l0 -29 -75 0 c-58 0 -75 -3
-75 -14 0 -22 54 -36 92 -25 18 5 34 9 35 9 2 0 3 -13 3 -29 0 -33 -17 -41
-88 -41 -74 0 -119 36 -123 100 -5 61 2 83 35 116 28 28 42 34 75 34 23 0 55
-7 70 -15z m249 -22 c4 -36 1 -38 -30 -22 -22 12 -68 4 -68 -11 0 -5 17 -17
37 -25 66 -28 86 -60 67 -110 -10 -24 -58 -45 -108 -45 -63 0 -76 7 -76 42 0
25 3 29 18 23 40 -16 78 -17 91 -2 11 14 5 19 -39 38 -77 33 -89 84 -32 129
20 17 37 20 81 18 55 -3 56 -4 59 -35z m-59 -1041 c5 -10 13 -42 17 -71 l7
-51 -52 -50 -53 -50 -76 2 c-75 2 -174 -14 -220 -35 -17 -8 -28 -8 -40 0 -10
6 -31 13 -48 17 -17 4 -45 22 -62 39 l-32 33 17 92 17 92 258 0 c239 0 258 -1
267 -18z m2027 -7 c35 -22 11 -95 -32 -95 -19 0 -45 66 -38 95 7 28 26 27 70
0z m934 -67 c0 -25 3 -29 12 -20 7 7 19 12 27 12 13 0 13 -2 -1 -16 -15 -15
-15 -19 -1 -40 19 -29 -2 -34 -23 -6 -13 16 -13 16 -14 0 0 -10 -4 -18 -10
-18 -6 0 -10 27 -10 60 0 33 4 60 10 60 6 0 10 -14 10 -32z m330 22 c0 -5 -7
-10 -15 -10 -8 0 -15 5 -15 10 0 6 7 10 15 10 8 0 15 -4 15 -10z m40 -50 c0
-33 -4 -60 -10 -60 -6 0 -10 27 -10 60 0 33 4 60 10 60 6 0 10 -27 10 -60z
m-4822 16 c13 -11 28 -30 34 -41 9 -16 8 -18 -3 -7 -7 6 -29 12 -48 12 -28 0
-42 -7 -63 -32 l-28 -33 2 53 c4 81 48 101 106 48z m3877 2 l20 -33 3 33 c2
20 9 32 18 32 10 0 14 -14 14 -55 0 -67 -17 -73 -55 -18 l-25 38 0 -38 c0 -26
-4 -37 -15 -37 -12 0 -15 13 -15 55 0 46 3 55 18 55 10 0 27 -15 37 -32z m346
10 l12 -23 10 23 c6 12 16 22 24 22 10 0 9 -9 -7 -40 -11 -21 -20 -46 -20 -55
0 -8 -4 -15 -10 -15 -5 0 -10 10 -10 23 -1 12 -7 33 -15 47 -17 30 -18 40 -5
40 5 0 15 -10 21 -22z m423 6 c36 -35 5 -94 -50 -94 l-34 0 0 55 0 55 34 0
c19 0 42 -7 50 -16z m371 -16 l20 -33 3 33 c2 20 9 32 18 32 10 0 14 -14 14
-55 0 -67 -17 -73 -55 -18 l-25 38 0 -38 c0 -26 -4 -37 -15 -37 -12 0 -15 13
-15 55 0 46 3 55 18 55 10 0 27 -15 37 -32z m-1007 -10 c20 -20 14 -28 -19
-28 -17 0 -28 -4 -24 -10 3 -5 15 -10 26 -10 10 0 19 -4 19 -10 0 -14 -43 -13
-58 2 -7 7 -12 19 -12 28 0 9 5 21 12 28 7 7 19 12 28 12 9 0 21 -5 28 -12z
m43 -10 l0 -23 11 23 c6 12 17 22 25 22 7 0 13 -10 14 -22 l0 -23 11 23 c11
22 28 30 28 13 0 -4 -5 -22 -11 -40 -13 -36 -36 -41 -42 -8 l-4 22 -8 -22
c-10 -30 -31 -29 -39 1 -3 13 -9 31 -12 40 -4 11 -1 16 10 16 10 0 16 -9 17
-22z m299 2 c17 -33 -4 -62 -43 -58 -25 2 -33 8 -35 26 -7 48 56 73 78 32z
m56 4 c-9 -8 -16 -26 -16 -40 0 -13 -4 -24 -10 -24 -5 0 -10 18 -10 40 0 36 2
40 26 40 23 0 24 -1 10 -16z m332 -26 c3 -37 2 -38 -31 -38 -53 0 -57 34 -7
53 10 3 7 6 -8 6 -14 1 -20 5 -17 12 4 5 19 9 33 7 23 -3 27 -8 30 -40z m42 2
c0 -29 -4 -40 -15 -40 -11 0 -15 11 -15 40 0 29 4 40 15 40 11 0 15 -11 15
-40z m77 20 c3 -11 9 -20 13 -20 4 0 10 9 13 20 3 11 10 20 17 20 20 0 -22
-108 -46 -117 -22 -8 -30 5 -10 20 16 11 16 15 1 49 -18 44 -18 48 -4 48 6 0
13 -9 16 -20z m301 -2 c3 -13 -3 -18 -22 -18 -14 0 -26 -4 -26 -10 0 -5 12
-10 26 -10 14 0 23 -4 19 -10 -11 -18 -54 -11 -65 10 -16 31 4 62 38 58 16 -2
28 -10 30 -20z m37 0 l8 -23 4 23 c5 24 33 31 33 7 0 -8 5 -15 10 -15 6 0 10
7 10 15 0 8 5 15 10 15 13 0 13 -21 0 -54 -12 -32 -30 -34 -38 -4 l-5 22 -9
-23 c-11 -31 -29 -22 -44 22 -11 31 -11 37 0 37 8 0 17 -10 21 -22z m155 12
c0 -5 -10 -10 -22 -11 l-23 0 23 -11 c13 -6 21 -19 20 -27 -4 -18 -58 -29 -58
-12 0 6 10 11 23 12 l22 0 -22 11 c-23 11 -29 28 -16 41 10 11 53 8 53 -3z
m-5489 -44 c5 3 9 -4 9 -15 0 -15 -7 -21 -22 -22 -22 -1 -22 -1 2 -9 25 -8 23
-10 -17 -14 -27 -3 -28 2 -7 32 8 12 12 22 9 22 -3 0 -3 5 1 12 6 9 9 9 12 0
2 -7 8 -10 13 -6z m789 4 c40 -11 123 -86 114 -102 -4 -6 -9 -6 -14 3 -5 7
-15 14 -23 15 -7 1 -32 13 -54 27 -45 28 -60 24 -72 -19 -4 -16 -15 -31 -25
-32 -15 -3 -16 -1 -6 18 9 16 9 25 1 33 -12 12 -68 -34 -81 -68 -7 -18 -8 -18
-15 8 -9 33 -18 34 -45 5 -11 -12 -20 -16 -20 -10 0 14 101 95 145 117 36 17
49 18 95 5z m-639 -47 c12 -15 12 -16 -4 -10 -10 4 -23 7 -28 7 -5 0 -9 5 -9
10 0 16 26 12 41 -7z m2285 -34 c10 -17 -13 -36 -27 -22 -12 12 -4 33 11 33 5
0 12 -5 16 -11z m-802 -70 c47 -13 118 -58 110 -70 -3 -5 1 -9 10 -9 8 0 24
-16 36 -35 24 -38 31 -40 79 -24 59 21 121 -23 121 -86 0 -45 14 -59 60 -61
81 -4 114 -53 68 -101 -27 -29 -52 -29 -102 0 -28 15 -42 32 -48 53 -6 25 -17
35 -51 48 -23 9 -56 16 -72 16 -26 0 -30 4 -32 30 -3 51 -6 57 -23 53 -11 -3
-30 12 -55 43 -77 94 -138 116 -269 98 -42 -6 -51 -12 -74 -48 -15 -23 -30
-42 -34 -44 -18 -8 -6 -33 20 -45 34 -14 41 -24 35 -47 -4 -14 -11 -16 -38
-10 -29 7 -34 4 -44 -17 -8 -16 -8 -30 -1 -41 9 -16 9 -16 10 1 0 30 26 18 47
-22 18 -34 19 -40 6 -45 -24 -10 -33 -7 -33 10 0 9 -6 14 -12 11 -19 -6 -124
49 -142 74 -13 19 -13 26 3 68 14 34 38 63 96 114 68 59 82 67 119 67 22 1 52
7 66 15 30 17 91 19 144 4z m-716 -17 c2 -7 -4 -15 -13 -18 -20 -8 -27 -1 -19
20 7 18 25 17 32 -2z m-1397 -13 c-19 -6 -37 -7 -42 -2 -5 5 9 10 33 10 l43 2
-34 -10z m5129 -46 c0 -44 3 -54 12 -45 16 16 60 15 82 -1 15 -11 20 -31 24
-90 l5 -77 -37 0 -36 0 0 64 c0 45 -4 65 -14 69 -24 9 -36 -15 -36 -75 0 -58
0 -58 -30 -58 l-30 0 0 135 0 135 30 0 c30 0 30 0 30 -57z m1180 42 c10 -12
10 -18 0 -30 -27 -32 -71 -8 -56 30 3 8 14 15 24 15 11 0 25 -7 32 -15z m1120
0 c10 -12 10 -18 0 -30 -27 -32 -71 -8 -56 30 3 8 14 15 24 15 11 0 25 -7 32
-15z m1020 -120 l0 -135 -30 0 -30 0 0 135 0 135 30 0 30 0 0 -135z m-8284 95
c73 -36 130 -82 150 -122 26 -51 8 -43 -53 23 -43 46 -77 71 -128 95 -39 19
-61 33 -49 34 11 0 47 -13 80 -30z m4450 -22 c9 -29 30 -88 45 -130 l28 -78
-34 0 c-29 0 -36 4 -41 25 -5 22 -11 25 -54 25 -43 0 -49 -3 -54 -25 -5 -20
-12 -25 -40 -25 l-33 0 46 130 46 130 36 0 c36 0 38 -2 55 -52z m1569 27 c31
-30 32 -56 1 -92 l-24 -27 34 -51 c19 -27 34 -53 34 -57 0 -5 -15 -8 -33 -8
-27 0 -36 6 -52 37 -42 78 -65 82 -65 13 0 -49 -1 -50 -30 -50 l-30 0 0 130 0
130 70 0 c62 0 74 -3 95 -25z m1133 -7 c3 -27 3 -27 -48 -21 -44 5 -54 3 -75
-17 -52 -49 -22 -140 45 -140 25 0 30 4 30 25 0 20 -5 25 -25 25 -20 0 -25 5
-25 25 0 24 3 25 55 25 l55 0 0 -65 c0 -61 -2 -66 -26 -75 -40 -15 -113 -12
-145 7 -77 46 -76 174 3 223 25 16 47 20 93 18 57 -3 60 -4 63 -30z m-3915 3
c29 -11 49 -60 35 -84 -13 -25 -96 -64 -151 -72 -60 -9 -77 4 -77 60 0 51 28
92 68 98 52 8 101 7 125 -2z m1597 -26 c0 -18 5 -25 20 -25 13 0 20 -7 20 -20
0 -14 -7 -20 -21 -20 -18 0 -20 -5 -17 -47 2 -40 6 -47 21 -45 14 3 18 -2 15
-20 -2 -18 -10 -24 -36 -26 -49 -5 -62 11 -62 79 0 46 -3 59 -15 59 -8 0 -15
9 -15 20 0 11 7 20 15 20 8 0 15 9 15 19 0 18 14 27 48 30 6 0 12 -10 12 -24z
m-1272 -42 c32 -43 7 -87 -63 -109 -74 -24 -89 -42 -91 -112 -3 -66 -55 -209
-84 -229 -37 -26 -62 -81 -57 -126 2 -23 0 -64 -6 -92 -11 -60 -77 -193 -106
-217 -13 -11 -21 -30 -21 -47 0 -30 -35 -101 -49 -101 -16 0 -41 -79 -52 -164
-13 -106 -7 -181 22 -235 15 -29 19 -54 17 -93 l-3 -53 -55 -9 c-38 -6 -71 -5
-105 4 -84 21 -102 34 -120 90 -21 63 -28 60 -16 -6 5 -27 14 -103 21 -169 7
-81 17 -134 31 -162 11 -23 23 -59 26 -80 3 -21 16 -51 29 -66 27 -32 48 -97
35 -110 -10 -10 -71 51 -71 70 0 7 -9 18 -20 25 -25 16 -26 38 -2 38 15 1 15
2 -3 16 -11 8 -19 20 -17 25 3 14 -15 11 -22 -3 -3 -7 -4 -1 -1 13 3 20 -1 29
-18 37 -21 10 -21 11 6 11 24 1 32 10 28 35 -1 5 -8 59 -16 122 -14 112 -69
313 -106 386 -22 42 -23 48 -10 48 5 0 28 -34 50 -75 23 -41 43 -75 45 -75 4
0 -9 73 -24 130 -6 25 -10 69 -9 98 2 29 -2 56 -7 60 -15 14 -94 36 -101 29
-3 -4 -21 18 -40 48 -33 52 -53 63 -53 29 0 -8 -7 -28 -15 -45 -13 -23 -19
-27 -33 -20 -12 6 -35 2 -76 -16 -37 -15 -68 -22 -83 -18 -32 8 -24 29 13 33
35 4 94 47 94 69 0 9 -6 13 -14 10 -21 -8 -7 31 17 48 27 19 15 30 -15 14 -12
-7 -50 -12 -83 -12 -44 0 -68 -5 -88 -19 -15 -11 -33 -21 -40 -22 -7 -1 -20
-7 -28 -14 -8 -7 -35 -27 -60 -45 -26 -17 -69 -49 -95 -70 -29 -21 -57 -35
-67 -33 -13 3 -23 -6 -34 -30 -13 -27 -24 -35 -52 -39 -77 -11 -128 -27 -178
-56 -29 -17 -53 -35 -53 -40 0 -5 -17 -7 -38 -3 -28 4 -41 2 -51 -10 -18 -22
-31 -20 -31 5 0 18 -5 20 -47 18 -46 -3 -48 -2 -60 31 -6 19 -14 47 -17 62 -6
26 -7 26 -108 31 -57 3 -119 5 -138 5 -19 0 -56 3 -82 7 -54 9 -78 -4 -78 -40
0 -22 61 -87 91 -97 11 -4 11 -18 0 -85 -7 -46 -10 -103 -6 -134 4 -32 2 -66
-4 -82 -9 -22 -8 -41 4 -80 20 -73 9 -146 -26 -166 -22 -12 -31 -12 -70 3 -25
10 -57 27 -72 39 -26 21 -27 24 -18 77 7 46 15 60 51 92 l41 37 -33 17 c-18
10 -41 17 -51 15 -9 -1 -20 6 -24 16 -4 10 -9 20 -13 23 -12 9 -67 134 -75
170 -11 51 -37 100 -52 100 -7 0 -13 4 -13 10 0 11 28 19 85 22 37 3 40 6 43
34 3 27 -1 33 -37 48 -48 22 -70 64 -53 101 10 21 16 24 42 19 26 -6 30 -4 30
14 0 13 11 27 28 36 15 8 37 28 50 45 39 54 57 59 152 49 47 -5 115 -9 152 -8
40 0 69 -4 73 -11 6 -8 10 -7 17 2 6 10 7 7 3 -10 -5 -18 -4 -22 6 -16 8 6 11
4 7 -6 -3 -8 3 -32 13 -54 9 -22 18 -33 18 -25 1 13 2 13 11 0 5 -8 11 -12 15
-9 8 8 -38 169 -48 169 -5 0 -6 -10 -3 -22 l6 -23 -11 23 c-7 12 -17 22 -23
22 -7 0 -12 8 -13 18 -4 49 -46 191 -56 189 -6 -1 -16 23 -23 56 -16 79 -34
119 -50 113 -9 -4 -20 14 -33 57 -11 34 -20 53 -20 41 -1 -11 8 -47 19 -79 11
-32 19 -60 17 -62 -4 -3 -46 102 -66 162 -7 23 -10 25 -11 10 -1 -13 -7 -6
-15 20 -11 32 -14 35 -14 15 -1 -14 5 -35 13 -46 8 -11 19 -44 24 -72 8 -47 8
-51 -7 -40 -9 7 -18 14 -21 16 -3 2 -9 48 -15 103 -5 55 -14 101 -20 102 -6 1
-13 -43 -17 -108 -11 -159 -17 -161 -15 -4 l2 137 49 -4 c27 -2 63 -10 80 -18
17 -8 58 -19 91 -26 33 -7 102 -32 153 -56 51 -24 96 -44 101 -44 4 0 21 6 37
14 16 7 53 16 82 19 46 5 52 4 52 -12 0 -10 -11 -39 -25 -64 -32 -56 -75 -179
-75 -212 0 -23 -4 -25 -41 -25 -47 0 -45 -11 -15 120 16 68 14 93 -4 44 -5
-16 -15 -37 -21 -48 -31 -54 -52 -179 -26 -158 6 5 33 14 58 19 45 10 47 9 78
-25 30 -34 31 -35 96 -29 58 4 71 9 103 40 100 94 150 137 160 137 7 0 9 7 5
17 -4 11 -3 14 5 9 6 -4 17 5 26 21 14 26 15 27 22 8 5 -11 22 -35 40 -53 30
-31 32 -31 37 -12 4 14 -5 32 -29 58 -19 20 -34 39 -34 42 1 3 11 13 25 22 23
18 24 17 97 -37 40 -31 89 -71 108 -89 19 -18 51 -41 70 -51 48 -24 80 -55 80
-77 0 -26 35 -88 59 -105 12 -8 21 -21 21 -28 0 -8 16 -21 35 -29 26 -11 39
-26 51 -56 9 -23 20 -38 24 -33 4 4 15 51 24 103 10 52 24 106 33 120 53 82
175 170 234 170 21 0 51 -12 78 -30 52 -35 62 -37 79 -9 11 17 21 20 68 17
l56 -3 19 70 c10 39 19 98 19 132 0 72 19 103 62 103 15 0 30 5 34 11 3 6 15
9 25 6 17 -5 19 1 19 49 0 69 15 105 74 174 39 46 54 56 89 61 54 8 89 2 105
-18z m1042 6 c0 -8 4 -8 14 0 8 7 30 11 48 9 42 -4 58 -34 58 -115 l0 -63 -35
0 -35 0 0 64 c0 45 -4 65 -14 69 -24 9 -36 -15 -36 -75 0 -58 0 -58 -30 -58
l-30 0 0 90 0 90 30 0 c17 0 30 -5 30 -11z m661 -2 c47 -36 51 -97 10 -138
-24 -23 -38 -29 -73 -29 -46 1 -68 12 -86 47 -20 37 -14 73 17 104 24 23 38
29 73 29 24 0 50 -6 59 -13z m129 3 c0 -7 6 -7 19 0 29 15 62 12 83 -7 14 -13
18 -31 18 -90 l0 -73 -30 0 c-30 0 -30 0 -30 59 0 67 -17 93 -44 66 -11 -11
-16 -34 -16 -71 0 -53 0 -54 -30 -54 l-30 0 0 90 0 90 30 0 c17 0 30 -5 30
-10z m219 -42 c8 -27 18 -48 22 -48 4 0 13 23 20 50 12 45 16 50 41 50 15 0
28 -4 28 -10 0 -5 -18 -57 -41 -115 -44 -113 -66 -139 -116 -133 -21 2 -29 9
-31 26 -3 19 0 23 18 20 14 -2 27 5 36 17 11 17 9 29 -15 85 -48 111 -48 112
-10 108 30 -3 35 -8 48 -50z m531 -38 l0 -90 -30 0 -30 0 0 90 0 90 30 0 30 0
0 -90z m190 76 c0 -8 -18 -37 -41 -66 -22 -28 -39 -53 -37 -55 1 -2 22 -5 46
-6 41 -3 45 -1 82 46 l40 50 -40 3 c-32 3 -40 7 -40 23 0 17 7 19 80 19 95 0
98 -5 40 -79 -22 -28 -40 -53 -40 -56 0 -3 18 -5 40 -5 33 0 40 -3 40 -20 0
-19 -7 -20 -170 -20 -130 0 -170 3 -170 13 1 6 21 37 45 67 l45 55 -40 3 c-32
3 -40 7 -40 23 0 17 7 19 80 19 62 0 80 -3 80 -14z m355 -11 c19 -18 25 -35
25 -65 0 -58 -33 -90 -94 -90 -64 0 -101 33 -101 90 0 34 6 47 28 66 39 34
108 33 142 -1z m575 -65 l0 -90 -30 0 -30 0 0 90 0 90 30 0 30 0 0 -90z m176
69 c13 -15 20 -40 22 -90 l4 -69 -31 0 c-17 0 -31 5 -31 12 0 9 -3 9 -12 0 -7
-7 -26 -12 -43 -12 -38 0 -55 16 -55 50 0 34 25 56 73 64 21 4 35 11 32 17 -8
12 -41 12 -66 -1 -16 -9 -19 -7 -19 14 0 29 10 34 66 35 29 1 46 -5 60 -20z
m124 9 c0 -9 3 -9 12 0 13 13 57 16 75 4 20 -12 33 -60 33 -118 l0 -54 -35 0
-35 0 0 64 c0 43 -4 66 -12 69 -30 10 -38 -6 -38 -69 l0 -64 -35 0 -35 0 0 90
0 90 35 0 c21 0 35 -5 35 -12z m290 -18 c0 -28 -2 -30 -21 -20 -26 14 -69 -11
-69 -40 0 -30 43 -54 70 -40 20 11 21 9 18 -17 -3 -25 -8 -28 -42 -31 -47 -4
-80 11 -95 45 -18 40 -13 73 18 104 24 24 38 29 75 29 45 0 46 -1 46 -30z
m170 10 c16 -16 20 -33 20 -89 l0 -69 -70 0 c-75 0 -100 12 -100 49 0 26 35
59 63 59 12 0 29 4 37 10 24 15 -18 25 -51 13 -27 -10 -29 -9 -29 12 0 28 11
33 68 34 29 1 48 -5 62 -19z m120 8 c0 -9 3 -9 12 0 23 23 48 14 48 -18 0 -22
-4 -28 -15 -24 -28 11 -45 -16 -45 -72 0 -53 0 -54 -30 -54 l-30 0 0 90 0 90
30 0 c17 0 30 -5 30 -12z m345 -13 c19 -18 25 -35 25 -65 0 -58 -33 -90 -94
-90 -64 0 -101 33 -101 90 0 34 6 47 28 66 39 34 108 33 142 -1z m-6565 -11
c0 -14 3 -14 15 -4 8 7 15 8 15 2 0 -5 -7 -15 -15 -22 -8 -7 -15 -17 -15 -23
0 -6 6 -2 14 9 8 10 18 16 21 12 4 -4 0 -14 -9 -23 -9 -9 -16 -23 -16 -31 0
-8 -4 -14 -10 -14 -5 0 -10 10 -10 22 0 21 0 21 -15 2 -17 -22 -20 -12 -4 18
16 30 2 34 -26 8 -14 -13 -25 -19 -25 -13 0 5 9 18 20 28 11 10 20 24 20 32 0
7 9 13 20 13 12 0 20 -7 20 -16z m-2210 -70 c0 -8 -4 -12 -10 -9 -5 3 -10 10
-10 16 0 5 5 9 10 9 6 0 10 -7 10 -16z m-20 -14 c0 -4 -11 -7 -25 -6 -22 1
-23 2 -9 13 17 12 34 9 34 -7z m350 -19 c-1 -13 -3 -13 -15 3 -19 26 -19 42 0
26 8 -7 15 -20 15 -29z m2598 -1 c38 -36 22 -73 -20 -47 -13 8 -35 17 -50 21
-18 4 -25 11 -22 20 3 8 14 12 25 9 10 -3 19 0 19 6 0 18 24 13 48 -9z m4162
3 c0 -5 -5 -25 -11 -45 -8 -31 -15 -38 -35 -38 -23 0 -24 2 -18 38 9 49 11 52
40 52 13 0 24 -3 24 -7z m-6638 -37 c11 3 18 2 16 -2 -48 -97 -55 -147 -35
-234 17 -71 15 -95 -2 -33 -21 73 -24 146 -7 193 22 65 12 61 -13 -5 -12 -31
-21 -73 -21 -94 0 -37 -24 -111 -36 -111 -3 0 -3 12 0 26 4 15 3 23 -3 20 -5
-4 -11 2 -14 11 -3 14 -8 10 -21 -17 l-17 -35 6 40 c4 22 8 51 11 65 3 17 -2
12 -15 -15 -10 -22 -31 -107 -45 -190 -38 -214 -37 -209 -49 -217 -11 -7 -10
-9 12 -12 5 0 13 -5 18 -10 5 -5 3 -6 -4 -2 -21 12 -15 -9 8 -30 17 -16 19
-25 14 -69 -4 -27 -12 -55 -17 -62 -5 -6 -22 -64 -38 -128 -16 -64 -46 -151
-66 -193 -21 -42 -54 -120 -74 -172 l-36 -95 -38 3 c-20 2 -42 -1 -49 -6 -7
-6 -54 -12 -105 -13 -50 -2 -92 -6 -92 -11 0 -11 -57 -10 -64 1 -3 5 6 12 19
15 31 8 85 54 85 72 0 7 12 26 26 41 15 15 33 44 41 63 8 19 45 67 82 105 77
79 118 155 155 286 46 163 43 213 -5 71 -25 -76 -34 -77 -14 -3 17 66 30 192
17 171 -5 -8 -22 -64 -37 -125 -15 -60 -37 -129 -49 -152 -21 -43 -157 -215
-164 -208 -5 5 26 51 76 114 49 60 49 76 0 39 -18 -14 -51 -31 -73 -39 -49
-17 -57 -25 -84 -77 -24 -47 -28 -49 -47 -25 -9 13 -9 22 -2 31 8 9 6 11 -8 6
-18 -5 -18 -4 1 11 11 9 28 23 38 30 15 10 17 20 12 49 -4 20 -13 36 -20 36
-17 0 -26 49 -10 58 18 10 7 72 -12 72 -12 0 -15 13 -13 68 2 37 2 84 1 105
l-1 38 -30 -16 c-16 -9 -30 -17 -30 -18 -1 -16 -59 -167 -59 -155 -1 9 10 49
24 89 18 55 35 84 72 121 51 52 48 63 -8 23 -60 -45 -95 -103 -118 -203 -7
-29 -17 -55 -22 -58 -5 -3 -9 -20 -10 -37 -1 -31 -1 -31 -11 8 -13 54 -3 134
21 166 11 14 26 43 35 63 8 20 31 61 51 91 20 30 35 60 33 67 -3 7 16 26 40
42 25 17 52 43 61 58 16 28 44 41 114 53 21 3 54 17 75 31 20 14 45 23 54 20
31 -8 125 20 175 52 48 31 178 89 221 99 29 7 39 23 21 37 -8 6 -21 20 -29 31
-14 18 -12 17 24 -3 23 -14 46 -20 58 -16z m1171 10 c13 -10 14 -15 5 -23 -24
-18 -49 -23 -69 -13 -15 9 -17 15 -9 30 12 23 47 26 73 6z m513 -16 c22 -9 25
-13 14 -23 -10 -9 -13 -9 -17 1 -3 6 -11 12 -19 12 -8 0 -14 5 -14 10 0 12 2
12 36 0z m2072 -150 c2 -66 -13 -89 -55 -88 -16 1 -35 -2 -41 -6 -24 -15 -61
6 -72 40 -20 60 -11 75 65 114 70 36 70 36 86 15 9 -12 16 -42 17 -75z m-1876
64 c21 -15 35 -30 32 -35 -10 -16 -61 -9 -88 12 -30 24 -33 36 -8 42 9 3 19 5
21 6 3 0 22 -11 43 -25z m-263 4 c16 -9 17 -16 8 -35 -11 -25 -15 -27 -36 -14
-12 8 -12 12 -2 25 7 8 10 20 6 26 -8 13 1 13 24 -2z m-20 -75 c2 -2 -5 -3
-17 -3 -14 0 -22 6 -22 16 0 14 3 15 18 3 9 -7 19 -15 21 -16z m2689 -14 c3
-26 2 -27 -50 -25 -68 1 -71 -19 -7 -52 103 -52 80 -152 -35 -152 -62 0 -76 7
-76 41 0 30 9 36 27 18 14 -14 75 -8 81 8 2 7 -11 21 -28 30 -64 36 -80 53
-80 88 0 51 38 77 109 73 52 -3 56 -5 59 -29z m-2026 -6 c24 -28 29 -53 16
-76 -23 -44 -59 -50 -76 -12 -17 36 -15 65 5 87 20 23 36 23 55 1z m2128 -18
c0 -18 5 -25 20 -25 13 0 20 -7 20 -20 0 -13 -7 -20 -20 -20 -17 0 -20 -7 -20
-45 0 -38 3 -45 20 -45 15 0 20 -7 20 -25 0 -22 -4 -25 -34 -25 -50 0 -66 21
-66 86 0 41 -4 54 -15 54 -8 0 -15 9 -15 20 0 11 7 20 15 20 8 0 15 9 15 19 0
18 14 27 48 30 6 0 12 -10 12 -24z m550 0 c0 -20 5 -25 25 -25 18 0 25 -5 25
-20 0 -15 -7 -20 -25 -20 -22 0 -25 -4 -25 -38 0 -42 15 -63 37 -55 11 4 14 0
11 -18 -2 -20 -10 -25 -40 -27 -47 -4 -68 24 -68 90 0 36 -4 48 -15 48 -8 0
-15 9 -15 20 0 11 7 20 15 20 8 0 15 9 15 19 0 18 14 27 48 30 6 0 12 -10 12
-24z m2350 0 c0 -18 5 -25 20 -25 13 0 20 -7 20 -20 0 -14 -7 -20 -21 -20 -18
0 -20 -5 -17 -47 2 -40 6 -47 21 -45 14 3 18 -2 15 -20 -2 -18 -10 -24 -36
-26 -49 -5 -62 11 -62 79 0 46 -3 59 -15 59 -8 0 -15 9 -15 20 0 11 7 20 15
20 8 0 15 9 15 19 0 18 14 27 48 30 6 0 12 -10 12 -24z m-2700 -45 c16 -16 20
-33 20 -89 l0 -69 -70 0 c-64 0 -72 2 -87 24 -12 19 -13 30 -5 49 11 23 18 27
75 39 15 4 27 11 27 16 0 13 -31 13 -64 0 -23 -9 -26 -7 -26 15 0 26 13 32 73
34 25 1 43 -5 57 -19z m120 10 c0 -7 6 -7 19 0 29 15 62 12 83 -7 14 -13 18
-31 18 -90 l0 -73 -30 0 c-30 0 -30 0 -30 59 0 67 -17 93 -44 66 -11 -11 -16
-34 -16 -71 0 -53 0 -54 -30 -54 l-30 0 0 90 0 90 30 0 c17 0 30 -5 30 -10z
m454 -12 c38 -35 39 -96 1 -133 -32 -33 -100 -35 -139 -4 -36 29 -37 99 -1
134 33 34 103 35 139 3z m126 11 c0 -8 4 -8 14 0 8 7 30 11 48 9 42 -4 58 -34
58 -115 l0 -63 -35 0 -35 0 0 64 c0 45 -4 65 -14 69 -24 9 -36 -15 -36 -75 0
-58 0 -58 -30 -58 l-30 0 0 90 0 90 30 0 c17 0 30 -5 30 -11z m390 -9 c16 -16
20 -33 20 -89 l0 -69 -70 0 c-75 0 -100 12 -100 49 0 26 35 59 63 59 12 0 29
4 37 10 24 15 -18 25 -51 13 -27 -10 -29 -9 -29 12 0 28 11 33 68 34 29 1 48
-5 62 -19z m120 10 c0 -7 6 -7 19 0 26 13 64 13 78 -1 8 -8 17 -8 31 0 30 16
63 14 84 -6 14 -13 18 -31 18 -90 l0 -73 -30 0 c-30 0 -30 0 -30 58 0 60 -12
84 -36 75 -10 -4 -14 -24 -14 -69 l0 -64 -35 0 -35 0 0 66 c0 62 -1 65 -22 62
-21 -3 -23 -9 -26 -65 -3 -62 -3 -63 -32 -63 l-30 0 0 90 0 90 30 0 c17 0 30
-5 30 -10z m432 -20 c26 -27 30 -36 25 -68 -9 -52 -46 -82 -103 -82 -59 0 -94
32 -94 88 0 60 35 91 103 92 30 0 45 -7 69 -30z m118 18 c0 -9 3 -9 12 0 7 7
27 12 44 12 48 0 64 -29 64 -112 l0 -68 -30 0 c-30 0 -30 0 -30 58 0 65 -13
87 -42 71 -14 -8 -18 -22 -18 -69 0 -60 0 -60 -30 -60 l-30 0 0 90 0 90 30 0
c17 0 30 -5 30 -12z m268 0 c9 -9 12 -9 12 0 0 7 13 12 30 12 l30 0 0 -90 c0
-136 -31 -175 -131 -168 -40 3 -44 6 -47 32 -3 25 -1 28 15 21 42 -17 61 -17
82 4 12 12 21 26 21 33 0 9 -3 9 -12 0 -19 -19 -76 -14 -98 8 -29 29 -28 106
2 137 24 25 76 31 96 11z m272 -53 l17 -60 18 63 c16 58 20 62 46 62 35 0 35
-5 0 -100 -27 -72 -30 -75 -63 -78 -27 -2 -37 1 -43 15 -10 26 -55 156 -55
160 0 3 14 3 32 1 29 -3 33 -7 48 -63z m270 47 c14 -11 22 -30 23 -52 l2 -35
-59 -5 c-52 -4 -57 -7 -43 -19 11 -9 30 -12 53 -8 32 5 35 4 32 -16 -3 -19
-10 -22 -55 -25 -68 -4 -103 25 -103 86 0 77 91 122 150 74z m318 -9 c3 -20 0
-21 -32 -16 -47 7 -48 -12 -2 -31 38 -16 52 -45 36 -76 -13 -24 -43 -33 -96
-28 -32 2 -40 7 -42 26 -3 21 -1 22 36 16 51 -8 64 11 17 26 -55 18 -69 56
-34 91 16 16 30 19 67 17 40 -3 47 -6 50 -25z m-6624 -45 c4 -17 2 -28 -4 -28
-5 0 -10 14 -10 32 0 36 4 35 14 -4z m660 0 c14 -9 1 -22 -13 -13 -6 3 -11 16
-10 28 0 15 2 17 6 7 3 -8 11 -18 17 -22z m2243 0 c-3 -8 -6 -5 -6 6 -1 11 2
17 5 13 3 -3 4 -12 1 -19z m-2295 -133 c9 -17 26 -39 38 -50 12 -11 28 -32 36
-47 14 -27 14 -27 -23 -37 -88 -23 -138 1 -150 71 -4 27 2 51 27 104 l33 68
12 -39 c6 -22 19 -54 27 -70z m-815 -19 c54 -62 58 -117 12 -163 -16 -18 -32
-43 -35 -58 -2 -14 -18 -44 -34 -67 -17 -23 -30 -47 -30 -55 0 -8 -6 -13 -12
-10 -8 2 -12 17 -10 35 2 17 -4 44 -12 61 -22 41 -20 104 4 153 11 23 20 48
20 55 0 22 42 73 60 73 9 0 26 -11 37 -24z m178 6 c13 -1 18 -28 11 -56 -4
-17 -60 -56 -81 -56 -11 0 -35 34 -35 51 0 29 59 80 79 69 9 -4 21 -8 26 -8z
m2456 -51 c52 -52 32 -92 -32 -64 -70 30 -84 39 -87 57 -9 45 75 50 119 7z
m-2965 -35 c15 -12 17 -17 6 -28 -15 -15 -45 0 -50 26 -4 20 18 21 44 2z
m4654 -21 c10 -12 10 -18 0 -30 -27 -32 -71 -8 -56 30 3 8 14 15 24 15 11 0
25 -7 32 -15z m1632 -62 l3 -78 18 33 c15 27 23 32 52 32 19 0 35 -3 35 -7 -1
-5 -14 -23 -30 -42 l-29 -34 35 -49 36 -48 -39 0 c-33 0 -41 5 -60 38 l-22 37
-1 -37 c0 -37 -1 -38 -35 -38 l-35 0 0 135 0 135 35 0 34 0 3 -77z m923 47 c0
-29 -34 -40 -54 -17 -18 23 -2 49 28 45 20 -2 26 -8 26 -28z m225 -105 l0
-135 -30 0 c-17 0 -30 5 -30 12 0 9 -3 9 -12 0 -7 -7 -27 -12 -44 -12 -69 0
-101 104 -48 156 20 21 33 25 65 22 l39 -4 0 48 c0 47 1 48 30 48 l30 0 0
-135z m-6802 87 c4 -37 -12 -62 -38 -62 -23 0 -36 17 -44 57 -8 34 4 43 54 40
21 -2 26 -8 28 -35z m3412 -17 c0 -18 5 -25 20 -25 13 0 20 -7 20 -20 0 -14
-7 -20 -21 -20 -18 0 -20 -5 -17 -47 2 -40 6 -47 21 -45 14 3 18 -2 15 -20 -3
-20 -9 -23 -43 -23 -47 0 -65 25 -65 93 0 31 -4 42 -15 42 -8 0 -15 9 -15 20
0 11 7 20 15 20 8 0 15 7 15 15 0 16 27 34 53 35 12 0 17 -8 17 -25z m480 0
c0 -20 5 -25 25 -25 18 0 25 -5 25 -20 0 -15 -7 -20 -25 -20 -22 0 -25 -4 -25
-38 0 -42 15 -63 37 -55 11 4 14 0 11 -18 -2 -20 -10 -25 -40 -27 -47 -4 -68
24 -68 90 0 36 -4 48 -15 48 -8 0 -15 9 -15 20 0 11 7 20 15 20 8 0 15 9 15
19 0 18 14 27 48 30 6 0 12 -10 12 -24z m790 0 c0 -18 5 -25 20 -25 13 0 20
-7 20 -20 0 -14 -7 -20 -21 -20 -18 0 -20 -5 -17 -47 2 -40 6 -47 21 -45 14 3
18 -2 15 -20 -3 -20 -9 -23 -43 -23 -47 0 -65 25 -65 93 0 31 -4 42 -15 42 -8
0 -15 9 -15 20 0 11 7 20 15 20 8 0 15 7 15 15 0 16 27 34 53 35 12 0 17 -8
17 -25z m1630 0 c0 -18 5 -25 20 -25 13 0 20 -7 20 -20 0 -14 -7 -20 -21 -20
-18 0 -20 -5 -17 -47 2 -40 6 -47 21 -45 14 3 18 -2 15 -20 -3 -20 -9 -23 -43
-23 -47 0 -65 25 -65 93 0 31 -4 42 -15 42 -8 0 -15 9 -15 20 0 11 7 20 15 20
8 0 15 7 15 15 0 16 27 34 53 35 12 0 17 -8 17 -25z m-7292 -150 c0 -66 -3
-142 -8 -170 -7 -48 -7 -46 -10 35 -2 59 -6 23 -12 -115 -5 -110 -7 -224 -6
-253 2 -28 0 -52 -4 -52 -5 0 -8 -25 -8 -55 0 -30 -3 -55 -7 -55 -10 0 -9 -78
1 -105 4 -11 0 -8 -9 8 -8 15 -20 27 -25 27 -6 0 -8 23 -5 58 l5 57 -13 -40
c-9 -27 -15 -35 -19 -25 -5 11 -7 8 -7 -7 -1 -12 4 -25 9 -28 6 -3 10 -11 10
-17 0 -7 -4 -7 -13 1 -19 15 -27 4 -21 -29 l6 -28 -53 14 c-29 8 -63 14 -74
14 -35 0 -112 43 -130 72 l-16 28 38 -1 c21 0 32 -3 26 -6 -7 -2 -13 -8 -13
-13 0 -13 84 -42 109 -38 37 5 24 22 -26 35 l-48 12 73 -3 c39 -2 72 1 72 5 0
5 -7 9 -15 9 -9 0 -12 6 -8 17 5 11 3 14 -6 8 -10 -6 -11 0 -6 26 4 19 13 45
20 59 7 14 15 57 18 95 3 39 3 61 1 50 -9 -34 -54 -149 -64 -165 -11 -16 -6
20 10 72 5 15 6 60 4 100 -4 54 0 93 15 148 l20 75 -4 -55 c-3 -30 -8 -66 -12
-79 -4 -17 -3 -22 5 -17 8 4 12 0 13 -11 0 -13 3 -12 10 7 6 13 15 28 22 32 9
6 9 8 -1 8 -9 0 -9 5 -2 18 5 9 16 43 23 75 14 56 8 74 -12 40 -9 -16 -10 -16
-11 -2 0 22 20 82 32 94 7 6 8 -2 4 -25 -5 -31 -5 -32 5 -10 6 14 8 37 5 53
-3 15 -2 27 2 27 8 0 32 71 32 94 0 9 14 29 30 46 17 17 30 36 31 43 1 7 5 1
9 -13 4 -14 8 -79 8 -145z m4280 98 c3 -20 0 -21 -32 -16 -47 7 -48 -12 -2
-31 38 -16 52 -45 36 -76 -13 -24 -43 -33 -96 -28 -32 2 -40 7 -42 26 -3 21
-1 22 36 16 51 -8 64 11 17 26 -55 18 -69 56 -34 91 16 16 30 19 67 17 40 -3
47 -6 50 -25z m312 7 c16 -16 20 -33 20 -89 l0 -69 -70 0 c-75 0 -100 12 -100
49 0 26 35 59 63 59 12 0 29 4 37 10 24 15 -18 25 -51 13 -27 -10 -29 -9 -29
12 0 28 11 33 68 34 29 1 48 -5 62 -19z m120 8 c0 -9 3 -9 12 0 22 22 48 14
48 -13 0 -17 -5 -25 -18 -25 -30 0 -42 -22 -42 -77 0 -52 0 -53 -30 -53 l-30
0 0 90 0 90 30 0 c17 0 30 -5 30 -12z m290 -78 l0 -90 -30 0 -30 0 0 90 0 90
30 0 30 0 0 -90z m100 80 c0 -7 6 -7 19 0 29 15 62 12 83 -7 14 -13 18 -31 18
-90 l0 -73 -30 0 c-30 0 -30 0 -30 59 0 67 -17 93 -44 66 -11 -11 -16 -34 -16
-71 0 -53 0 -54 -30 -54 l-30 0 0 90 0 90 30 0 c17 0 30 -5 30 -10z m340 -91
c0 -98 -1 -101 -30 -130 -26 -27 -35 -30 -82 -27 -49 3 -53 5 -56 30 -3 27 -2
27 28 17 24 -9 35 -8 55 5 37 24 30 34 -18 29 -39 -5 -46 -2 -65 22 -26 32
-28 74 -7 115 18 35 25 38 108 38 l67 1 0 -100z m431 88 c47 -36 51 -97 10
-138 -24 -23 -38 -29 -73 -29 -46 1 -68 12 -86 47 -20 37 -14 73 17 104 24 23
38 29 73 29 24 0 50 -6 59 -13z m229 3 c0 -7 6 -7 19 0 26 13 64 13 78 -1 8
-8 17 -8 31 0 29 16 68 14 86 -5 12 -11 16 -36 16 -90 l0 -74 -30 0 -30 0 0
64 c0 45 -4 65 -14 69 -24 9 -36 -15 -36 -75 0 -58 0 -58 -30 -58 -30 0 -30 0
-30 59 0 67 -17 93 -44 66 -11 -11 -16 -34 -16 -71 0 -53 0 -54 -30 -54 l-30
0 0 90 0 90 30 0 c17 0 30 -5 30 -10z m406 -11 c13 -15 20 -40 22 -90 l4 -69
-31 0 c-17 0 -31 5 -31 12 0 9 -3 9 -12 0 -7 -7 -26 -12 -43 -12 -38 0 -55 16
-55 50 0 34 25 56 73 64 21 4 35 11 32 17 -8 12 -41 12 -66 -1 -16 -9 -19 -7
-19 14 0 29 10 34 66 35 29 1 46 -5 60 -20z m399 -4 c16 -15 25 -36 25 -55 l0
-30 -61 0 c-55 0 -60 -2 -48 -16 10 -12 24 -15 52 -11 35 5 38 3 35 -16 -3
-19 -10 -22 -54 -25 -65 -4 -93 17 -101 74 -11 87 91 141 152 79z m273 -2 c3
-20 0 -21 -32 -16 -47 7 -48 -12 -2 -31 38 -16 52 -45 36 -76 -13 -24 -43 -33
-96 -28 -32 2 -40 7 -42 26 -3 21 -1 22 36 16 51 -8 64 11 17 26 -55 18 -69
56 -34 91 16 16 30 19 67 17 40 -3 47 -6 50 -25z m302 1 c0 -16 -6 -24 -18
-24 -30 0 -42 -22 -42 -77 l0 -53 -35 0 -35 0 0 90 0 89 65 0 c62 -1 65 -2 65
-25z m80 -64 l0 -90 -30 0 -30 0 0 90 0 90 30 0 30 0 0 -90z m405 65 c16 -15
25 -36 25 -55 l0 -30 -61 0 c-55 0 -60 -2 -48 -16 10 -12 24 -15 52 -11 35 5
38 3 35 -16 -3 -19 -10 -22 -54 -25 -65 -4 -93 17 -101 74 -11 87 91 141 152
79z m173 -2 c3 -20 0 -21 -32 -16 -48 7 -47 -10 2 -34 44 -22 53 -52 22 -83
-17 -17 -31 -20 -73 -18 -45 3 -52 6 -55 25 -3 22 -1 22 42 17 57 -8 60 7 6
29 -38 15 -46 27 -40 67 3 27 33 41 80 38 38 -3 46 -7 48 -25z m-8234 -8 c3
-8 1 -15 -4 -15 -6 0 -10 7 -10 15 0 8 2 15 4 15 2 0 6 -7 10 -15z m-687 -143
l-24 -24 12 64 c21 109 30 122 33 49 3 -57 0 -67 -21 -89z m-60 16 c-3 -7 -5
-2 -5 12 0 14 2 19 5 13 2 -7 2 -19 0 -25z m4393 18 c0 -2 3 -11 6 -20 5 -12
-2 -15 -30 -13 -39 3 -49 17 -19 28 21 9 43 11 43 5z m-3934 -83 c-8 -15 -15
-25 -16 -21 0 12 23 58 27 54 3 -2 -2 -17 -11 -33z m-540 -25 c-4 -23 -12 -48
-18 -55 -5 -7 -8 -19 -5 -27 5 -14 -5 -49 -36 -118 -25 -56 -22 -65 36 -87 28
-11 44 -20 34 -20 -10 -1 -34 6 -54 14 -25 11 -40 12 -47 5 -12 -12 19 -39 45
-40 12 0 14 -8 11 -32 l-5 -32 -21 27 c-21 25 -23 26 -39 10 -16 -16 -17 -11
-17 104 l0 121 45 48 c25 27 50 66 55 87 14 50 24 47 16 -5z m174 -30 c0 -22
-3 -29 -9 -20 -9 15 -20 15 -39 0 -7 -6 -15 -9 -18 -6 -4 5 52 58 62 58 2 0 4
-15 4 -32z m1034 -42 c14 -30 26 -62 26 -70 0 -23 -25 -19 -54 8 -20 17 -26
33 -26 63 0 72 20 71 54 -1z m3581 42 l25 -11 0 -144 c0 -122 -2 -143 -15
-143 -9 0 -33 -9 -55 -20 -22 -11 -55 -20 -74 -20 -45 0 -49 15 -50 165 -1 91
2 116 17 138 29 45 97 60 152 35z m-4295 -28 c-6 -11 -13 -20 -16 -20 -2 0 0
9 6 20 6 11 13 20 16 20 2 0 0 -9 -6 -20z m-50 -74 c0 -2 -8 -10 -17 -17 -16
-13 -17 -12 -4 4 13 16 21 21 21 13z m3030 -26 c0 -5 -2 -10 -4 -10 -3 0 -8 5
-11 10 -3 6 -1 10 4 10 6 0 11 -4 11 -10z m-3101 -60 c-31 -38 -39 -46 -39
-35 0 6 61 75 67 75 2 0 -11 -18 -28 -40z m538 -37 c-2 -16 -4 -3 -4 27 0 30
2 43 4 28 2 -16 2 -40 0 -55z m-693 48 c8 -13 -44 -110 -65 -121 -17 -10 -18
-8 -9 15 5 13 7 31 4 39 -3 7 2 16 11 19 8 4 20 18 25 32 10 25 24 32 34 16z
m5616 -51 c0 -33 -4 -60 -10 -60 -6 0 -10 27 -10 60 0 33 4 60 10 60 6 0 10
-27 10 -60z m810 41 c0 -13 8 -21 23 -23 18 -2 23 -10 25 -40 2 -21 -1 -38 -7
-38 -5 0 -11 14 -13 32 -4 46 -28 49 -28 4 0 -20 -4 -36 -10 -36 -6 0 -10 27
-10 60 0 33 4 60 10 60 6 0 10 -9 10 -19z m90 9 c0 -5 -4 -10 -10 -10 -5 0
-10 5 -10 10 0 6 5 10 10 10 6 0 10 -4 10 -10z m260 -9 c0 -13 8 -21 23 -23
18 -2 23 -10 25 -40 2 -21 -1 -38 -7 -38 -5 0 -11 14 -13 32 -4 46 -28 49 -28
4 0 -20 -4 -36 -10 -36 -6 0 -10 27 -10 60 0 33 4 60 10 60 6 0 10 -9 10 -19z
m470 9 c0 -5 -4 -10 -10 -10 -5 0 -10 5 -10 10 0 6 5 10 10 10 6 0 10 -4 10
-10z m180 -10 c0 -11 4 -20 10 -20 5 0 16 -15 23 -32 l14 -33 7 33 c4 17 12
32 17 32 21 0 -28 -111 -51 -118 -13 -5 -13 -3 -1 12 12 14 12 23 0 59 l-14
42 -3 -37 c-5 -61 -22 -44 -22 22 0 33 4 60 10 60 6 0 10 -9 10 -20z m823 13
c-7 -2 -13 -11 -13 -19 0 -8 6 -14 13 -15 10 0 10 -2 0 -6 -7 -2 -13 -20 -13
-39 0 -47 -17 -43 -22 6 -5 50 6 80 29 79 11 0 13 -3 6 -6z m1027 -3 c0 -5 -7
-10 -15 -10 -8 0 -15 5 -15 10 0 6 7 10 15 10 8 0 15 -4 15 -10z m90 -9 c0
-13 8 -21 23 -23 18 -2 23 -10 25 -40 2 -21 -1 -38 -7 -38 -5 0 -11 14 -13 32
-4 46 -28 49 -28 4 0 -20 -4 -36 -10 -36 -6 0 -10 27 -10 60 0 33 4 60 10 60
6 0 10 -9 10 -19z m-6760 0 c0 -5 -12 -14 -27 -19 -20 -6 2 -8 77 -7 58 2 113
6 123 10 19 8 21 3 8 -23 -5 -9 -12 -25 -15 -35 -3 -10 -10 -16 -15 -12 -5 3
-13 1 -16 -5 -4 -6 -39 -27 -78 -47 -68 -34 -75 -35 -142 -30 -38 4 -96 15
-128 26 -31 11 -84 25 -117 32 -33 6 -60 15 -60 19 0 17 72 20 200 9 130 -11
138 -11 209 11 63 19 71 24 53 31 -13 5 -43 4 -72 -3 -42 -10 -58 -9 -104 7
-43 15 -53 22 -44 32 12 15 148 19 148 4z m2293 2 c-15 -3 -23 -12 -23 -24 0
-13 7 -19 23 -20 l22 -2 -22 -4 c-16 -3 -23 -11 -23 -29 0 -13 -4 -24 -10 -24
-5 0 -10 25 -10 55 l0 55 33 -1 c23 -1 26 -3 10 -6z m978 -3 c43 -24 11 -100
-43 -100 -27 0 -28 1 -28 55 0 52 1 55 26 55 14 0 34 -5 45 -10z m67 -42 c-3
-48 -5 -53 -28 -55 -14 -1 -18 0 -7 3 13 4 17 16 17 55 0 28 5 49 11 49 6 0 9
-21 7 -52z m92 3 c0 -46 2 -50 28 -54 22 -3 20 -4 -10 -6 l-38 -1 0 55 c0 30
5 55 10 55 6 0 10 -22 10 -49z m185 7 l18 -43 19 43 c10 23 23 42 28 42 6 0
10 -25 10 -55 0 -30 -4 -55 -10 -55 -5 0 -10 15 -10 33 l-1 32 -14 -32 c-8
-18 -18 -33 -22 -33 -4 0 -15 17 -25 38 l-16 37 -1 -37 c-2 -60 -21 -44 -21
17 0 69 20 74 45 13z m1805 -13 c0 -30 -4 -55 -10 -55 -5 0 -10 20 -10 45 0
38 -3 44 -17 39 -15 -5 -15 -3 1 10 31 25 36 20 36 -39z m96 40 c4 -8 1 -22
-6 -30 -9 -11 -10 -15 -1 -15 7 0 11 -10 9 -22 -2 -18 -11 -24 -35 -26 -19 -2
-33 1 -33 8 0 6 10 8 25 4 19 -5 25 -2 25 11 0 9 -10 19 -22 23 l-22 5 23 9
c25 9 23 34 -3 32 -9 -1 -16 2 -16 7 0 15 50 10 56 -6z m416 -23 c1 -21 2 -45
0 -55 -4 -21 -22 -23 -22 -2 0 9 -9 15 -25 15 -14 0 -25 3 -25 6 0 10 52 74
60 74 4 0 10 -17 12 -38z m86 26 c26 -26 7 -98 -26 -98 -27 0 -42 20 -42 55 0
34 15 55 40 55 9 0 21 -5 28 -12z m104 0 c-7 -7 -12 -33 -12 -58 0 -25 5 -51
12 -58 7 -7 8 -12 2 -12 -20 0 -34 25 -34 63 0 42 14 77 32 77 9 0 9 -3 0 -12z
m104 -18 c0 -14 4 -31 8 -38 4 -7 2 -19 -4 -27 -13 -16 -60 -21 -60 -7 0 5 10
8 21 8 31 -1 35 22 7 33 -17 7 -18 10 -5 10 10 1 17 9 17 22 0 16 -5 20 -20
16 -11 -3 -20 -1 -20 5 0 5 12 8 28 6 21 -2 27 -8 28 -28z m93 16 c15 -18 5
-41 -27 -63 l-27 -18 35 -6 35 -6 -42 -2 c-24 0 -43 1 -43 4 0 2 14 20 31 39
32 37 31 61 -2 53 -11 -3 -19 -1 -19 4 0 14 46 11 59 -5z m74 7 c-29 -5 -30
-29 -2 -36 16 -4 20 -12 17 -34 -2 -23 -8 -28 -35 -31 -19 -2 -33 1 -33 7 0 6
10 10 22 8 30 -3 38 32 9 40 -14 3 -21 13 -21 29 0 21 5 24 33 23 23 -1 26 -3
10 -6z m57 -12 c20 -39 6 -121 -21 -121 -6 0 -6 7 1 19 5 11 10 34 10 51 0 17
-5 40 -10 51 -7 12 -7 19 -1 19 6 0 15 -9 21 -19z m-1684 -6 c9 -8 11 -15 5
-15 -15 0 -14 -43 1 -58 9 -9 8 -12 -5 -12 -15 0 -24 19 -28 60 -4 42 3 49 27
25z m1940 0 c9 -8 11 -15 5 -15 -15 0 -14 -43 1 -58 9 -9 8 -12 -5 -12 -15 0
-24 19 -28 60 -4 42 3 49 27 25z m-4312 -27 c16 -26 -4 -53 -40 -53 -23 0 -30
5 -32 23 -2 13 -1 30 2 38 8 20 56 14 70 -8z m59 15 c-7 -2 -13 -20 -13 -39 0
-19 -4 -34 -10 -34 -5 0 -10 18 -10 40 0 35 3 40 23 39 12 0 16 -3 10 -6z
m135 -15 c3 -14 -3 -18 -27 -18 -24 0 -29 -4 -24 -16 3 -9 13 -14 24 -11 11 3
19 1 19 -4 0 -5 -11 -9 -25 -9 -32 0 -50 32 -35 61 14 25 63 23 68 -3z m35 10
c4 -10 7 -10 18 0 20 18 31 15 18 -7 -7 -11 -9 -26 -4 -37 7 -18 8 -18 12 -2
3 10 15 21 29 24 13 3 24 11 24 16 0 6 -9 8 -20 5 -11 -3 -20 -1 -20 5 0 5 12
8 28 6 23 -3 27 -8 30 -41 l3 -37 -48 1 c-26 1 -52 7 -56 13 -6 8 -10 7 -14
-1 -2 -7 -12 -13 -20 -13 -14 0 -13 3 2 20 14 16 16 23 7 32 -7 7 -12 16 -12
20 0 13 18 9 23 -4z m249 -2 c11 -16 10 -66 -1 -66 -6 0 -11 15 -13 33 -2 17
-7 32 -13 32 -5 0 -11 -15 -13 -32 -2 -18 -7 -33 -12 -33 -5 0 -10 15 -12 33
-2 17 -7 32 -13 32 -5 0 -11 -15 -13 -32 -5 -47 -22 -41 -22 7 l0 40 53 -1
c28 -1 55 -7 59 -13z m98 -6 c14 -26 -3 -60 -30 -60 -13 0 -20 -7 -20 -20 0
-11 -4 -20 -10 -20 -6 0 -10 27 -10 60 0 60 0 60 30 60 19 0 33 -7 40 -20z
m128 -2 c3 -14 -3 -18 -27 -18 -24 0 -29 -4 -24 -16 3 -9 13 -14 24 -11 11 3
19 1 19 -4 0 -5 -11 -9 -25 -9 -32 0 -50 32 -35 61 14 25 63 23 68 -3z m450
10 c20 -20 14 -28 -19 -28 -20 0 -29 -4 -26 -12 2 -7 14 -13 26 -12 11 0 21
-3 21 -8 0 -12 -44 -10 -58 4 -24 24 -7 68 28 68 9 0 21 -5 28 -12z m230 -31
c3 -38 3 -38 -30 -35 -42 4 -51 34 -14 44 14 3 23 10 20 16 -3 5 -12 7 -20 4
-8 -3 -14 -1 -14 5 0 6 12 9 28 7 23 -3 27 -8 30 -41z m132 3 c0 -22 -4 -40
-10 -40 -5 0 -10 18 -10 40 0 22 5 40 10 40 6 0 10 -18 10 -40z m78 18 c3 -14
-3 -18 -23 -18 -17 0 -25 -5 -22 -12 2 -7 14 -13 26 -12 13 0 18 -3 12 -9 -5
-5 -19 -7 -32 -5 -28 4 -38 40 -18 64 16 19 53 14 57 -8z m42 -14 c0 -45 24
-42 28 4 5 46 22 39 22 -9 0 -39 -1 -40 -32 -37 -30 3 -33 6 -36 41 -2 21 1
37 7 37 6 0 11 -16 11 -36z m268 -7 c3 -38 3 -38 -30 -35 -42 4 -51 34 -14 44
14 3 26 11 26 16 0 6 -9 8 -20 5 -11 -3 -20 -1 -20 5 0 5 12 8 28 6 23 -3 27
-8 30 -41z m72 33 c0 -5 -6 -7 -14 -4 -8 3 -17 1 -20 -5 -4 -5 3 -13 14 -16
30 -10 21 -39 -13 -43 -15 -2 -27 2 -27 8 0 7 8 9 20 5 26 -8 26 11 0 25 -25
14 -15 40 16 40 13 0 24 -4 24 -10z m140 -50 c0 -33 -4 -60 -10 -60 -5 0 -10
9 -10 19 0 14 -8 21 -27 23 -55 6 -38 78 18 78 29 0 29 -1 29 -60z m40 24 c0
-45 24 -42 28 4 5 46 22 39 22 -9 0 -39 -1 -40 -32 -37 -30 3 -33 6 -36 41 -2
21 1 37 7 37 6 0 11 -16 11 -36z m90 -4 c0 -22 -4 -40 -10 -40 -5 0 -10 18
-10 40 0 22 5 40 10 40 6 0 10 -18 10 -40z m88 18 c3 -14 -3 -18 -27 -18 -24
0 -29 -4 -24 -16 3 -9 13 -14 24 -11 11 3 19 1 19 -4 0 -5 -11 -9 -25 -9 -32
0 -50 32 -35 61 14 25 63 23 68 -3z m300 -35 c-3 -57 -3 -58 -35 -61 -18 -2
-33 1 -33 6 0 5 10 8 21 8 12 -1 24 5 26 12 3 7 -4 12 -15 12 -31 0 -47 26
-34 55 9 19 19 25 42 25 l31 0 -3 -57z m100 20 c3 -28 -1 -33 -23 -39 -29 -7
-55 10 -55 35 0 25 22 42 50 39 20 -2 26 -9 28 -35z m90 -5 c2 -21 -1 -38 -7
-38 -5 0 -11 14 -13 32 -4 46 -28 49 -28 4 0 -20 -4 -36 -10 -36 -5 0 -10 18
-10 41 0 39 1 40 33 37 29 -3 32 -6 35 -40z m90 20 c3 -14 -3 -18 -27 -18 -24
0 -29 -4 -24 -16 3 -9 13 -14 24 -11 11 3 19 1 19 -4 0 -5 -11 -9 -25 -9 -32
0 -50 32 -35 61 14 25 63 23 68 -3z m417 -18 c0 -29 -4 -36 -23 -38 -43 -6
-69 37 -40 66 7 7 24 12 38 10 21 -3 25 -8 25 -38z m63 29 c-11 -6 -18 -22
-18 -39 0 -17 -4 -30 -10 -30 -5 0 -10 18 -10 40 0 37 2 40 28 40 23 -1 24 -2
10 -11z m752 -9 c0 -11 5 -20 10 -20 6 0 10 9 10 20 0 27 28 25 33 -2 l4 -23
8 23 c7 21 25 31 25 13 0 -19 -23 -71 -31 -71 -5 0 -13 10 -18 22 l-8 23 -7
-23 c-10 -29 -24 -28 -36 4 -13 33 -13 54 0 54 6 0 10 -9 10 -20z m120 -20 c0
-22 -4 -40 -10 -40 -5 0 -10 18 -10 40 0 22 5 40 10 40 6 0 10 -18 10 -40z
m-9160 6 c0 -3 -30 -40 -66 -83 -37 -43 -78 -95 -92 -115 -31 -48 -35 -48 -15
-1 17 42 58 95 66 87 3 -3 8 5 13 18 4 13 25 40 48 60 41 38 46 42 46 34z
m336 -38 c-9 -57 -44 -148 -67 -173 -27 -28 -24 -9 12 76 17 41 35 89 40 107
14 46 23 40 15 -10z m7747 35 c-7 -2 -21 -2 -30 0 -10 3 -4 5 12 5 17 0 24 -2
18 -5z m260 0 c-7 -2 -21 -2 -30 0 -10 3 -4 5 12 5 17 0 24 -2 18 -5z m-6454
-74 c-21 -12 -32 6 -24 38 l7 28 15 -29 c12 -24 13 -30 2 -37z m798 29 c-3 -8
-6 -5 -6 6 -1 11 2 17 5 13 3 -3 4 -12 1 -19z m2936 2 c-3 -11 -9 -20 -14 -20
-11 0 -11 3 -3 24 9 23 23 20 17 -4z m3037 10 c0 -5 -4 -10 -10 -10 -5 0 -10
5 -10 10 0 6 5 10 10 10 6 0 10 -4 10 -10z m-8083 -67 c-3 -10 -5 -2 -5 17 0
19 2 27 5 18 2 -10 2 -26 0 -35z m1388 17 c10 -11 13 -20 7 -20 -6 0 -16 9
-22 20 -6 11 -9 20 -7 20 2 0 12 -9 22 -20z m-2364 -38 c-6 -12 -11 -29 -11
-39 0 -10 -7 -27 -15 -37 -14 -19 -15 -18 -15 16 0 21 9 46 21 62 24 30 36 29
20 -2z m3089 21 c0 -5 -4 -14 -9 -22 -6 -10 -3 -19 11 -30 19 -16 17 -51 -3
-51 -14 0 -10 -28 7 -56 13 -19 20 -22 30 -13 21 17 60 -53 55 -98 -1 -6 3
-14 9 -18 5 -3 10 0 10 7 1 8 6 6 15 -6 13 -17 12 -22 -5 -46 -11 -15 -17 -29
-15 -32 2 -2 -37 -3 -88 -2 -50 2 -83 1 -72 -3 11 -3 26 -10 33 -15 14 -12
165 -3 192 12 24 13 30 -11 30 -125 0 -49 3 -100 6 -113 6 -22 8 -22 25 -6 21
19 106 26 127 11 8 -6 17 -5 27 3 9 7 25 10 41 6 18 -5 30 -3 36 6 7 10 8 9 4
-4 -4 -14 4 -18 40 -24 38 -5 44 -10 44 -30 0 -13 -8 -27 -17 -32 -21 -11 -65
-6 -73 9 -7 10 -126 19 -136 10 -9 -10 -89 -6 -96 4 -12 17 -41 -8 -68 -58
l-25 -47 -65 0 -65 0 30 25 30 25 -58 -25 c-55 -24 -66 -25 -268 -25 l-211 0
27 36 c23 30 24 34 7 25 -11 -6 -30 -23 -42 -38 -20 -26 -20 -26 -9 -3 20 40
87 127 111 144 12 9 17 16 11 16 -21 0 -96 -64 -138 -117 -23 -30 -46 -50 -55
-48 -8 2 -28 7 -45 10 l-30 6 25 -15 c24 -14 20 -15 -64 -16 l-89 0 7 53 c3
28 17 88 31 132 14 44 28 107 31 140 8 89 10 91 48 53 19 -18 47 -43 62 -56
l29 -22 -28 10 c-38 14 -42 13 -26 -6 11 -14 27 -16 89 -11 41 3 89 11 105 18
17 7 37 13 45 14 8 1 53 18 100 37 47 19 117 43 155 53 79 20 109 37 43 24
-48 -9 -158 -41 -200 -58 -16 -6 -28 -8 -28 -6 0 9 100 55 119 55 11 0 28 9
38 19 10 11 39 29 63 40 43 19 43 21 15 20 -16 0 -46 -8 -65 -18 -31 -15 -38
-15 -57 -3 -31 20 -29 29 10 37 50 10 87 26 87 39 0 6 14 19 30 28 21 12 30
25 30 42 0 34 -32 53 -144 90 -15 5 -17 9 -8 18 9 9 25 8 66 -6 54 -18 55 -18
80 1 14 11 22 23 19 27 -3 3 -1 6 5 6 7 0 12 -3 12 -7z m-620 -38 c19 -14 44
-25 56 -25 13 0 25 -4 29 -9 3 -5 31 -13 63 -17 31 -3 75 -12 97 -19 57 -18
124 -25 150 -15 30 11 157 -2 162 -17 7 -19 -87 -37 -186 -35 -67 1 -115 9
-172 27 -44 14 -99 28 -122 31 -49 8 -154 83 -134 96 17 11 20 10 57 -17z
m908 -54 c4 -27 -14 -51 -39 -51 -14 0 -19 7 -19 30 0 47 52 66 58 21z m2492
6 c0 -18 5 -23 28 -22 24 0 27 -3 27 -35 0 -33 -2 -35 -37 -38 l-38 -3 0 60
c0 34 4 61 10 61 6 0 10 -10 10 -23z m1440 -38 l0 -60 -31 3 c-58 6 -66 68
-10 76 13 2 21 11 21 23 0 10 5 19 10 19 6 0 10 -27 10 -61z m610 1 c0 -33 -4
-60 -10 -60 -6 0 -10 27 -10 60 0 33 4 60 10 60 6 0 10 -27 10 -60z m330 50
c0 -5 -7 -10 -15 -10 -8 0 -15 5 -15 10 0 6 7 10 15 10 8 0 15 -4 15 -10z
m-5842 -41 c13 -19 30 -34 39 -34 9 0 19 -10 24 -23 6 -16 16 -22 37 -22 16 0
44 -8 63 -17 28 -15 58 -18 168 -16 86 1 130 -2 124 -8 -20 -20 -209 -59 -295
-62 -26 -1 -45 6 -61 21 -28 26 -41 28 -33 5 4 -11 -1 -9 -15 7 -17 22 -19 22
-10 3 18 -37 13 -45 -18 -28 -29 14 -30 14 -39 -13 -8 -20 -11 -22 -11 -8 -1
11 -8 27 -16 36 -24 27 -30 83 -11 103 9 8 16 24 17 34 0 12 5 8 14 -13 16
-36 50 -70 38 -38 -3 10 -16 35 -28 54 -39 64 -39 63 -24 58 8 -2 24 -20 37
-39z m2958 26 c4 -8 1 -22 -6 -30 -9 -11 -10 -15 -1 -15 7 0 11 -10 9 -22 -2
-18 -11 -24 -35 -26 -18 -2 -33 1 -33 6 0 5 10 8 21 8 30 -1 37 24 8 31 l-23
6 23 9 c25 9 23 34 -3 32 -9 -1 -16 2 -16 7 0 15 50 10 56 -6z m92 7 c-1 -4
-11 -28 -22 -55 -10 -26 -23 -47 -28 -47 -10 0 -3 31 18 72 14 26 13 27 -19
31 -27 3 -25 4 11 5 24 1 42 -1 40 -6z m80 -15 c2 -11 -8 -32 -23 -47 l-27
-29 33 -4 c31 -3 30 -4 -8 -5 -49 -2 -53 5 -18 38 31 29 34 65 5 57 -11 -3
-20 -1 -20 5 0 18 55 4 58 -15z m2045 16 c-29 -5 -30 -29 -2 -36 16 -4 20 -12
17 -34 -2 -23 -8 -28 -35 -31 -19 -2 -33 1 -33 7 0 6 10 10 22 8 30 -3 38 32
9 40 -14 3 -21 13 -21 29 0 21 5 24 33 23 23 -1 26 -3 10 -6z m105 -36 c4 -44
-12 -69 -41 -65 -27 4 -41 47 -27 82 8 22 15 27 38 24 23 -3 27 -8 30 -41z
m80 31 c26 -26 7 -98 -26 -98 -27 0 -42 20 -42 55 0 34 15 55 40 55 9 0 21 -5
28 -12z m-1032 -13 c9 -8 11 -15 5 -15 -15 0 -14 -57 2 -64 6 -3 3 -5 -8 -3
-14 2 -22 12 -25 37 -6 34 -3 60 7 60 2 0 11 -7 19 -15z m2260 0 c9 -8 11 -15
5 -15 -15 0 -14 -43 1 -58 9 -9 8 -12 -5 -12 -15 0 -24 19 -28 60 -4 42 3 49
27 25z m-3788 -48 c3 -38 3 -38 -30 -35 -42 4 -51 34 -14 44 14 3 23 10 20 16
-3 5 -12 7 -20 4 -8 -3 -14 -1 -14 5 0 6 12 9 28 7 23 -3 27 -8 30 -41z m467
3 c0 -29 -4 -36 -23 -38 -43 -6 -69 37 -40 66 7 7 24 12 38 10 21 -3 25 -8 25
-38z m93 -2 c2 -22 -1 -38 -7 -38 -6 0 -11 16 -11 36 0 45 -24 42 -28 -4 -5
-46 -22 -39 -22 9 0 39 1 40 33 37 29 -3 32 -6 35 -40z m240 -1 c3 -38 3 -38
-30 -35 -39 4 -45 28 -10 43 27 12 29 29 2 22 -11 -3 -17 -1 -14 5 3 5 16 8
27 6 18 -2 23 -11 25 -41z m72 33 c0 -5 -7 -7 -15 -4 -20 8 -19 -13 2 -24 21
-12 10 -42 -17 -42 -11 0 -20 4 -20 10 0 5 7 7 15 4 20 -8 19 13 -2 24 -21 12
-10 42 17 42 11 0 20 -4 20 -10z m88 -12 c3 -14 -3 -18 -27 -18 -24 0 -29 -4
-24 -16 3 -9 13 -14 24 -11 11 3 19 1 19 -4 0 -5 -11 -9 -25 -9 -32 0 -50 32
-35 61 14 25 63 23 68 -3z m131 5 c9 -17 11 -17 23 0 17 23 61 19 66 -5 3 -14
-3 -18 -27 -18 -24 0 -29 -4 -24 -16 3 -9 13 -14 24 -11 11 3 19 1 19 -4 0
-16 -49 -9 -60 9 -10 16 -10 16 -20 0 -6 -10 -20 -18 -30 -18 -13 0 -20 -7
-20 -20 0 -11 -4 -20 -10 -20 -6 0 -10 27 -10 60 0 60 0 60 30 60 17 0 33 -7
39 -17z m137 1 c-9 -8 -16 -26 -16 -40 0 -13 -4 -24 -10 -24 -5 0 -10 18 -10
40 0 36 2 40 26 40 23 0 24 -1 10 -16z m84 7 c0 -5 -8 -7 -19 -4 -11 3 -21 -2
-24 -11 -10 -25 3 -48 24 -43 11 3 19 1 19 -4 0 -18 -49 -9 -60 11 -15 28 4
60 35 60 14 0 25 -4 25 -9z m78 -13 c3 -14 -3 -18 -23 -18 -17 0 -25 -5 -22
-12 2 -7 14 -13 26 -12 13 0 18 -3 12 -9 -5 -5 -19 -7 -32 -5 -28 4 -38 40
-18 64 16 19 53 14 57 -8z m90 -20 c2 -21 -1 -38 -7 -38 -5 0 -11 14 -13 32
-4 46 -28 49 -28 4 0 -20 -4 -36 -10 -36 -5 0 -10 18 -10 41 0 39 1 40 33 37
29 -3 32 -6 35 -40z m130 0 c3 -36 2 -38 -26 -38 -17 0 -32 6 -35 14 -6 16 11
36 30 36 7 0 13 5 13 11 0 6 -9 8 -21 4 -15 -5 -19 -4 -14 5 4 6 17 10 28 8
17 -2 23 -11 25 -40z m102 -6 c0 -26 -5 -53 -12 -60 -14 -14 -54 -16 -63 -3
-3 6 7 9 21 8 36 -3 43 21 7 25 -55 6 -38 78 18 78 28 0 29 -2 29 -48z m78 36
c20 -20 14 -28 -19 -28 -20 0 -29 -4 -26 -12 2 -7 14 -13 26 -12 11 0 21 -3
21 -8 0 -12 -44 -10 -58 4 -24 24 -7 68 28 68 9 0 21 -5 28 -12z m130 -31 c3
-38 3 -38 -30 -35 -42 4 -51 34 -14 44 14 3 23 10 20 16 -3 5 -12 7 -20 4 -8
-3 -14 -1 -14 5 0 6 12 9 28 7 23 -3 27 -8 30 -41z m90 1 c2 -21 -1 -38 -7
-38 -5 0 -11 14 -13 32 -4 46 -28 49 -28 4 0 -20 -4 -36 -10 -36 -5 0 -10 18
-10 41 0 39 1 40 33 37 29 -3 32 -6 35 -40z m220 -1 c3 -38 3 -38 -30 -35 -42
4 -51 34 -14 44 14 3 23 10 20 16 -3 5 -12 7 -20 4 -8 -3 -14 -1 -14 5 0 6 12
9 28 7 23 -3 27 -8 30 -41z m452 32 c0 -6 -9 -8 -20 -4 -11 3 -20 2 -20 -4 0
-5 9 -13 21 -16 29 -10 20 -39 -14 -43 -15 -2 -27 1 -27 6 0 6 9 8 20 5 26 -7
25 4 -2 26 -12 10 -18 23 -14 29 9 15 56 16 56 1z m70 -18 c0 -17 5 -33 11
-37 14 -8 29 14 29 44 0 12 5 22 10 22 6 0 10 -18 10 -40 0 -39 -1 -40 -34
-40 -22 0 -36 6 -40 16 -9 25 -7 64 4 64 6 0 10 -13 10 -29z m150 -19 c0 -26
-5 -53 -12 -60 -14 -14 -54 -16 -63 -3 -3 6 7 9 21 8 36 -3 43 21 7 25 -55 6
-38 78 18 78 28 0 29 -2 29 -48z m88 -9 c-3 -57 -3 -58 -35 -61 -18 -2 -33 1
-33 6 0 5 10 8 21 8 12 -1 24 5 26 12 3 7 -4 12 -15 12 -31 0 -47 26 -34 55 9
19 19 25 42 25 l31 0 -3 -57z m42 17 c0 -22 -4 -40 -10 -40 -5 0 -10 18 -10
40 0 22 5 40 10 40 6 0 10 -18 10 -40z m88 -2 c2 -22 -1 -38 -7 -38 -6 0 -11
16 -11 36 0 45 -24 42 -28 -4 -5 -46 -22 -39 -22 9 0 39 1 40 33 37 29 -3 32
-6 35 -40z m102 1 c0 -56 -14 -79 -50 -79 -17 0 -30 5 -30 11 0 6 7 8 16 5 9
-4 23 -1 32 6 13 11 11 14 -14 18 -21 4 -30 12 -32 28 -6 39 5 52 43 52 34 0
35 -1 35 -41z m138 13 c4 -28 -14 -52 -39 -52 -12 0 -19 -7 -19 -20 0 -11 -4
-20 -10 -20 -6 0 -10 27 -10 61 l0 60 38 -3 c30 -2 38 -7 40 -26z m80 6 c3
-14 -3 -18 -23 -18 -17 0 -25 -5 -22 -12 2 -7 14 -13 26 -12 13 0 18 -3 12 -9
-5 -5 -19 -7 -32 -5 -28 4 -38 40 -18 64 16 19 53 14 57 -8z m60 11 c-11 -6
-18 -22 -18 -39 0 -17 -4 -30 -10 -30 -5 0 -10 18 -10 40 0 37 2 40 28 40 23
-1 24 -2 10 -11z m82 1 c0 -5 -10 -9 -22 -7 -24 2 -38 -27 -21 -44 14 -14 41
0 45 23 4 29 33 46 55 32 30 -19 27 -34 -7 -34 -21 0 -30 -4 -27 -12 2 -7 14
-13 26 -12 11 0 21 -3 21 -8 0 -11 -48 -10 -55 2 -4 6 -13 5 -25 -3 -37 -22
-77 25 -50 58 14 17 60 20 60 5z m158 -32 c2 -22 -1 -38 -7 -38 -6 0 -11 16
-11 36 0 45 -24 42 -28 -4 -5 -46 -22 -39 -22 9 0 39 1 40 33 37 29 -3 32 -6
35 -40z m140 -1 c3 -38 3 -38 -30 -35 -42 4 -51 34 -14 44 14 3 26 11 26 16 0
6 -9 8 -20 5 -11 -3 -20 -1 -20 5 0 5 12 8 28 6 23 -3 27 -8 30 -41z m92 -5
c0 -26 -5 -53 -12 -60 -14 -14 -58 -16 -58 -4 0 5 10 8 21 8 12 -1 24 5 26 12
3 7 -3 12 -14 12 -23 0 -43 18 -43 40 0 24 21 40 52 40 27 0 28 -2 28 -48z
m88 26 c3 -14 -3 -18 -27 -18 -24 0 -29 -4 -24 -16 4 -11 13 -14 32 -9 20 5
23 4 15 -5 -19 -20 -59 -8 -62 18 -2 13 -1 30 2 38 8 21 60 14 64 -8z m-4378
-116 l0 -128 -72 4 c-40 2 -77 7 -81 11 -10 10 25 142 46 174 12 19 88 67 105
67 1 0 2 -58 2 -128z m943 101 c-7 -2 -21 -2 -30 0 -10 3 -4 5 12 5 17 0 24
-2 18 -5z m-5405 -20 c-10 -2 -26 -2 -35 0 -10 3 -2 5 17 5 19 0 27 -2 18 -5z
m95 0 c-7 -2 -21 -2 -30 0 -10 3 -4 5 12 5 17 0 24 -2 18 -5z m2087 -3 c20 -6
21 -8 5 -8 -11 -1 -38 3 -60 7 l-40 9 35 0 c19 0 46 -4 60 -8z m-2276 -35 c-7
-19 -14 -47 -14 -63 0 -15 -5 -33 -12 -40 -8 -8 -8 -12 -1 -12 6 0 18 11 27
25 18 28 54 31 189 18 62 -5 67 -8 67 -29 0 -30 14 -30 43 -3 19 18 30 20 87
14 36 -3 78 -12 94 -20 16 -8 32 -12 37 -9 12 7 49 -56 49 -86 0 -14 12 -68
25 -119 16 -60 25 -122 25 -168 l0 -73 -58 0 -58 0 7 53 c15 104 8 113 -22 27
-21 -61 -39 -80 -75 -80 l-27 0 6 123 6 122 -28 -60 c-15 -33 -38 -88 -52
-122 -21 -57 -26 -63 -52 -63 -30 0 -30 2 6 54 15 21 17 30 8 36 -10 6 -9 18
3 54 22 64 19 81 -5 26 -23 -53 -100 -170 -112 -170 -5 0 -5 5 -2 10 9 14 -18
13 -33 -2 -28 -28 -22 6 10 54 63 95 129 218 117 218 -5 0 -15 -15 -23 -33
-13 -32 -16 -33 -67 -34 -30 0 -57 4 -61 10 -5 9 -15 9 -38 0 -17 -7 -38 -9
-46 -6 -23 9 0 29 56 49 48 17 58 34 19 34 -12 0 -17 5 -14 10 8 12 -120 8
-132 -4 -12 -11 19 -26 54 -26 25 0 31 -4 27 -15 -4 -8 -17 -15 -30 -15 -14 0
-27 7 -30 15 -9 23 -18 18 -33 -17 -31 -76 -41 -94 -40 -73 0 11 4 39 8 63 8
40 -3 60 -15 27 -4 -8 -11 -15 -16 -15 -5 0 -18 -10 -29 -22 -16 -20 -18 -20
-19 -5 0 9 -7 17 -16 17 -11 0 -14 -6 -9 -20 3 -11 2 -28 -4 -37 -8 -13 -10 0
-8 50 1 41 6 72 14 79 7 6 13 22 13 36 0 29 51 123 58 104 2 -6 8 -12 13 -12
6 0 8 4 4 9 -3 5 4 12 15 16 11 3 20 11 20 16 0 5 9 18 21 30 13 13 18 24 11
31 -12 12 -42 -17 -42 -42 0 -35 -19 -31 -26 6 -9 49 3 65 57 80 70 18 70 18
53 -21z m4956 25 c0 -5 -4 -10 -10 -10 -5 0 -10 5 -10 10 0 6 5 10 10 10 6 0
10 -4 10 -10z m2230 0 c0 -5 -4 -10 -10 -10 -5 0 -10 5 -10 10 0 6 5 10 10 10
6 0 10 -4 10 -10z m-5058 -155 c16 -14 25 -25 20 -25 -5 0 -15 7 -22 15 -7 9
-19 14 -27 11 -7 -3 -13 1 -13 9 0 21 8 19 42 -10z m268 1 c0 -18 -7 -25 -27
-29 -16 -3 -31 -3 -35 0 -17 10 -6 32 20 41 40 15 42 14 42 -12z m-1066 -22
c9 -3 16 -16 16 -29 0 -40 -112 -76 -159 -51 -27 15 -27 16 59 58 62 30 63 30
84 22z m3544 -27 c2 -11 -8 -32 -23 -47 l-27 -29 33 -4 c31 -3 30 -4 -8 -5
-50 -2 -58 16 -18 42 14 9 25 26 25 37 0 18 -4 20 -26 15 -17 -5 -23 -3 -19 4
11 18 59 7 63 -13z m90 -20 c4 -44 -12 -69 -41 -65 -27 4 -41 47 -27 82 8 22
15 27 38 24 23 -3 27 -8 30 -41z m80 20 c2 -11 -8 -32 -23 -47 l-27 -29 33 -4
c31 -3 30 -4 -8 -5 -49 -2 -53 5 -18 38 31 29 34 65 5 57 -11 -3 -20 -1 -20 5
0 18 55 4 58 -15z m88 8 c4 -8 1 -22 -6 -30 -9 -11 -10 -15 -1 -15 7 0 11 -10
9 -22 -2 -18 -11 -24 -35 -26 -18 -2 -33 1 -33 6 0 5 10 8 21 8 30 -1 37 24 8
31 l-23 6 23 9 c25 9 23 34 -3 32 -9 -1 -16 2 -16 7 0 15 50 10 56 -6z m49
-58 c-13 -31 -30 -57 -35 -57 -6 0 -9 3 -7 8 3 4 17 34 32 67 15 33 29 55 31
49 3 -6 -7 -36 -21 -67z m103 30 c4 -44 -12 -69 -41 -65 -27 4 -41 47 -27 82
8 22 15 27 38 24 23 -3 27 -8 30 -41z m90 35 c-1 -4 -11 -28 -22 -55 -10 -26
-23 -47 -28 -47 -10 0 -3 31 18 72 14 26 13 27 -19 31 -27 3 -25 4 11 5 24 1
42 -1 40 -6z m51 -44 c-12 -29 -23 -59 -26 -65 -3 -7 -10 -13 -15 -13 -6 0 -8
6 -5 13 37 89 51 117 58 117 5 0 -1 -24 -12 -52z m89 29 c2 -11 -8 -32 -23
-47 l-27 -29 33 -4 c31 -3 30 -4 -8 -5 -49 -2 -53 5 -18 38 31 29 34 65 5 57
-11 -3 -20 -1 -20 5 0 18 55 4 58 -15z m82 -12 c0 -21 5 -35 13 -36 10 0 10
-2 0 -6 -7 -2 -13 -11 -13 -19 0 -8 -4 -14 -10 -14 -5 0 -10 7 -10 15 0 9 -10
15 -26 15 l-25 0 28 40 c15 22 31 40 36 40 4 0 7 -16 7 -35z m238 12 c2 -11
-8 -32 -23 -47 l-27 -29 33 -4 c31 -3 30 -4 -8 -5 -50 -2 -58 16 -18 42 14 9
25 26 25 37 0 18 -4 20 -26 15 -17 -5 -23 -3 -19 4 11 18 59 7 63 -13z m86 7
c11 -28 6 -71 -9 -84 -37 -31 -80 24 -57 75 13 29 56 35 66 9z m116 -19 c0
-21 5 -35 13 -36 10 0 10 -2 0 -6 -7 -2 -13 -11 -13 -19 0 -8 -4 -14 -10 -14
-5 0 -10 7 -10 15 0 9 -9 15 -25 15 -14 0 -25 2 -25 6 0 9 55 74 63 74 4 0 7
-16 7 -35z m94 3 c7 -20 5 -33 -8 -52 -16 -26 -56 -36 -56 -15 0 5 5 7 10 4 6
-4 18 -1 27 7 14 12 13 14 -13 18 -32 6 -43 32 -23 56 18 22 52 13 63 -18z
m-174 -8 c0 -5 -4 -10 -10 -10 -5 0 -10 5 -10 10 0 6 5 10 10 10 6 0 10 -4 10
-10z m-247 -27 c-7 -2 -21 -2 -30 0 -10 3 -4 5 12 5 17 0 24 -2 18 -5z m247
-33 c0 -5 -4 -10 -10 -10 -5 0 -10 5 -10 10 0 6 5 10 10 10 6 0 10 -4 10 -10z
m-2670 -100 c12 -8 9 -10 -13 -10 -16 0 -26 4 -22 10 8 12 16 12 35 0z m-1591
-31 c9 4 56 8 104 10 98 3 127 -10 127 -55 0 -41 -46 -55 -161 -50 -55 2 -103
7 -106 10 -3 3 -12 1 -19 -5 -8 -6 -23 -7 -36 -3 -13 4 -34 8 -47 8 -27 1 -54
36 -33 43 6 3 12 11 12 18 0 16 21 23 74 24 21 0 41 3 44 6 3 3 10 1 15 -4 6
-6 17 -7 26 -2z m1561 -144 c0 -8 -7 -15 -15 -15 -13 0 -14 3 -3 15 16 18 18
18 18 0z"/>
<path d="M10412 4710 c-18 -11 -41 -34 -52 -52 -71 -117 71 -259 188 -188 42
26 72 76 72 120 0 71 -69 140 -140 140 -19 0 -50 -9 -68 -20z"/>
<path d="M1906 4558 c-32 -45 -11 -108 34 -108 42 0 66 82 34 114 -22 22 -50
20 -68 -6z"/>
<path d="M1636 4574 c-25 -25 -19 -34 24 -34 41 0 52 14 28 38 -16 16 -33 15
-52 -4z"/>
<path d="M2700 4561 c-26 -50 -4 -111 40 -111 19 0 33 7 40 19 14 27 13 84 -2
99 -19 19 -66 15 -78 -7z"/>
<path d="M3552 4578 c-24 -24 -13 -38 28 -38 33 0 38 3 33 18 -12 32 -40 41
-61 20z"/>
<path d="M6920 3455 c0 -32 3 -36 23 -33 17 2 22 10 22 33 0 23 -5 31 -22 33
-20 3 -23 -1 -23 -33z"/>
<path d="M6308 3453 c7 -3 16 -2 19 1 4 3 -2 6 -13 5 -11 0 -14 -3 -6 -6z"/>
<path d="M6635 3450 c-8 -14 3 -30 21 -30 8 0 14 9 14 20 0 21 -24 28 -35 10z"/>
<path d="M7458 3453 c7 -3 16 -2 19 1 4 3 -2 6 -13 5 -11 0 -14 -3 -6 -6z"/>
<path d="M6266 3146 c-3 -13 -9 -31 -12 -40 -5 -13 1 -16 26 -16 25 0 31 3 26
16 -3 9 -9 27 -12 40 -3 13 -10 24 -14 24 -4 0 -11 -11 -14 -24z"/>
<path d="M7800 3170 c0 -41 8 -47 41 -30 35 19 14 70 -30 70 -6 0 -11 -18 -11
-40z"/>
<path d="M3376 2737 c-5 -10 -6 -31 -3 -46 4 -16 2 -43 -3 -60 -5 -19 -5 -31
1 -31 14 0 21 40 17 101 -2 38 -6 49 -12 36z"/>
<path d="M3668 2453 c-9 -10 -23 -31 -31 -48 -9 -16 -33 -41 -53 -55 -20 -14
-50 -37 -67 -52 l-32 -28 34 4 c19 2 41 13 50 23 9 11 33 27 54 37 33 15 37
21 37 54 0 21 7 48 16 60 18 26 13 29 -8 5z"/>
<path d="M3244 2244 c3 -26 11 -64 18 -85 9 -33 15 -39 40 -39 15 0 28 5 28
10 0 6 -9 10 -20 10 -21 0 -46 42 -29 48 15 6 10 32 -6 32 -9 0 -15 9 -15 25
0 20 5 25 25 25 14 0 25 5 25 10 0 6 -16 10 -36 10 l-37 0 7 -46z"/>
<path d="M3337 2228 c5 -80 11 -108 23 -108 6 0 10 14 10 30 0 17 5 30 10 30
6 0 10 -10 10 -22 0 -25 16 -55 24 -47 3 3 8 42 12 87 5 59 4 82 -5 82 -6 0
-11 -11 -11 -25 0 -14 -4 -25 -10 -25 -5 0 -10 9 -10 20 0 11 -4 20 -10 20 -5
0 -10 -9 -10 -19 0 -11 -4 -23 -10 -26 -6 -4 -10 8 -10 29 0 20 -4 36 -8 36
-5 0 -7 -28 -5 -62z"/>
<path d="M3488 2170 c-3 -87 8 -114 23 -58 3 14 18 48 32 77 19 37 22 51 13
51 -8 0 -20 -15 -27 -32 l-13 -33 -4 43 c-6 74 -20 45 -24 -48z"/>
<path d="M3593 2218 c-15 -20 -53 -119 -53 -138 0 -19 19 -30 49 -30 14 0 25
19 44 73 l27 72 -21 18 c-25 20 -33 21 -46 5z m37 -33 c0 -16 -29 -95 -39
-107 -3 -4 -12 -4 -18 0 -10 6 -8 21 7 62 11 30 20 56 20 57 0 2 7 3 15 3 8 0
15 -7 15 -15z"/>
<path d="M4351 2186 c0 -10 -14 -35 -31 -56 -35 -44 -39 -62 -9 -34 28 26 51
72 46 92 -4 15 -5 14 -6 -2z"/>
<path d="M3666 2115 c-20 -36 -36 -70 -36 -75 0 -22 19 -8 35 26 20 42 42 34
25 -10 -12 -33 -13 -56 -2 -56 5 0 14 18 21 40 6 22 16 40 21 40 5 0 17 14 26
32 16 31 16 32 -6 50 -12 10 -28 18 -35 18 -7 0 -29 -29 -49 -65z m74 25 c0
-27 -13 -39 -31 -30 -15 9 -17 14 -7 29 11 18 38 18 38 1z"/>
<path d="M3768 2056 c-57 -74 -62 -101 -13 -57 20 17 38 31 41 31 5 0 -35 -81
-44 -90 -3 -3 -2 4 2 14 6 16 4 17 -9 6 -12 -10 -13 -15 -4 -21 21 -12 44 7
65 53 19 43 40 68 59 67 6 0 0 -7 -12 -16 -13 -8 -23 -23 -23 -32 1 -20 43 34
47 61 4 23 -5 23 -42 -2 -42 -28 -50 -25 -26 9 12 16 21 32 21 35 0 17 -20 -1
-62 -58z"/>
<path d="M3249 2092 c22 -41 39 -47 79 -27 20 10 43 18 50 16 6 -1 12 3 12 9
0 6 -4 9 -9 5 -5 -3 -12 -1 -16 5 -3 5 -33 10 -66 10 -55 0 -59 -2 -50 -18z"/>
<path d="M3337 2031 c-33 -21 -29 -26 31 -36 38 -6 42 -5 42 14 0 11 -9 25
-19 31 -25 13 -21 13 -54 -9z"/>
<path d="M3462 2028 c-9 -11 -25 -29 -34 -40 -12 -12 -18 -33 -17 -65 0 -42 2
-45 12 -29 7 11 23 31 37 45 30 32 54 111 33 111 -7 0 -21 -10 -31 -22z"/>
<path d="M3585 1994 c-22 -8 -44 -13 -51 -10 -13 5 -41 -11 -32 -19 11 -11 88
-8 102 4 9 8 29 10 53 6 28 -5 34 -4 23 4 -8 6 -25 11 -38 11 -13 0 -20 4 -17
10 7 12 10 12 -40 -6z"/>
<path d="M7066 3114 c-9 -8 -16 -24 -16 -34 0 -19 25 -50 40 -50 15 0 40 31
40 50 0 19 -25 50 -40 50 -5 0 -16 -7 -24 -16z"/>
<path d="M8487 3119 c-22 -13 -22 -65 0 -78 27 -14 53 5 53 39 0 34 -26 53
-53 39z"/>
<path d="M9243 3055 c-3 -9 -2 -19 1 -23 8 -8 38 10 44 26 6 18 -38 14 -45 -3z"/>
<path d="M9824 3059 c-9 -15 12 -33 30 -26 9 4 16 13 16 22 0 17 -35 21 -46 4z"/>
<path d="M10287 3119 c-10 -6 -17 -22 -17 -39 0 -34 26 -53 52 -39 11 6 18 21
18 39 0 34 -26 53 -53 39z"/>
<path d="M1362 2675 c2 -14 8 -26 13 -26 6 0 11 12 13 26 2 18 -1 25 -13 25
-12 0 -15 -7 -13 -25z"/>
<path d="M1630 2620 c0 -5 5 -10 10 -10 6 0 10 5 10 10 0 6 -4 10 -10 10 -5 0
-10 -4 -10 -10z"/>
<path d="M1775 2560 c-15 -16 -15 -22 -5 -35 7 -8 18 -15 24 -15 7 0 6 4 -2 9
-11 7 -11 9 2 14 16 7 23 47 8 47 -5 0 -17 -9 -27 -20z"/>
<path d="M1418 2534 c-60 -45 -71 -77 -57 -164 5 -36 12 -109 13 -163 3 -82 6
-100 22 -112 26 -20 38 -19 106 12 46 20 64 35 78 63 19 37 19 38 -4 107 -12
39 -28 78 -35 87 -7 8 -10 20 -6 26 11 17 -16 154 -33 168 -23 18 -32 15 -84
-24z m66 -119 c6 -28 3 -33 -29 -48 -20 -9 -38 -17 -40 -17 -3 0 -5 21 -5 48
0 41 4 50 28 64 30 19 32 17 46 -47z m35 -197 c1 -18 -46 -48 -74 -48 -8 0
-15 6 -15 13 0 6 -3 28 -6 49 -6 34 -4 37 32 56 l39 20 12 -36 c6 -20 12 -45
12 -54z"/>
<path d="M6554 2659 c-9 -15 12 -33 30 -26 9 4 16 13 16 22 0 17 -35 21 -46 4z"/>
<path d="M7127 2719 c-22 -13 -22 -65 0 -78 27 -14 53 5 53 39 0 34 -26 53
-53 39z"/>
<path d="M7644 2659 c-9 -15 12 -33 30 -26 9 4 16 13 16 22 0 17 -35 21 -46 4z"/>
<path d="M8188 2719 c-25 -14 -24 -65 1 -79 11 -5 22 -10 25 -10 12 0 36 33
36 50 0 18 -25 50 -38 50 -4 0 -15 -5 -24 -11z"/>
<path d="M8628 2719 c-25 -14 -24 -65 1 -79 39 -20 68 41 35 74 -8 9 -16 16
-17 16 -1 0 -10 -5 -19 -11z"/>
<path d="M9130 2715 c-11 -13 -8 -15 20 -15 21 0 30 4 28 13 -7 18 -33 20 -48
2z"/>
<path d="M9687 2319 c-22 -13 -22 -65 0 -78 27 -14 53 5 53 39 0 34 -26 53
-53 39z"/>
<path d="M1951 2274 c0 -11 3 -14 6 -6 3 7 2 16 -1 19 -3 4 -6 -2 -5 -13z"/>
<path d="M1958 1956 c-12 -75 -10 -252 2 -240 7 7 10 64 8 150 -2 106 -5 128
-10 90z"/>
<path d="M1852 1885 c0 -16 2 -22 5 -12 2 9 2 23 0 30 -3 6 -5 -1 -5 -18z"/>
<path d="M1867 1577 c-11 -29 -9 -43 4 -30 6 6 9 19 7 29 -3 18 -4 18 -11 1z"/>
<path d="M6524 2259 c-9 -15 12 -33 30 -26 9 4 16 13 16 22 0 17 -35 21 -46 4z"/>
<path d="M7346 2314 c-33 -33 -4 -94 35 -74 12 7 19 21 19 40 0 38 -31 57 -54
34z"/>
<path d="M7806 2314 c-9 -8 -16 -24 -16 -34 0 -19 25 -50 40 -50 15 0 40 31
40 50 0 19 -25 50 -40 50 -5 0 -16 -7 -24 -16z"/>
<path d="M8443 2255 c-3 -9 -2 -19 1 -23 8 -8 38 10 44 26 6 18 -38 14 -45 -3z"/>
<path d="M8840 2315 c-11 -13 -8 -15 20 -15 21 0 30 4 28 13 -7 18 -33 20 -48
2z"/>
<path d="M9900 2315 c-11 -13 -8 -15 20 -15 21 0 30 4 28 13 -7 18 -33 20 -48
2z"/>
<path d="M7140 1855 c0 -46 13 -58 38 -33 25 25 8 78 -25 78 -9 0 -13 -15 -13
-45z"/>
<path d="M9810 1855 c-10 -12 -10 -15 4 -15 9 0 16 7 16 15 0 8 -2 15 -4 15
-2 0 -9 -7 -16 -15z"/>
<path d="M9894 1887 c-10 -27 0 -72 16 -72 11 0 15 11 15 39 0 40 -20 61 -31
33z"/>
<path d="M6260 1855 c-11 -13 -11 -19 3 -33 20 -19 41 -5 35 24 -4 24 -22 28
-38 9z"/>
<path d="M6455 1860 c-3 -5 3 -10 15 -10 12 0 18 5 15 10 -3 6 -10 10 -15 10
-5 0 -12 -4 -15 -10z"/>
<path d="M6615 1829 c-4 -6 -5 -13 -2 -16 7 -7 27 6 27 18 0 12 -17 12 -25 -2z"/>
<path d="M6847 1863 c-13 -12 -7 -53 7 -53 17 0 28 24 20 45 -7 16 -17 19 -27
8z"/>
<path d="M6965 1860 c-3 -5 3 -10 15 -10 12 0 18 5 15 10 -3 6 -10 10 -15 10
-5 0 -12 -4 -15 -10z"/>
<path d="M7425 1860 c-3 -5 3 -10 15 -10 12 0 18 5 15 10 -3 6 -10 10 -15 10
-5 0 -12 -4 -15 -10z"/>
<path d="M7655 1829 c-4 -6 -5 -13 -2 -16 7 -7 27 6 27 18 0 12 -17 12 -25 -2z"/>
<path d="M7865 1860 c-3 -5 1 -10 9 -10 9 0 16 5 16 10 0 6 -4 10 -9 10 -6 0
-13 -4 -16 -10z"/>
<path d="M8175 1829 c-4 -6 -5 -13 -2 -16 7 -7 27 6 27 18 0 12 -17 12 -25 -2z"/>
<path d="M8374 1856 c-8 -22 3 -49 19 -43 6 2 12 14 12 27 0 27 -22 39 -31 16z"/>
<path d="M8595 1860 c-3 -5 3 -10 15 -10 12 0 18 5 15 10 -3 6 -10 10 -15 10
-5 0 -12 -4 -15 -10z"/>
<path d="M8896 1855 c-8 -21 3 -45 20 -45 9 0 14 11 14 30 0 32 -23 42 -34 15z"/>
<path d="M8994 1856 c-8 -22 3 -49 19 -43 6 2 12 14 12 27 0 27 -22 39 -31 16z"/>
<path d="M9175 1860 c-3 -5 3 -10 15 -10 12 0 18 5 15 10 -3 6 -10 10 -15 10
-5 0 -12 -4 -15 -10z"/>
<path d="M9594 1855 c-8 -21 2 -45 20 -45 7 0 16 7 20 15 8 21 -3 45 -20 45
-8 0 -17 -7 -20 -15z"/>
<path d="M4115 1289 c-8 -12 8 -16 35 -9 l25 6 -28 6 c-15 3 -30 2 -32 -3z"/>
<path d="M3650 1152 c-24 -21 -41 -42 -39 -47 2 -6 25 11 50 38 56 56 49 62
-11 9z"/>
<path d="M3554 1121 c4 -6 2 -11 -3 -11 -6 0 -11 -4 -11 -10 0 -5 14 -10 31
-10 24 0 30 4 27 18 -2 9 -14 19 -27 20 -15 2 -21 0 -17 -7z"/>
<path d="M3955 1099 c-83 -4 -158 -14 -185 -23 l-45 -16 45 6 c25 4 107 8 184
10 76 1 145 5 152 8 17 7 18 27 2 24 -7 0 -76 -5 -153 -9z"/>
<path d="M3725 1040 c-13 -6 15 -9 85 -9 58 -1 137 -3 175 -6 52 -3 61 -2 35
4 -52 13 -272 21 -295 11z"/>
<path d="M6895 1609 c-8 -23 7 -45 24 -35 6 4 11 18 11 32 0 30 -26 32 -35 3z"/>
<path d="M8274 1616 c-8 -22 3 -49 19 -43 6 2 12 14 12 27 0 27 -22 39 -31 16z"/>
<path d="M8661 1641 c-13 -24 -4 -74 13 -68 14 5 20 67 8 79 -7 7 -14 3 -21
-11z"/>
<path d="M8744 1647 c-10 -27 0 -72 16 -72 11 0 15 11 15 39 0 40 -20 61 -31
33z"/>
<path d="M6185 1589 c-4 -6 -5 -13 -2 -16 7 -7 27 6 27 18 0 12 -17 12 -25 -2z"/>
<path d="M6644 1615 c-8 -21 2 -45 20 -45 17 0 28 24 20 45 -4 8 -13 15 -20
15 -8 0 -17 -7 -20 -15z"/>
<path d="M6987 1593 c-12 -11 -8 -23 8 -23 8 0 15 7 15 15 0 16 -12 20 -23 8z"/>
<path d="M7135 1620 c-3 -5 3 -10 15 -10 12 0 18 5 15 10 -3 6 -10 10 -15 10
-5 0 -12 -4 -15 -10z"/>
<path d="M7277 1623 c-13 -12 -7 -53 7 -53 17 0 28 24 20 45 -7 16 -17 19 -27
8z"/>
<path d="M7355 1620 c-3 -5 3 -10 15 -10 12 0 18 5 15 10 -3 6 -10 10 -15 10
-5 0 -12 -4 -15 -10z"/>
<path d="M7575 1620 c-3 -5 1 -10 9 -10 9 0 16 5 16 10 0 6 -4 10 -9 10 -6 0
-13 -4 -16 -10z"/>
<path d="M7797 1594 c-8 -8 1 -24 14 -24 5 0 9 7 9 15 0 15 -12 20 -23 9z"/>
<path d="M7884 1616 c-8 -22 3 -49 19 -43 6 2 12 14 12 27 0 27 -22 39 -31 16z"/>
<path d="M7975 1620 c-3 -5 3 -10 15 -10 12 0 18 5 15 10 -3 6 -10 10 -15 10
-5 0 -12 -4 -15 -10z"/>
<path d="M8105 1589 c-4 -6 -5 -13 -2 -16 7 -7 27 6 27 18 0 12 -17 12 -25 -2z"/>
<path d="M8415 1589 c-4 -6 -5 -13 -2 -16 7 -7 27 6 27 18 0 12 -17 12 -25 -2z"/>
<path d="M9074 1616 c-8 -22 3 -49 19 -43 6 2 12 14 12 27 0 27 -22 39 -31 16z"/>
<path d="M9166 1615 c-8 -21 3 -45 20 -45 9 0 14 11 14 30 0 32 -23 42 -34 15z"/>
<path d="M9386 1615 c-7 -20 3 -45 19 -45 16 0 29 35 20 50 -9 15 -32 12 -39
-5z"/>
<path d="M9534 1616 c-8 -22 3 -49 19 -43 6 2 12 14 12 27 0 27 -22 39 -31 16z"/>
<path d="M9625 1620 c-3 -5 1 -10 9 -10 9 0 16 5 16 10 0 6 -4 10 -9 10 -6 0
-13 -4 -16 -10z"/>
<path d="M9835 1620 c-3 -5 3 -10 15 -10 12 0 18 5 15 10 -3 6 -10 10 -15 10
-5 0 -12 -4 -15 -10z"/>
<path d="M10065 1589 c-4 -6 -5 -13 -2 -16 7 -7 27 6 27 18 0 12 -17 12 -25
-2z"/>
<path d="M10144 1616 c-8 -22 3 -49 19 -43 6 2 12 14 12 27 0 27 -22 39 -31
16z"/>
<path d="M10240 1620 c0 -5 7 -10 15 -10 8 0 15 5 15 10 0 6 -7 10 -15 10 -8
0 -15 -4 -15 -10z"/>
<path d="M1710 1431 c-44 -6 -44 -7 28 -14 41 -5 76 -6 80 -3 3 3 -11 6 -32 6
-22 0 -35 4 -31 10 3 6 5 9 3 8 -2 0 -23 -4 -48 -7z"/>
<path d="M1485 1410 c-12 -4 -26 -15 -33 -23 -11 -13 -6 -13 35 2 26 10 55 21
63 24 8 3 2 5 -15 6 -16 0 -39 -4 -50 -9z"/>
<path d="M1838 1403 c6 -2 18 -2 25 0 6 3 1 5 -13 5 -14 0 -19 -2 -12 -5z"/>
<path d="M1310 1353 c0 -6 46 -14 103 -17 56 -4 120 -12 142 -17 33 -7 28 -8
-28 -4 -42 3 -66 1 -62 -5 3 -6 42 -10 85 -10 64 0 78 3 74 14 -9 24 -314 61
-314 39z"/>
<path d="M1325 1320 c11 -5 36 -9 55 -9 28 0 31 2 15 9 -11 5 -36 9 -55 9 -28
0 -31 -2 -15 -9z"/>
<path d="M1428 1313 c7 -3 16 -2 19 1 4 3 -2 6 -13 5 -11 0 -14 -3 -6 -6z"/>
<path d="M1200 1294 c-13 -15 -23 -64 -14 -64 6 0 44 63 44 73 0 12 -17 8 -30
-9z"/>
<path d="M1528 1267 c-15 -6 -29 -16 -32 -23 -4 -9 5 -8 32 3 42 17 64 34 42
32 -8 -1 -27 -6 -42 -12z"/>
<path d="M6271 1361 c-13 -24 -4 -74 13 -68 14 5 20 67 8 79 -7 7 -14 3 -21
-11z"/>
<path d="M6591 1361 c-13 -24 -4 -74 13 -68 14 5 20 67 8 79 -7 7 -14 3 -21
-11z"/>
<path d="M6916 1335 c-3 -8 -1 -15 4 -15 6 0 10 7 10 15 0 8 -2 15 -4 15 -2 0
-6 -7 -10 -15z"/>
<path d="M7224 1356 c-7 -31 4 -68 19 -63 16 5 15 79 0 84 -7 3 -15 -7 -19
-21z"/>
<path d="M7350 1335 c-10 -12 -10 -15 4 -15 9 0 16 7 16 15 0 8 -2 15 -4 15
-2 0 -9 -7 -16 -15z"/>
<path d="M7433 1364 c-8 -20 13 -42 27 -28 12 12 3 44 -11 44 -5 0 -12 -7 -16
-16z"/>
</g>
</svg>
